<svg width="110" height="110" viewBox="0 0 110 110" fill="none" xmlns="http://www.w3.org/2000/svg">
<rect x="2.5" y="2.5" width="105" height="105" rx="9.5" fill="#000F45"/>
<path opacity="0.3" d="M43.9513 47.25C43.9513 45.4282 45.4282 43.9513 47.2501 43.9513H75.702C77.5239 43.9513 79.0008 45.4282 79.0008 47.25V75.702C79.0008 77.5239 77.5239 79.0008 75.702 79.0008H47.2501C45.4282 79.0008 43.9513 77.5239 43.9513 75.702V47.25Z" fill="#FF0093"/>
<path opacity="0.5" d="M72.5251 69.2263C72.5251 71.0481 71.0481 72.5251 69.2263 72.5251H40.7743C38.9524 72.5251 37.4755 71.0481 37.4755 69.2263V40.7743C37.4755 38.9524 38.9524 37.4755 40.7743 37.4755H69.2263C71.0481 37.4755 72.5251 38.9524 72.5251 40.7743V69.2263Z" fill="#FF0093"/>
<path opacity="0.9" d="M66.0495 62.7507C66.0495 64.5726 64.5726 66.0495 62.7508 66.0495H34.2988C32.4769 66.0495 31 64.5726 31 62.7507V34.2988C31 32.4769 32.4769 31 34.2988 31H62.7508C64.5726 31 66.0495 32.4769 66.0495 34.2988V62.7507Z" fill="#FF0093"/>
<rect x="2.5" y="2.5" width="105" height="105" rx="9.5" stroke="url(#paint0_linear_1_8)" stroke-width="5"/>
<defs>
<linearGradient id="paint0_linear_1_8" x1="5" y1="54.9999" x2="105" y2="54.9999" gradientUnits="userSpaceOnUse">
<stop stop-color="#364874"/>
<stop offset="1" stop-color="#0E1A35"/>
</linearGradient>
</defs>
</svg>
