<svg width="700" height="700" viewBox="0 0 700 700" fill="none" xmlns="http://www.w3.org/2000/svg">
    <path d="M0 31C0 13.8792 13.8792 0 31 0H669C686.121 0 700 13.8792 700 31V669C700 686.121 686.121 700 669 700H31C13.8792 700 0 686.121 0 669V31Z" fill="#1F2937" />
    <path d="M263.571 287.571C263.571 274.317 274.317 263.571 287.571 263.571H526C539.255 263.571 550 274.317 550 287.571V526C550 539.255 539.255 550 526 550H287.571C274.317 550 263.571 539.255 263.571 526V287.571Z" fill="white" fill-opacity="0.9" />
    <path d="M206.286 230.286C206.286 217.031 217.031 206.286 230.286 206.286H468.714C481.969 206.286 492.714 217.031 492.714 230.286V468.714C492.714 481.969 481.969 492.714 468.714 492.714H230.286C217.031 492.714 206.286 481.969 206.286 468.714V230.286Z" fill="white" fill-opacity="0.9" />
    <path d="M149 173C149 159.745 159.745 149 173 149H411.429C424.683 149 435.429 159.745 435.429 173V411.429C435.429 424.683 424.683 435.429 411.429 435.429H173C159.745 435.429 149 424.683 149 411.429V173Z" fill="white" fill-opacity="0.9" />
</svg>