<svg width="2200" height="600" viewBox="0 0 2200 600" fill="none" xmlns="http://www.w3.org/2000/svg">
    <rect width="2200" height="600" rx="49" fill="#1F2937" />
    <path d="M355.714 261.429C355.714 247.227 367.227 235.714 381.429 235.714H544.286C558.487 235.714 570 247.227 570 261.429V424.286C570 438.487 558.487 450 544.286 450H381.429C367.227 450 355.714 438.487 355.714 424.286V261.429Z" fill="white" fill-opacity="0.9" />
    <path d="M312.857 218.571C312.857 204.37 324.37 192.857 338.571 192.857H501.429C515.63 192.857 527.143 204.37 527.143 218.571V381.429C527.143 395.63 515.63 407.143 501.429 407.143H338.571C324.37 407.143 312.857 395.63 312.857 381.429V218.571Z" fill="white" fill-opacity="0.9" />
    <path d="M270 175.714C270 161.513 281.513 150 295.714 150H458.571C472.773 150 484.286 161.513 484.286 175.714V338.571C484.286 352.773 472.773 364.286 458.571 364.286H295.714C281.513 364.286 270 352.773 270 338.571V175.714Z" fill="white" fill-opacity="0.9" />
    <path d="M673.653 375.002C671.207 375.002 669.067 374.161 667.233 372.48C665.552 370.798 664.711 368.658 664.711 366.06V204.872C664.711 202.426 665.552 200.362 667.233 198.681C669.067 196.847 671.207 195.93 673.653 195.93C676.099 195.93 678.162 196.847 679.844 198.681C681.678 200.362 682.595 202.426 682.595 204.872V358.035H772.246C774.692 358.035 776.755 358.875 778.437 360.557C780.271 362.085 781.188 364.072 781.188 366.518C781.188 368.964 780.271 371.027 778.437 372.709C776.755 374.237 774.692 375.002 772.246 375.002H673.653Z" fill="white" />
    <path d="M862.771 376.148C851.001 376.148 840.454 373.397 831.129 367.894C821.805 362.238 814.392 354.595 808.889 344.965C803.539 335.335 800.864 324.482 800.864 312.407C800.864 300.178 803.615 289.249 809.118 279.619C814.774 269.989 822.417 262.422 832.047 256.92C841.677 251.264 852.529 248.436 864.605 248.436C876.681 248.436 887.457 251.264 896.934 256.92C906.564 262.422 914.131 269.989 919.634 279.619C925.289 289.249 928.194 300.178 928.347 312.407V366.289C928.347 368.887 927.506 371.027 925.824 372.709C924.143 374.237 922.003 375.002 919.404 375.002C916.806 375.002 914.666 374.237 912.984 372.709C911.303 371.027 910.462 368.887 910.462 366.289V352.302C905.265 359.64 898.539 365.448 890.285 369.728C882.031 374.008 872.859 376.148 862.771 376.148ZM864.605 360.098C873.471 360.098 881.343 358.035 888.222 353.907C895.253 349.78 900.756 344.125 904.73 336.94C908.857 329.603 910.921 321.425 910.921 312.407C910.921 303.235 908.857 295.057 904.73 287.873C900.756 280.689 895.253 275.033 888.222 270.906C881.343 266.626 873.471 264.486 864.605 264.486C855.892 264.486 848.02 266.626 840.989 270.906C833.957 275.033 828.378 280.689 824.251 287.873C820.124 295.057 818.06 303.235 818.06 312.407C818.06 321.425 820.124 329.603 824.251 336.94C828.378 344.125 833.957 349.78 840.989 353.907C848.02 358.035 855.892 360.098 864.605 360.098Z" fill="white" />
    <path d="M984.237 429.572C983.014 429.572 981.638 429.266 980.11 428.655C974.912 426.362 973.46 422.693 975.753 417.649L998.682 367.435L998.452 367.206L947.322 261.276C946.252 258.983 946.099 256.843 946.863 254.856C947.627 252.869 949.156 251.34 951.449 250.27C956.493 247.977 960.162 249.277 962.455 254.168L1007.17 348.405L1049.81 254.397C1052.11 249.506 1055.77 248.13 1060.82 250.27C1066.02 252.41 1067.47 256.002 1065.17 261.047L990.886 424.298C989.357 427.814 987.141 429.572 984.237 429.572Z" fill="white" />
    <path d="M1140.68 376.148C1128.3 376.148 1117.3 373.473 1107.67 368.123C1098.19 362.62 1090.7 355.054 1085.2 345.424C1079.85 335.794 1077.17 324.788 1077.17 312.407C1077.17 299.872 1079.69 288.867 1084.74 279.39C1089.93 269.76 1097.04 262.193 1106.06 256.69C1115.08 251.187 1125.47 248.436 1137.24 248.436C1148.86 248.436 1158.95 251.111 1167.51 256.461C1176.22 261.658 1182.95 268.919 1187.69 278.243C1192.43 287.567 1194.79 298.191 1194.79 310.114C1194.79 312.56 1194.03 314.547 1192.5 316.075C1190.97 317.451 1188.99 318.139 1186.54 318.139H1093.91C1094.83 326.393 1097.35 333.73 1101.48 340.15C1105.6 346.417 1111.03 351.385 1117.75 355.054C1124.48 358.57 1132.12 360.327 1140.68 360.327C1146.19 360.327 1151.69 359.41 1157.19 357.576C1162.85 355.589 1167.36 353.143 1170.72 350.239C1172.4 348.863 1174.31 348.175 1176.45 348.175C1178.59 348.022 1180.43 348.557 1181.95 349.78C1183.94 351.615 1184.94 353.602 1184.94 355.742C1185.09 357.882 1184.25 359.716 1182.41 361.245C1177.37 365.525 1170.95 369.117 1163.15 372.021C1155.36 374.772 1147.87 376.148 1140.68 376.148ZM1137.24 264.257C1125.47 264.257 1115.77 267.925 1108.12 275.262C1100.48 282.447 1095.9 291.847 1094.37 303.465H1178.29C1177.06 291.847 1172.78 282.447 1165.45 275.262C1158.26 267.925 1148.86 264.257 1137.24 264.257Z" fill="white" />
    <path d="M1233.37 375.002C1227.57 375.002 1224.66 372.097 1224.66 366.289V258.295C1224.66 252.487 1227.57 249.582 1233.37 249.582C1239.18 249.582 1242.09 252.487 1242.09 258.295V268.155C1246.67 262.04 1252.33 257.225 1259.05 253.71C1265.78 250.041 1273.19 248.207 1281.29 248.207C1288.33 248.207 1293.75 249.2 1297.57 251.187C1301.4 253.175 1302.85 256.079 1301.93 259.9C1301.17 263.416 1299.33 265.25 1296.43 265.403C1293.68 265.403 1290.39 265.25 1286.57 264.945C1278.01 264.18 1270.37 265.097 1263.64 267.696C1257.07 270.142 1251.79 273.963 1247.82 279.16C1244 284.357 1242.09 290.548 1242.09 297.732V366.289C1242.09 372.097 1239.18 375.002 1233.37 375.002Z" fill="white" />
    <path d="M1387 377.295C1372.32 377.295 1359.33 374.161 1348.02 367.894C1336.86 361.627 1328.91 353.296 1324.17 342.902C1322.95 340.456 1322.87 338.24 1323.94 336.252C1325.17 334.112 1327.15 332.66 1329.9 331.896C1332.04 331.285 1334.11 331.514 1336.1 332.584C1338.24 333.654 1339.84 335.259 1340.91 337.399C1344.43 344.125 1350.23 349.627 1358.34 353.907C1366.44 358.187 1375.99 360.327 1387 360.327C1399.07 360.327 1409.01 357.423 1416.8 351.615C1424.75 345.653 1428.73 337.093 1428.73 325.935C1428.73 316.61 1425.29 308.585 1418.41 301.86C1411.53 295.134 1400.75 290.854 1386.08 289.02C1368.2 286.88 1354.21 281.377 1344.12 272.511C1334.03 263.492 1328.99 252.487 1328.99 239.494C1328.99 230.17 1331.43 222.068 1336.32 215.19C1341.37 208.311 1348.25 203.037 1356.96 199.369C1365.67 195.547 1375.69 193.637 1387 193.637C1399.68 193.637 1410.54 196.541 1419.56 202.35C1428.57 208.005 1435.53 214.731 1440.42 222.527C1441.95 224.972 1442.41 227.342 1441.8 229.635C1441.34 231.927 1440.04 233.685 1437.9 234.908C1435.61 235.978 1433.24 236.131 1430.79 235.367C1428.5 234.602 1426.74 233.15 1425.52 231.01C1422 225.66 1417.19 220.998 1411.07 217.024C1405.11 212.897 1397.01 210.757 1386.77 210.604C1374.69 210.604 1364.99 213.202 1357.65 218.4C1350.31 223.444 1346.64 230.857 1346.64 240.64C1346.64 248.436 1349.78 255.238 1356.04 261.047C1362.46 266.855 1373.77 270.906 1389.98 273.199C1409.08 275.95 1423.22 281.835 1432.4 290.854C1441.72 299.72 1446.38 311.337 1446.38 325.705C1446.38 336.711 1443.71 346.112 1438.36 353.907C1433.16 361.55 1426.05 367.359 1417.03 371.333C1408.01 375.307 1398 377.295 1387 377.295Z" fill="white" />
    <path d="M1509.92 375.002C1505.64 375.002 1502.81 373.091 1501.44 369.27L1465.67 261.964C1463.68 253.71 1465.9 249.582 1472.32 249.582C1476.44 249.582 1479.35 251.799 1481.03 256.232L1510.38 345.653L1537.43 256.461C1538.04 254.474 1539.04 252.869 1540.41 251.646C1541.94 250.27 1543.85 249.582 1546.15 249.582C1550.58 249.582 1553.48 251.875 1554.86 256.461L1581.23 345.195L1610.35 256.232C1611.87 251.799 1614.7 249.582 1618.83 249.582C1622.19 249.582 1624.49 250.882 1625.71 253.48C1626.93 255.926 1626.93 258.754 1625.71 261.964L1589.94 369.27C1588.72 373.091 1585.97 375.002 1581.69 375.002C1579.7 375.002 1577.86 374.467 1576.18 373.397C1574.65 372.327 1573.66 370.951 1573.2 369.27L1545.69 278.014L1518.17 369.27C1516.8 373.091 1514.05 375.002 1509.92 375.002Z" fill="white" />
    <path d="M1701.99 376.148C1690.22 376.148 1679.68 373.397 1670.35 367.894C1661.03 362.238 1653.61 354.595 1648.11 344.965C1642.76 335.335 1640.09 324.482 1640.09 312.407C1640.09 300.178 1642.84 289.249 1648.34 279.619C1654 269.989 1661.64 262.422 1671.27 256.92C1680.9 251.264 1691.75 248.436 1703.83 248.436C1715.9 248.436 1726.68 251.264 1736.16 256.92C1745.79 262.422 1753.35 269.989 1758.86 279.619C1764.51 289.249 1767.42 300.178 1767.57 312.407V366.289C1767.57 368.887 1766.73 371.027 1765.05 372.709C1763.36 374.237 1761.22 375.002 1758.63 375.002C1756.03 375.002 1753.89 374.237 1752.21 372.709C1750.52 371.027 1749.68 368.887 1749.68 366.289V352.302C1744.49 359.64 1737.76 365.448 1729.51 369.728C1721.25 374.008 1712.08 376.148 1701.99 376.148ZM1703.83 360.098C1712.69 360.098 1720.56 358.035 1727.44 353.907C1734.47 349.78 1739.98 344.125 1743.95 336.94C1748.08 329.603 1750.14 321.425 1750.14 312.407C1750.14 303.235 1748.08 295.057 1743.95 287.873C1739.98 280.689 1734.47 275.033 1727.44 270.906C1720.56 266.626 1712.69 264.486 1703.83 264.486C1695.11 264.486 1687.24 266.626 1680.21 270.906C1673.18 275.033 1667.6 280.689 1663.47 287.873C1659.35 295.057 1657.28 303.235 1657.28 312.407C1657.28 321.425 1659.35 329.603 1663.47 336.94C1667.6 344.125 1673.18 349.78 1680.21 353.907C1687.24 358.035 1695.11 360.098 1703.83 360.098Z" fill="white" />
    <path d="M1810.85 428.655C1808.1 428.655 1805.88 427.814 1804.2 426.132C1802.67 424.604 1801.91 422.464 1801.91 419.712V311.49C1802.06 299.567 1804.89 288.867 1810.39 279.39C1816.04 269.76 1823.61 262.193 1833.09 256.69C1842.72 251.187 1853.49 248.436 1865.42 248.436C1877.65 248.436 1888.58 251.264 1898.21 256.92C1907.84 262.422 1915.4 269.989 1920.9 279.619C1926.56 289.249 1929.39 300.178 1929.39 312.407C1929.39 324.482 1926.64 335.335 1921.13 344.965C1915.78 354.595 1908.45 362.238 1899.12 367.894C1889.8 373.397 1879.25 376.148 1867.48 376.148C1857.24 376.148 1847.92 374.008 1839.51 369.728C1831.25 365.295 1824.6 359.487 1819.56 352.302V419.712C1819.56 422.464 1818.72 424.604 1817.04 426.132C1815.51 427.814 1813.45 428.655 1810.85 428.655ZM1865.42 360.098C1874.28 360.098 1882.23 358.035 1889.26 353.907C1896.29 349.78 1901.8 344.125 1905.77 336.94C1909.9 329.603 1911.96 321.425 1911.96 312.407C1911.96 303.235 1909.9 295.057 1905.77 287.873C1901.8 280.689 1896.29 275.033 1889.26 270.906C1882.23 266.626 1874.28 264.486 1865.42 264.486C1856.7 264.486 1848.83 266.626 1841.8 270.906C1834.77 275.033 1829.27 280.689 1825.29 287.873C1821.32 295.057 1819.33 303.235 1819.33 312.407C1819.33 321.425 1821.32 329.603 1825.29 336.94C1829.27 344.125 1834.77 349.78 1841.8 353.907C1848.83 358.035 1856.7 360.098 1865.42 360.098Z" fill="white" />
</svg>