<svg width="1558" height="280" viewBox="0 0 1558 280" fill="none" xmlns="http://www.w3.org/2000/svg">
    <rect x="80" y="80" width="200" height="200" rx="24" fill="#1F2937" fill-opacity="0.7" />
    <rect x="40" y="40" width="200" height="200" rx="24" fill="#1F2937" fill-opacity="0.8" />
    <rect width="200" height="200" rx="24" fill="#1F2937" />
    <path d="M385.744 210.001C383.462 210.001 381.464 209.216 379.752 207.647C378.183 206.077 377.398 204.08 377.398 201.655V51.2126C377.398 48.9299 378.183 47.0039 379.752 45.4346C381.464 43.7226 383.462 42.8666 385.744 42.8666C388.027 42.8666 389.953 43.7226 391.522 45.4346C393.234 47.0039 394.09 48.9299 394.09 51.2126V194.165H477.764C480.047 194.165 481.973 194.949 483.542 196.519C485.254 197.945 486.11 199.8 486.11 202.083C486.11 204.365 485.254 206.291 483.542 207.861C481.973 209.287 480.047 210.001 477.764 210.001H385.744Z" fill="#1F2937" />
    <path d="M562.254 211.071C551.269 211.071 541.425 208.503 532.722 203.367C524.02 198.088 517.1 190.955 511.964 181.967C506.971 172.979 504.474 162.849 504.474 151.579C504.474 140.165 507.042 129.965 512.178 120.977C517.457 111.989 524.59 104.927 533.578 99.7906C542.566 94.5119 552.696 91.8726 563.966 91.8726C575.237 91.8726 585.295 94.5119 594.14 99.7906C603.128 104.927 610.19 111.989 615.326 120.977C620.605 129.965 623.316 140.165 623.458 151.579V201.869C623.458 204.294 622.674 206.291 621.104 207.861C619.535 209.287 617.538 210.001 615.112 210.001C612.687 210.001 610.69 209.287 609.12 207.861C607.551 206.291 606.766 204.294 606.766 201.869V188.815C601.916 195.663 595.638 201.084 587.934 205.079C580.23 209.073 571.67 211.071 562.254 211.071ZM563.966 196.091C572.241 196.091 579.588 194.165 586.008 190.313C592.571 186.461 597.707 181.182 601.416 174.477C605.268 167.629 607.194 159.996 607.194 151.579C607.194 143.019 605.268 135.386 601.416 128.681C597.707 121.975 592.571 116.697 586.008 112.845C579.588 108.85 572.241 106.853 563.966 106.853C555.834 106.853 548.487 108.85 541.924 112.845C535.362 116.697 530.154 121.975 526.302 128.681C522.45 135.386 520.524 143.019 520.524 151.579C520.524 159.996 522.45 167.629 526.302 174.477C530.154 181.182 535.362 186.461 541.924 190.313C548.487 194.165 555.834 196.091 563.966 196.091Z" fill="#1F2937" />
    <path d="M675.622 260.933C674.481 260.933 673.197 260.647 671.77 260.077C666.92 257.937 665.564 254.513 667.704 249.805L689.104 202.939L688.89 202.725L641.168 103.857C640.17 101.717 640.027 99.7192 640.74 97.8646C641.454 96.0099 642.88 94.5832 645.02 93.5846C649.728 91.4446 653.152 92.6572 655.292 97.2226L697.022 185.177L736.826 97.4366C738.966 92.8712 742.39 91.5872 747.098 93.5846C751.949 95.5819 753.304 98.9346 751.164 103.643L681.828 256.011C680.402 259.292 678.333 260.933 675.622 260.933Z" fill="#1F2937" />
    <path d="M821.639 211.071C810.083 211.071 799.811 208.574 790.823 203.581C781.978 198.445 774.987 191.383 769.851 182.395C764.858 173.407 762.361 163.135 762.361 151.579C762.361 139.88 764.715 129.608 769.423 120.763C774.274 111.775 780.908 104.713 789.325 99.5766C797.742 94.4406 807.444 91.8726 818.429 91.8726C829.272 91.8726 838.688 94.3692 846.677 99.3626C854.809 104.213 861.086 110.99 865.509 119.693C869.932 128.395 872.143 138.311 872.143 149.439C872.143 151.721 871.43 153.576 870.003 155.003C868.576 156.287 866.722 156.929 864.439 156.929H777.983C778.839 164.633 781.193 171.481 785.045 177.473C788.897 183.322 793.962 187.959 800.239 191.383C806.516 194.664 813.65 196.305 821.639 196.305C826.775 196.305 831.911 195.449 837.047 193.737C842.326 191.882 846.534 189.599 849.673 186.889C851.242 185.605 853.026 184.963 855.023 184.963C857.02 184.82 858.732 185.319 860.159 186.461C862.014 188.173 862.941 190.027 862.941 192.025C863.084 194.022 862.299 195.734 860.587 197.161C855.879 201.155 849.887 204.508 842.611 207.219C835.335 209.787 828.344 211.071 821.639 211.071ZM818.429 106.639C807.444 106.639 798.384 110.063 791.251 116.911C784.118 123.616 779.838 132.39 778.411 143.233H856.735C855.594 132.39 851.599 123.616 844.751 116.911C838.046 110.063 829.272 106.639 818.429 106.639Z" fill="#1F2937" />
    <path d="M908.15 210.001C902.729 210.001 900.018 207.29 900.018 201.869V101.075C900.018 95.6532 902.729 92.9426 908.15 92.9426C913.572 92.9426 916.282 95.6532 916.282 101.075V110.277C920.562 104.57 925.841 100.076 932.118 96.7946C938.396 93.3706 945.315 91.6586 952.876 91.6586C959.439 91.6586 964.504 92.5859 968.07 94.4406C971.637 96.2952 972.992 99.0059 972.136 102.573C971.423 105.854 969.711 107.566 967 107.709C964.432 107.709 961.365 107.566 957.798 107.281C949.809 106.567 942.676 107.423 936.398 109.849C930.264 112.131 925.342 115.698 921.632 120.549C918.066 125.399 916.282 131.177 916.282 137.883V201.869C916.282 207.29 913.572 210.001 908.15 210.001Z" fill="#1F2937" />
    <path d="M1051.53 212.141C1037.84 212.141 1025.71 209.216 1015.15 203.367C1004.74 197.517 997.319 189.742 992.896 180.041C991.755 177.758 991.683 175.689 992.682 173.835C993.823 171.837 995.678 170.482 998.246 169.769C1000.24 169.198 1002.17 169.412 1004.02 170.411C1006.02 171.409 1007.52 172.907 1008.52 174.905C1011.8 181.182 1017.22 186.318 1024.78 190.313C1032.34 194.307 1041.26 196.305 1051.53 196.305C1062.8 196.305 1072.08 193.594 1079.35 188.173C1086.77 182.609 1090.48 174.619 1090.48 164.205C1090.48 155.502 1087.27 148.012 1080.85 141.735C1074.43 135.457 1064.37 131.463 1050.68 129.751C1033.98 127.753 1020.93 122.617 1011.51 114.343C1002.1 105.925 997.39 95.6532 997.39 83.5266C997.39 74.8239 999.673 67.2626 1004.24 60.8426C1008.95 54.4226 1015.37 49.5006 1023.5 46.0766C1031.63 42.5099 1040.97 40.7266 1051.53 40.7266C1063.37 40.7266 1073.5 43.4372 1081.92 48.8586C1090.34 54.1372 1096.83 60.4146 1101.39 67.6906C1102.82 69.9732 1103.25 72.1846 1102.68 74.3246C1102.25 76.4646 1101.04 78.1052 1099.04 79.2466C1096.9 80.2452 1094.69 80.3879 1092.41 79.6746C1090.27 78.9612 1088.63 77.6059 1087.48 75.6086C1084.2 70.6152 1079.71 66.2639 1074 62.5546C1068.44 58.7026 1060.88 56.7052 1051.32 56.5626C1040.05 56.5626 1030.99 58.9879 1024.14 63.8386C1017.29 68.5466 1013.87 75.4659 1013.87 84.5966C1013.87 91.8726 1016.79 98.2212 1022.64 103.643C1028.63 109.064 1039.19 112.845 1054.31 114.985C1072.15 117.553 1085.34 123.045 1093.9 131.463C1102.61 139.737 1106.96 150.58 1106.96 163.991C1106.96 174.263 1104.46 183.037 1099.47 190.313C1094.62 197.446 1087.98 202.867 1079.57 206.577C1071.15 210.286 1061.8 212.141 1051.53 212.141Z" fill="#1F2937" />
    <path d="M1166.26 210.001C1162.26 210.001 1159.63 208.217 1158.34 204.651L1124.96 104.499C1123.1 96.7946 1125.17 92.9426 1131.16 92.9426C1135.02 92.9426 1137.73 95.0112 1139.3 99.1486L1166.69 182.609L1191.94 99.3626C1192.51 97.5079 1193.44 96.0099 1194.72 94.8686C1196.15 93.5846 1197.93 92.9426 1200.07 92.9426C1204.21 92.9426 1206.92 95.0826 1208.2 99.3626L1232.81 182.181L1259.99 99.1486C1261.42 95.0112 1264.06 92.9426 1267.91 92.9426C1271.05 92.9426 1273.19 94.1552 1274.33 96.5806C1275.47 98.8632 1275.47 101.503 1274.33 104.499L1240.95 204.651C1239.8 208.217 1237.24 210.001 1233.24 210.001C1231.39 210.001 1229.67 209.501 1228.11 208.503C1226.68 207.504 1225.75 206.22 1225.32 204.651L1199.64 119.479L1173.96 204.651C1172.68 208.217 1170.11 210.001 1166.26 210.001Z" fill="#1F2937" />
    <path d="M1345.53 211.071C1334.54 211.071 1324.7 208.503 1316 203.367C1307.29 198.088 1300.37 190.955 1295.24 181.967C1290.24 172.979 1287.75 162.849 1287.75 151.579C1287.75 140.165 1290.32 129.965 1295.45 120.977C1300.73 111.989 1307.86 104.927 1316.85 99.7906C1325.84 94.5119 1335.97 91.8726 1347.24 91.8726C1358.51 91.8726 1368.57 94.5119 1377.41 99.7906C1386.4 104.927 1393.46 111.989 1398.6 120.977C1403.88 129.965 1406.59 140.165 1406.73 151.579V201.869C1406.73 204.294 1405.95 206.291 1404.38 207.861C1402.81 209.287 1400.81 210.001 1398.39 210.001C1395.96 210.001 1393.96 209.287 1392.39 207.861C1390.82 206.291 1390.04 204.294 1390.04 201.869V188.815C1385.19 195.663 1378.91 201.084 1371.21 205.079C1363.5 209.073 1354.94 211.071 1345.53 211.071ZM1347.24 196.091C1355.51 196.091 1362.86 194.165 1369.28 190.313C1375.84 186.461 1380.98 181.182 1384.69 174.477C1388.54 167.629 1390.47 159.996 1390.47 151.579C1390.47 143.019 1388.54 135.386 1384.69 128.681C1380.98 121.975 1375.84 116.697 1369.28 112.845C1362.86 108.85 1355.51 106.853 1347.24 106.853C1339.11 106.853 1331.76 108.85 1325.2 112.845C1318.64 116.697 1313.43 121.975 1309.58 128.681C1305.72 135.386 1303.8 143.019 1303.8 151.579C1303.8 159.996 1305.72 167.629 1309.58 174.477C1313.43 181.182 1318.64 186.461 1325.2 190.313C1331.76 194.165 1339.11 196.091 1347.24 196.091Z" fill="#1F2937" />
    <path d="M1447.13 260.077C1444.56 260.077 1442.49 259.292 1440.92 257.723C1439.49 256.296 1438.78 254.299 1438.78 251.731V150.723C1438.92 139.595 1441.56 129.608 1446.7 120.763C1451.98 111.775 1459.04 104.713 1467.88 99.5766C1476.87 94.4406 1486.93 91.8726 1498.06 91.8726C1509.47 91.8726 1519.67 94.5119 1528.66 99.7906C1537.65 104.927 1544.71 111.989 1549.85 120.977C1555.12 129.965 1557.76 140.165 1557.76 151.579C1557.76 162.849 1555.2 172.979 1550.06 181.967C1545.07 190.955 1538.22 198.088 1529.52 203.367C1520.81 208.503 1510.97 211.071 1499.98 211.071C1490.43 211.071 1481.72 209.073 1473.88 205.079C1466.17 200.941 1459.97 195.52 1455.26 188.815V251.731C1455.26 254.299 1454.47 256.296 1452.9 257.723C1451.48 259.292 1449.55 260.077 1447.13 260.077ZM1498.06 196.091C1506.33 196.091 1513.75 194.165 1520.31 190.313C1526.88 186.461 1532.01 181.182 1535.72 174.477C1539.57 167.629 1541.5 159.996 1541.5 151.579C1541.5 143.019 1539.57 135.386 1535.72 128.681C1532.01 121.975 1526.88 116.697 1520.31 112.845C1513.75 108.85 1506.33 106.853 1498.06 106.853C1489.93 106.853 1482.58 108.85 1476.02 112.845C1469.45 116.697 1464.32 121.975 1460.61 128.681C1456.9 135.386 1455.04 143.019 1455.04 151.579C1455.04 159.996 1456.9 167.629 1460.61 174.477C1464.32 181.182 1469.45 186.461 1476.02 190.313C1482.58 194.165 1489.93 196.091 1498.06 196.091Z" fill="#1F2937" />
</svg>