<svg xmlns="http://www.w3.org/2000/svg" width="393" height="100" viewBox="0 0 393 100" fill="none">
<path d="M129.161 72.0181C127.93 72.0181 126.932 71.0244 126.932 69.7986V36.9707C126.932 35.7449 127.93 34.7513 129.161 34.7513H132.931C134.162 34.7513 135.16 35.7449 135.16 36.9707V65.0933H150.236C151.467 65.0933 152.465 66.087 152.465 67.3127V69.7986C152.465 71.0244 151.467 72.0181 150.236 72.0181H129.161Z" fill="white"/>
<path d="M165.483 72.5995C163.537 72.5995 161.821 72.2295 160.334 71.4895C158.848 70.7494 157.663 69.7451 156.778 68.4764C155.928 67.2077 155.504 65.7805 155.504 64.1947C155.504 62.3269 155.999 60.8292 156.99 59.7015C157.981 58.5738 159.591 57.7809 161.821 57.3228C164.05 56.8294 167.005 56.5827 170.686 56.5827H172.597V55.6841C172.597 54.1335 172.243 53.0411 171.535 52.4068C170.827 51.7372 169.624 51.4024 167.925 51.4024C166.51 51.4024 165.006 51.6315 163.413 52.0896C162.615 52.3064 161.816 52.5836 161.018 52.9209C159.778 53.4446 158.292 52.9426 157.786 51.7001L157.255 50.3992C156.855 49.4158 157.205 48.2766 158.164 47.8124C158.701 47.5521 159.283 47.3039 159.91 47.0678C161.254 46.5745 162.652 46.2044 164.103 45.9577C165.554 45.6758 166.934 45.5349 168.244 45.5349C172.278 45.5349 175.286 46.4511 177.268 48.2836C179.25 50.0809 180.241 52.8825 180.241 56.6885V69.7986C180.241 71.0244 179.243 72.0181 178.012 72.0181H174.985C173.754 72.0181 172.756 71.0244 172.756 69.7986V68.1064C172.225 69.4807 171.323 70.5732 170.049 71.3837C168.81 72.1943 167.288 72.5995 165.483 72.5995ZM167.288 67.2606C168.775 67.2606 170.031 66.7496 171.057 65.7276C172.083 64.7057 172.597 63.3842 172.597 61.7631V60.7059H170.739C168.014 60.7059 166.085 60.9526 164.953 61.4459C163.82 61.9041 163.254 62.7146 163.254 63.8775C163.254 64.8643 163.59 65.6748 164.263 66.3091C164.97 66.9434 165.979 67.2606 167.288 67.2606Z" fill="white"/>
<path d="M191.438 81.533C189.817 81.533 188.738 79.8653 189.409 78.3959L192.968 70.5908L183.603 49.1688C182.962 47.7029 184.04 46.0635 185.646 46.0635H189.168C190.084 46.0635 190.906 46.6208 191.242 47.4689L197.214 62.556L203.391 47.4461C203.733 46.6101 204.549 46.0635 205.455 46.0635H208.495C210.106 46.0635 211.185 47.7139 210.533 49.1812L196.74 80.2119C196.383 81.015 195.584 81.533 194.702 81.533H191.438Z" fill="white"/>
<path d="M227.179 72.5995C224.1 72.5995 221.446 72.0533 219.217 70.9608C217.023 69.8332 215.324 68.265 214.121 66.2562C212.953 64.2123 212.369 61.816 212.369 59.0672C212.369 56.3889 212.935 54.0454 214.068 52.0367C215.235 49.9928 216.81 48.407 218.792 47.2793C220.809 46.1163 223.127 45.5349 225.746 45.5349C229.532 45.5349 232.541 46.733 234.77 49.1294C237 51.4905 238.114 54.6974 238.114 58.75C238.114 59.8594 237.211 60.7587 236.097 60.7587H220.013C220.296 62.8027 221.039 64.3004 222.242 65.2519C223.481 66.1681 225.18 66.6263 227.338 66.6263C228.754 66.6263 230.187 66.4148 231.638 65.9919C232.119 65.8518 232.584 65.6864 233.034 65.4959C234.391 64.9214 236.103 65.3869 236.646 66.7517L237.066 67.8062C237.434 68.7333 237.144 69.8068 236.274 70.3004C235.269 70.8707 234.131 71.3551 232.859 71.7538C230.983 72.3176 229.09 72.5995 227.179 72.5995ZM226.064 50.8209C224.366 50.8209 222.986 51.3319 221.924 52.3539C220.898 53.3759 220.261 54.8031 220.013 56.6356H231.479C231.267 52.7592 229.462 50.8209 226.064 50.8209Z" fill="white"/>
<path d="M245.005 72.0181C243.774 72.0181 242.777 71.0244 242.777 69.7986V48.2829C242.777 47.0571 243.774 46.0635 245.005 46.0635H248.404C249.635 46.0635 250.633 47.0571 250.633 48.2829V50.5566C251.871 47.5259 254.526 45.852 258.595 45.5349L258.713 45.5268C259.939 45.4436 261.001 46.3639 261.088 47.5842L261.257 49.9513C261.341 51.1441 260.462 52.1894 259.268 52.3153L256.897 52.5653C252.933 52.953 250.951 54.9617 250.951 58.5914V69.7986C250.951 71.0244 249.953 72.0181 248.723 72.0181H245.005Z" fill="white"/>
<path d="M274.373 72.5995C272.073 72.5995 269.932 72.3352 267.95 71.8066C266.649 71.4595 265.493 71.0289 264.481 70.5148C263.582 70.0575 263.256 68.9825 263.604 68.0386L263.98 67.0177C264.467 65.6973 266.054 65.1584 267.358 65.6998C268.001 65.9668 268.676 66.2051 269.383 66.4148C271.082 66.873 272.763 67.102 274.426 67.102C275.913 67.102 277.01 66.873 277.717 66.4148C278.425 65.9215 278.779 65.2871 278.779 64.5118C278.779 63.2784 277.877 62.5031 276.072 62.186L270.498 61.1816C268.269 60.794 266.57 60.0011 265.402 58.8029C264.234 57.6047 263.65 56.0365 263.65 54.0983C263.65 52.3363 264.146 50.8209 265.137 49.5523C266.127 48.2836 267.49 47.2969 269.224 46.5921C270.958 45.8873 272.958 45.5349 275.222 45.5349C277.098 45.5349 278.921 45.7815 280.69 46.2749C281.874 46.5814 282.947 47.0142 283.909 47.5731C284.75 48.0615 285.014 49.1089 284.659 50.0114L284.295 50.9362C283.761 52.2929 282.063 52.7854 280.718 52.211C280.304 52.0341 279.87 51.8702 279.416 51.7196C277.965 51.2262 276.603 50.9795 275.329 50.9795C273.736 50.9795 272.586 51.2438 271.878 51.7724C271.17 52.2658 270.816 52.9001 270.816 53.6754C270.816 54.9088 271.648 55.6841 273.311 56.0013L278.885 57.0056C281.185 57.3933 282.937 58.1686 284.14 59.3315C285.344 60.4592 285.945 62.0098 285.945 63.9832C285.945 66.6968 284.884 68.8112 282.76 70.3265C280.637 71.8419 277.841 72.5995 274.373 72.5995Z" fill="white"/>
<path d="M298.879 72.0181C297.973 72.0181 297.157 71.4716 296.815 70.6359L288.014 49.1201C287.417 47.6604 288.496 46.0635 290.078 46.0635H293.336C294.268 46.0635 295.101 46.6405 295.425 47.5101L301.096 62.7146L306.768 47.5101C307.092 46.6405 307.925 46.0635 308.857 46.0635H311.059C311.994 46.0635 312.829 46.6446 313.151 47.5186L318.826 62.926L324.501 47.5186C324.823 46.6446 325.659 46.0635 326.593 46.0635H329.432C331.012 46.0635 332.09 47.6543 331.499 49.1129L322.786 70.6287C322.446 71.4683 321.628 72.0181 320.719 72.0181H316.956C316.036 72.0181 315.21 71.4546 314.878 70.5998L309.696 57.2699L304.666 70.5804C304.339 71.4454 303.508 72.0181 302.58 72.0181H298.879Z" fill="white"/>
<path d="M344.018 72.5995C342.071 72.5995 340.355 72.2295 338.868 71.4895C337.382 70.7494 336.197 69.7451 335.312 68.4764C334.463 67.2077 334.038 65.7805 334.038 64.1947C334.038 62.3269 334.533 60.8292 335.524 59.7015C336.515 58.5738 338.125 57.7809 340.355 57.3228C342.584 56.8294 345.539 56.5827 349.22 56.5827H351.131V55.6841C351.131 54.1335 350.777 53.0411 350.069 52.4068C349.361 51.7372 348.158 51.4024 346.459 51.4024C345.044 51.4024 343.54 51.6315 341.947 52.0896C341.149 52.3064 340.35 52.5836 339.552 52.9209C338.312 53.4446 336.826 52.9426 336.32 51.7001L335.79 50.3992C335.389 49.4158 335.739 48.2766 336.698 47.8124C337.235 47.5521 337.817 47.3039 338.444 47.0678C339.789 46.5745 341.186 46.2044 342.637 45.9577C344.088 45.6758 345.469 45.5349 346.778 45.5349C350.812 45.5349 353.82 46.4511 355.802 48.2836C357.784 50.0809 358.775 52.8825 358.775 56.6885V69.7986C358.775 71.0244 357.777 72.0181 356.546 72.0181H353.519C352.288 72.0181 351.29 71.0244 351.29 69.7986V68.1064C350.759 69.4807 349.857 70.5732 348.583 71.3837C347.344 72.1943 345.822 72.5995 344.018 72.5995ZM345.822 67.2606C347.309 67.2606 348.565 66.7496 349.591 65.7276C350.618 64.7057 351.131 63.3842 351.131 61.7631V60.7059H349.273C346.548 60.7059 344.619 60.9526 343.487 61.4459C342.354 61.9041 341.788 62.7146 341.788 63.8775C341.788 64.8643 342.124 65.6748 342.797 66.3091C343.504 66.9434 344.513 67.2606 345.822 67.2606Z" fill="white"/>
<path d="M366.983 81.533C365.752 81.533 364.754 80.5393 364.754 79.3136V48.2829C364.754 47.0571 365.752 46.0635 366.983 46.0635H370.382C371.613 46.0635 372.61 47.0571 372.61 48.2829V49.9223C373.318 48.5832 374.398 47.5259 375.848 46.7507C377.335 45.9401 378.998 45.5349 380.838 45.5349C383.103 45.5349 385.085 46.0811 386.784 47.1735C388.518 48.266 389.862 49.8166 390.818 51.8253C391.773 53.834 392.251 56.2303 392.251 59.0143C392.251 61.7983 391.773 64.2123 390.818 66.2562C389.862 68.265 388.518 69.8332 386.784 70.9608C385.085 72.0533 383.103 72.5995 380.838 72.5995C379.104 72.5995 377.512 72.2295 376.061 71.4895C374.645 70.7494 373.548 69.7627 372.77 68.5293V79.3136C372.77 80.5393 371.772 81.533 370.541 81.533H366.983ZM378.45 66.6263C380.148 66.6263 381.528 66.0096 382.59 64.7761C383.652 63.5427 384.183 61.6221 384.183 59.0143C384.183 56.4418 383.652 54.5564 382.59 53.3582C381.528 52.1248 380.148 51.5081 378.45 51.5081C376.715 51.5081 375.318 52.1248 374.256 53.3582C373.194 54.5564 372.663 56.4418 372.663 59.0143C372.663 61.6221 373.194 63.5427 374.256 64.7761C375.318 66.0096 376.715 66.6263 378.45 66.6263Z" fill="white"/>
<path opacity="0.3" d="M26.7311 33.5397C26.7311 29.7792 29.7796 26.7308 33.54 26.7308H92.267C96.0274 26.7308 99.0759 29.7792 99.0759 33.5397V92.2666C99.0759 96.0271 96.0274 99.0755 92.267 99.0755H33.54C29.7796 99.0755 26.7311 96.0271 26.7311 92.2666V33.5397Z" fill="#FF0093"/>
<path opacity="0.5" d="M85.7101 78.902C85.7101 82.6624 82.6617 85.7109 78.9012 85.7109H20.1743C16.4138 85.7109 13.3654 82.6624 13.3654 78.902V20.175C13.3654 16.4146 16.4138 13.3661 20.1743 13.3661H78.9012C82.6617 13.3661 85.7101 16.4146 85.7101 20.175V78.902Z" fill="#FF0093"/>
<path opacity="0.9" d="M72.3448 65.5359C72.3448 69.2963 69.2963 72.3448 65.5358 72.3448H6.80892C3.04845 72.3448 -3.31731e-06 69.2963 -3.31731e-06 65.5359V6.80895C-3.31731e-06 3.04848 3.04846 2.72003e-05 6.80892 2.72003e-05H65.5358C69.2963 2.72003e-05 72.3448 3.04849 72.3448 6.80895V65.5359Z" fill="#FF0093"/>
</svg>