<svg xmlns="http://www.w3.org/2000/svg" width="154" height="156" viewBox="0 0 154 156" fill="none"><metadata><rdf:RDF xmlns:rdf="http://www.w3.org/1999/02/22-rdf-syntax-ns#" xmlns:dc="http://purl.org/dc/elements/1.1/"><rdf:Description><dc:creator>RealFaviconGenerator</dc:creator><dc:source>https://realfavicongenerator.net</dc:source></rdf:Description></rdf:RDF></metadata><path opacity="0.5" d="M43.9353 54.8323C43.9353 49.0643 48.5637 44.3882 54.273 44.3882H143.436C149.145 44.3882 153.774 49.0643 153.774 54.8323V144.915C153.774 150.683 149.145 155.359 143.436 155.359H54.273C48.5637 155.359 43.9353 150.683 43.9353 144.915V54.8323Z" fill="#FF3272"></path><path opacity="0.6" d="M21.9677 32.6385C21.9677 26.8701 26.596 22.1941 32.3054 22.1941H121.468C127.178 22.1941 131.806 26.8701 131.806 32.6385V122.72C131.806 128.489 127.178 133.165 121.468 133.165H32.3054C26.596 133.165 21.9677 128.489 21.9677 122.72V32.6385Z" fill="#FF3272"></path><path opacity="0.9" d="M0 10.4443C0 4.67607 4.62836 0 10.3377 0H99.5005C105.21 0 109.838 4.67607 109.838 10.4443V100.526C109.838 106.295 105.21 110.971 99.5005 110.971H10.3377C4.62836 110.971 0 106.295 0 100.526V10.4443Z" fill="#FF3272"></path></svg>