<?xml version="1.0" standalone="no"?>
<!DOCTYPE svg PUBLIC "-//W3C//DTD SVG 20010904//EN"
 "http://www.w3.org/TR/2001/REC-SVG-20010904/DTD/svg10.dtd">
<svg version="1.0" xmlns="http://www.w3.org/2000/svg"
 width="300.000000pt" height="300.000000pt" viewBox="0 0 300.000000 300.000000"
 preserveAspectRatio="xMidYMid meet">
<metadata>
Created by potrace 1.14, written by Peter Selinger 2001-2017
</metadata>
<g transform="translate(0.000000,300.000000) scale(0.100000,-0.100000)"
fill="#000000" stroke="none">
<path d="M134 2986 c-50 -22 -100 -72 -118 -119 -15 -40 -16 -126 -14 -978 l3
-934 29 -46 c52 -81 96 -97 272 -100 84 -1 127 -5 133 -13 8 -9 7 -13 -4 -13
-8 0 -11 5 -8 11 3 6 2 8 -2 3 -13 -12 -16 -47 -4 -47 5 0 8 4 4 9 -3 5 -2 12
3 15 4 2 7 -12 6 -32 -2 -51 -3 -54 -12 -48 -5 3 -9 -1 -9 -9 0 -8 4 -12 8
-10 3 3 13 -2 20 -11 11 -14 10 -15 -7 -12 -16 2 -19 -3 -19 -32 0 -29 3 -35
20 -32 17 2 16 0 -5 -12 -14 -9 -19 -15 -12 -16 6 0 11 -3 10 -7 0 -5 4 -19
10 -33 8 -19 11 -21 11 -7 1 10 6 15 11 12 7 -4 6 -13 -1 -27 -8 -15 -8 -19 0
-14 6 4 11 2 11 -4 0 -7 7 -10 14 -7 10 4 13 1 10 -7 -10 -25 13 -26 26 -1 16
30 25 32 27 5 1 -11 -2 -18 -7 -15 -5 3 -12 0 -16 -6 -7 -12 15 -31 28 -23 4
3 8 -1 8 -8 0 -8 3 -9 8 -3 6 9 26 12 35 6 11 -9 52 -9 63 0 11 9 14 8 14 -1
0 -6 6 -10 12 -7 7 2 13 9 13 15 0 16 15 27 16 11 1 -8 1 -16 1 -19 0 -3 9 -7
21 -7 20 -2 21 -1 5 11 -22 16 -23 23 -3 23 8 0 17 -8 20 -18 3 -10 14 -18 23
-18 9 0 30 -2 47 -5 16 -3 35 0 42 6 10 8 13 6 14 -8 1 -11 1 -23 0 -27 -1 -5
3 -6 8 -2 6 3 8 12 4 20 -6 18 18 20 36 3 11 -10 13 -10 7 0 -5 8 1 12 18 12
14 0 26 -6 26 -12 0 -9 4 -8 10 2 9 13 11 13 20 0 7 -12 10 -12 10 -1 0 7 6
11 14 8 8 -3 17 -1 20 6 3 9 5 9 5 0 1 -6 10 -9 23 -5 16 4 19 2 13 -9 -6 -11
-5 -12 6 -1 15 14 43 16 34 2 -3 -6 1 -7 9 -4 9 3 16 10 16 15 0 4 7 6 15 3 8
-4 12 -11 8 -17 -3 -6 -1 -7 6 -3 9 6 9 12 -1 24 -10 14 -10 15 2 5 8 -7 23
-13 34 -13 11 0 29 -8 40 -18 l21 -17 -20 24 c-11 14 -14 21 -6 16 8 -4 36 -8
63 -8 26 1 51 -4 55 -9 3 -6 14 -1 25 13 11 13 17 19 14 12 -4 -6 -2 -14 4
-18 5 -3 10 0 10 7 0 10 2 10 8 1 4 -7 21 -10 41 -8 26 3 32 1 27 -11 -3 -8
-2 -12 4 -9 6 3 10 13 10 22 0 11 4 13 13 6 14 -11 100 -8 119 3 8 5 7 0 -2
-11 -14 -17 -14 -18 8 -6 17 9 22 9 23 -1 1 -7 5 -2 9 12 6 19 8 20 9 6 1 -16
3 -17 18 -5 9 8 14 9 11 3 -5 -7 15 -9 57 -8 38 2 67 -2 71 -8 4 -7 14 -2 26
13 10 13 18 20 17 14 -3 -22 2 -29 11 -15 5 8 10 10 10 4 0 -7 15 -10 36 -8
28 2 34 -1 30 -12 -3 -9 -1 -12 4 -9 6 3 10 13 10 20 0 9 6 12 15 9 8 -4 12
-11 8 -18 -4 -7 -1 -6 9 2 18 14 119 12 130 -3 4 -5 8 1 9 15 0 23 1 23 9 5 6
-13 9 -15 9 -5 1 9 4 11 9 5 10 -14 142 -13 134 0 -4 6 1 2 10 -8 15 -16 18
-16 18 -4 0 9 5 19 12 23 6 4 8 3 4 -4 -3 -6 -2 -13 4 -17 5 -3 10 0 10 7 0 9
3 9 10 -2 5 -8 10 -10 10 -4 0 6 15 10 34 9 19 -1 34 1 32 4 -1 3 9 17 22 31
14 14 22 19 18 12 -4 -6 -4 -12 -1 -12 3 0 13 16 21 35 8 19 19 35 25 35 5 0
7 4 4 10 -3 6 -2 10 3 10 5 0 9 6 10 13 7 53 7 96 0 115 -5 15 -4 21 2 17 6
-3 10 -2 10 4 0 5 -4 13 -10 16 -13 8 -13 25 1 25 5 0 7 -4 4 -10 -3 -5 -1
-10 4 -10 16 0 13 16 -4 30 -8 7 -15 18 -15 24 0 6 5 4 10 -4 8 -13 10 -13 10
2 0 9 -4 20 -10 23 -13 8 -13 25 1 25 5 0 7 -4 4 -10 -3 -5 -1 -10 4 -10 17 0
13 11 -11 39 -13 14 -16 20 -7 13 14 -10 18 -10 23 3 3 10 2 14 -5 9 -6 -3
-10 1 -9 12 1 11 2 28 1 39 -1 17 -3 18 -11 5 -8 -12 -9 -10 -7 7 2 12 7 26
12 30 4 5 5 2 1 -5 -4 -6 -2 -12 3 -12 15 0 14 11 -4 30 -14 15 -14 19 -1 29
8 7 12 20 9 28 -5 12 -3 14 7 8 10 -6 11 -4 4 6 -12 19 -12 102 1 111 6 5 6 8
-2 8 -6 0 -20 -15 -32 -33 -11 -17 -21 -28 -21 -23 0 5 11 24 25 42 25 33 32
50 17 40 -4 -2 -8 6 -8 19 0 14 4 21 11 18 5 -4 7 -3 3 2 -4 4 -3 17 3 28 8
14 8 18 -1 12 -7 -5 -11 -1 -10 11 1 11 2 28 1 39 -1 17 -3 18 -12 5 -9 -13
-10 -13 -6 0 2 8 13 14 23 13 18 -1 18 -1 0 13 -14 10 -16 14 -5 14 12 0 12 2
-1 10 -12 8 -12 10 5 11 19 0 19 1 1 8 -19 7 -19 8 0 15 19 7 19 8 0 22 -14
10 -16 14 -5 14 12 0 12 2 -1 10 -13 8 -12 10 3 10 10 0 15 5 12 10 -4 6 -11
7 -17 4 -7 -5 -8 -2 -3 6 9 15 14 190 5 185 -3 -2 -7 5 -7 16 -1 10 3 19 8 19
6 0 7 -4 4 -10 -3 -5 -1 -10 4 -10 16 0 13 11 -6 33 -10 11 -12 17 -5 13 7 -4
12 -1 12 9 0 9 -4 14 -8 11 -10 -6 -10 33 -1 49 3 6 5 24 3 40 -1 17 -3 37 -3
45 -1 13 -2 13 -12 0 -9 -13 -10 -13 -6 0 2 8 13 14 23 13 18 -1 18 -1 0 13
-14 10 -16 14 -5 14 12 0 12 2 -1 10 -13 8 -12 10 3 10 10 0 15 5 12 10 -4 6
-12 7 -18 3 -9 -5 -9 -3 -2 8 6 8 10 28 9 44 -1 17 3 38 8 49 7 13 7 16 -2 11
-7 -5 -11 -1 -10 11 1 11 2 28 1 39 -1 17 -3 18 -11 5 -8 -12 -9 -10 -7 7 2
12 7 26 12 30 4 5 5 2 1 -4 -4 -7 -2 -13 3 -13 16 0 13 11 -6 32 -15 17 -15
18 -1 13 13 -5 15 -2 11 14 l-5 21 -19 -21 c-13 -15 -19 -17 -19 -8 0 12 -2
12 -9 0 -6 -9 -8 -4 -7 17 1 29 26 71 26 45 0 -7 -4 -14 -10 -18 -5 -3 -7 -12
-4 -20 4 -8 11 -12 16 -9 6 4 5 10 -3 15 -14 9 -12 10 14 13 6 0 13 16 14 35
1 21 -2 29 -7 22 -4 -7 -5 -22 -2 -33 4 -19 3 -18 -20 3 -13 13 -22 28 -20 33
3 4 8 2 13 -5 4 -7 11 -10 16 -6 4 5 1 12 -7 17 -15 9 -13 11 13 14 6 0 13 16
14 35 1 19 -2 29 -6 23 -4 -7 -11 -5 -19 9 -11 17 -10 20 4 17 13 -2 18 4 19
24 1 16 -2 25 -8 21 -6 -4 -8 0 -4 10 3 8 -1 21 -9 28 -8 7 -13 18 -10 25 3 9
0 11 -11 7 -11 -4 -14 -2 -9 5 5 8 2 10 -8 6 -16 -6 -23 10 -8 19 4 2 1 2 -7
0 -8 -2 -11 2 -8 11 4 10 0 12 -15 8 -14 -3 -19 -1 -14 6 8 14 -11 25 -26 15
-24 -14 -40 -12 -34 5 5 13 3 13 -9 -2 -8 -10 -12 -23 -8 -29 3 -6 1 -7 -6 -3
-6 4 -9 15 -6 25 4 14 -2 17 -30 18 -19 1 -32 -3 -29 -8 3 -5 0 -9 -5 -9 -6 0
-11 4 -11 9 0 11 -49 11 -55 0 -3 -4 -1 -10 5 -14 5 -3 10 -11 10 -17 0 -7 -4
-7 -13 1 -8 6 -17 7 -21 3 -5 -4 -6 2 -4 13 1 11 -3 20 -9 21 -7 1 -17 2 -23
3 -6 1 -10 49 -10 121 0 132 -11 173 -58 224 -15 16 -45 37 -67 47 -38 18 -86
19 -970 18 -755 0 -936 -2 -961 -13z m2092 -425 c-1 -9 4 -16 11 -16 6 0 15
-3 18 -7 4 -4 15 -3 25 2 14 7 17 5 16 -12 -1 -26 -24 -36 -32 -14 -5 14 -9
13 -25 -5 -11 -12 -19 -19 -19 -16 0 18 -2 24 -17 46 -8 13 -10 20 -4 17 6 -4
11 -3 11 3 0 5 -6 11 -12 14 -7 3 -4 5 8 4 12 -1 21 -7 20 -16z m82 5 c6 -4
18 -4 24 0 18 11 48 12 42 2 -7 -10 14 -38 28 -38 6 0 8 6 5 14 -4 10 0 14 13
11 11 -2 22 0 25 6 7 11 26 12 24 2 -3 -18 1 -33 9 -31 12 4 92 -74 86 -83 -3
-5 -2 -15 3 -21 14 -23 13 -40 -2 -28 -9 8 -14 7 -18 -4 -4 -9 -2 -18 4 -21 5
-4 7 -10 4 -15 -3 -4 2 -10 10 -14 8 -3 15 -12 15 -20 0 -10 -9 -7 -27 12 -15
15 -26 32 -24 37 2 6 4 16 4 23 0 6 4 12 8 12 8 0 6 16 -6 43 -8 19 -27 24
-22 6 1 -6 -5 -14 -13 -16 -12 -4 -12 -3 -1 5 9 7 10 12 2 16 -6 4 -11 2 -11
-3 0 -6 -5 -11 -11 -11 -8 0 -8 5 1 15 10 12 10 15 -1 15 -8 0 -5 6 7 14 19
14 19 14 -1 13 -11 -1 -20 3 -20 10 0 6 -4 15 -8 19 -10 10 -37 14 -36 6 3
-19 -3 -29 -16 -29 -8 0 -15 5 -15 11 0 5 -6 1 -14 -10 -12 -16 -17 -17 -28
-6 -11 11 -10 15 3 25 12 9 13 15 5 22 -8 7 -16 5 -28 -7 -10 -10 -13 -18 -8
-18 15 0 12 -17 -3 -23 -9 -3 -13 2 -12 16 3 31 -6 52 -15 37 -5 -8 -10 -7
-18 3 -9 11 -8 13 6 12 9 0 23 -4 30 -9z m147 -46 c-3 -5 -1 -11 4 -14 5 -4 8
-17 6 -31 -3 -30 28 -53 49 -36 17 15 27 2 16 -19 -5 -10 -6 -20 -3 -24 3 -3
1 -6 -4 -6 -12 0 -11 -13 2 -42 4 -10 11 -16 15 -13 19 12 21 -18 2 -38 -20
-23 -19 -52 1 -40 7 3 4 -3 -6 -14 -10 -11 -17 -26 -15 -34 4 -19 -28 -23 -36
-4 -5 13 -2 14 15 4 19 -10 20 -9 9 11 -6 12 -9 24 -6 28 3 3 6 0 6 -7 0 -7 5
-9 11 -5 8 4 7 9 -2 15 -17 10 -32 1 -25 -17 3 -8 0 -11 -8 -8 -7 3 -13 11
-13 19 0 16 24 28 38 19 5 -3 9 -3 9 0 0 3 -12 12 -26 19 -22 12 -24 15 -10
20 10 4 15 3 11 -3 -3 -6 -1 -10 5 -10 7 0 9 9 5 23 -5 20 -5 20 10 -3 13 -21
15 -22 13 -5 -4 27 -16 34 -46 29 -22 -4 -23 -3 -13 10 10 12 18 13 35 5 19
-10 19 -9 -2 8 -16 13 -21 24 -16 37 5 14 9 15 15 4 6 -9 9 -9 9 -1 0 6 -4 14
-8 17 -9 5 -34 -8 -33 -18 3 -19 0 -28 -6 -22 -11 11 -10 30 0 37 5 4 4 10 -2
13 -6 4 -11 2 -11 -4 0 -6 -5 -8 -11 -4 -8 4 -7 9 2 15 12 7 11 9 0 9 -11 0
-9 4 5 14 19 14 19 14 -1 13 -12 -1 -20 4 -19 13 1 9 -8 15 -23 15 -20 0 -21
-2 -8 -12 11 -7 12 -13 6 -18 -6 -3 -14 1 -17 10 -6 13 -8 14 -15 3 -7 -11
-11 -10 -19 2 -5 8 -10 10 -10 5 0 -14 -40 -14 -40 0 0 5 -5 3 -11 -5 -8 -11
-12 -12 -16 -2 -3 8 -11 5 -25 -10 -14 -17 -18 -18 -14 -6 3 12 1 15 -9 12 -7
-3 -12 -14 -10 -25 3 -13 0 -17 -8 -13 -7 4 -8 3 -4 -2 5 -5 9 -7 10 -5 4 9
47 -20 47 -32 0 -7 -3 -8 -8 -2 -10 14 -42 18 -42 6 0 -5 5 -13 12 -17 7 -4 8
-3 4 4 -5 8 -2 10 8 6 9 -3 13 -10 10 -16 -3 -5 -13 -7 -21 -4 -9 4 -11 2 -7
-6 4 -6 3 -9 -2 -5 -5 3 -10 -8 -11 -25 0 -18 2 -25 7 -18 5 9 9 9 14 1 4 -6
3 -11 -2 -11 -12 0 -12 -32 1 -48 7 -9 7 -16 -1 -24 -9 -9 -12 -9 -12 1 0 7
-3 10 -7 8 -5 -3 -8 59 -8 138 0 79 3 141 7 138 5 -2 6 -8 3 -13 -3 -4 1 -13
9 -19 10 -9 16 -8 26 4 9 10 16 12 25 5 11 -9 52 -6 63 5 3 2 11 0 19 -6 9 -8
17 -8 26 -2 6 6 20 9 30 8 9 -2 22 5 28 16 5 11 14 17 20 14 5 -4 7 -10 4 -15z
m-69 -63 c4 -4 13 -2 21 4 14 12 15 11 17 -19 0 -11 7 -26 15 -35 11 -14 11
-17 0 -17 -8 0 -5 -6 6 -14 11 -8 24 -12 30 -8 5 3 3 -2 -5 -12 -26 -33 -20
-62 8 -34 7 7 12 8 12 2 0 -15 -36 -33 -49 -24 -10 6 -10 9 -1 15 8 5 6 11 -7
21 -17 13 -17 14 2 8 18 -5 18 -5 2 6 -9 6 -15 15 -12 21 3 5 0 6 -8 3 -8 -3
-18 -1 -21 4 -3 6 1 13 10 16 10 4 13 2 8 -6 -4 -7 -3 -8 4 -4 19 11 14 25 -8
23 -11 -1 -20 -6 -20 -11 0 -5 -3 -6 -7 -2 -4 4 3 16 17 28 14 11 19 16 11 12
-10 -5 -12 -3 -7 7 4 8 1 5 -8 -5 -14 -17 -16 -17 -22 -3 -3 10 -11 17 -16 17
-6 0 -4 -7 3 -17 12 -14 12 -16 -1 -11 -8 3 -15 12 -14 20 1 9 -8 14 -27 14
-15 0 -25 -4 -22 -9 3 -6 -2 -16 -12 -24 -11 -7 -13 -13 -6 -13 7 0 9 -4 6
-10 -3 -5 -1 -10 4 -10 6 0 -2 -19 -19 -41 -22 -32 -27 -45 -19 -55 6 -7 7
-19 3 -25 -5 -8 -3 -10 7 -4 11 6 12 5 1 -6 -10 -11 -15 -11 -28 3 -12 12 -14
20 -5 36 8 15 7 23 -5 32 -13 11 -10 17 18 41 l33 29 -30 26 c-16 14 -25 24
-19 20 7 -3 16 0 22 7 12 13 125 17 138 4z m-48 -28 c7 -11 19 -18 27 -15 9 3
12 0 8 -10 -4 -11 -9 -12 -19 -3 -10 8 -14 8 -15 0 -1 -6 -2 -16 -3 -21 0 -6
-8 -15 -16 -20 -8 -5 -16 -14 -16 -20 -1 -5 -2 -15 -3 -21 -1 -8 -6 -8 -16 1
-8 7 -15 9 -15 5 0 -4 8 -14 18 -21 11 -9 13 -13 4 -14 -7 0 -10 -4 -7 -10 11
-17 -7 -11 -20 7 -15 21 -1 58 17 47 7 -5 9 -2 5 9 -3 8 1 21 8 27 10 8 12 18
6 28 -5 10 -5 23 2 34 15 23 19 23 35 -3z m62 -62 c13 -9 21 -17 16 -17 -5 0
-3 -7 4 -15 6 -8 9 -19 6 -24 -4 -5 1 -14 11 -19 14 -9 15 -13 4 -26 -7 -9
-18 -16 -24 -16 -7 0 -7 4 1 12 7 7 12 17 12 23 0 5 -5 3 -10 -5 -7 -11 -10
-11 -10 -2 0 7 -5 10 -11 6 -8 -4 -7 -9 2 -16 11 -8 11 -9 -1 -5 -21 5 -19 32
2 31 10 -1 14 4 11 12 -3 8 -9 11 -14 8 -5 -3 -9 0 -9 6 0 7 7 10 18 6 15 -5
14 -4 -2 9 -10 8 -23 12 -27 9 -5 -3 -9 0 -9 6 0 7 7 9 16 6 8 -3 12 -2 9 3
-3 6 -14 9 -25 8 -10 -1 -16 -5 -13 -11 4 -5 1 -6 -7 -1 -9 6 -11 4 -5 -5 6
-9 4 -11 -5 -5 -9 5 -11 4 -6 -3 5 -8 1 -10 -9 -6 -14 6 -13 8 5 21 11 8 18
19 15 24 -10 14 28 5 55 -14z m-15 -47 c0 -8 -5 -22 -10 -29 -6 -10 0 -21 17
-35 14 -12 23 -27 21 -33 -5 -14 -24 -18 -22 -5 5 27 -2 35 -15 16 -12 -16
-17 -17 -28 -6 -11 11 -10 16 5 27 14 10 15 14 5 19 -11 5 -11 7 0 12 10 5 9
9 -4 18 -9 7 -14 18 -10 24 10 16 43 10 41 -8z m-50 -7 c11 -26 12 -46 1 -61
-6 -9 -4 -18 7 -29 13 -14 19 -14 32 -3 14 11 16 11 13 -1 -5 -21 23 -17 36 6
25 45 43 63 55 56 9 -6 6 -10 -11 -15 -13 -3 -19 -9 -13 -13 6 -5 11 -12 12
-18 1 -5 5 -18 8 -27 4 -11 3 -18 -5 -18 -6 0 -8 -6 -4 -12 4 -7 -1 -6 -10 3
-19 17 -66 14 -66 -5 0 -6 -5 -3 -11 7 -6 9 -14 15 -20 12 -5 -4 -9 -1 -9 5 0
6 -4 9 -10 5 -5 -3 -6 -13 -3 -23 6 -16 6 -16 -11 1 -12 12 -22 14 -34 8 -9
-5 -25 -6 -36 -2 -12 4 -31 6 -43 5 -13 0 -23 3 -23 8 0 6 8 7 18 4 14 -5 13
-3 -3 10 -16 13 -16 15 -3 11 10 -3 20 -2 24 4 3 6 11 8 17 6 5 -1 21 7 34 19
21 20 29 36 32 67 2 14 19 7 26 -10z m-127 -158 c-3 -3 -9 2 -12 12 -6 14 -5
15 5 6 7 -7 10 -15 7 -18z m127 -4 c-6 -5 -25 10 -25 20 0 5 6 4 14 -3 8 -7
12 -15 11 -17z m35 19 c0 -5 -2 -10 -4 -10 -3 0 -8 5 -11 10 -3 6 -1 10 4 10
6 0 11 -4 11 -10z m60 -5 c0 -8 -4 -15 -10 -15 -5 0 -7 7 -4 15 4 8 8 15 10
15 2 0 4 -7 4 -15z m-140 -9 c-4 -4 -16 -4 -26 2 -16 9 -14 10 8 9 15 -1 23
-6 18 -11z m175 -4 c-3 -3 -11 0 -18 7 -9 10 -8 11 6 5 10 -3 15 -9 12 -12z
m70 0 c-3 -3 -11 0 -18 7 -9 10 -8 11 6 5 10 -3 15 -9 12 -12z m-143 1 c-6 -2
-9 -10 -6 -15 4 -7 2 -8 -5 -4 -13 9 -5 26 12 25 9 0 8 -2 -1 -6z m-150 -25
c-7 -7 -12 -8 -12 -2 0 6 3 14 7 17 3 4 9 5 12 2 2 -3 -1 -11 -7 -17z m63 12
c-3 -5 -1 -10 4 -10 6 0 11 -5 11 -11 0 -8 -5 -8 -15 1 -13 11 -12 30 1 30 3
0 2 -4 -1 -10z m215 -12 c10 -21 10 -21 -3 -6 -8 10 -18 14 -22 10 -5 -4 -5
-1 -1 6 10 17 14 15 26 -10z m-250 -3 c0 -8 -4 -15 -10 -15 -5 0 -7 7 -4 15 4
8 8 15 10 15 2 0 4 -7 4 -15z m175 5 c3 -6 -1 -7 -9 -4 -18 7 -21 14 -7 14 6
0 13 -4 16 -10z m-75 -4 c0 -3 -4 -8 -10 -11 -5 -3 -10 -1 -10 4 0 6 5 11 10
11 6 0 10 -2 10 -4z m36 -5 c-4 -5 -1 -11 6 -13 7 -3 2 -7 -10 -10 -12 -4 -25
-1 -29 4 -3 6 -1 8 4 5 6 -4 13 0 17 8 3 8 8 15 11 15 4 0 4 -4 1 -9z m144
-11 c-6 -11 -13 -20 -16 -20 -2 0 0 9 6 20 6 11 13 20 16 20 2 0 0 -9 -6 -20z
m-206 -6 c3 -8 2 -12 -4 -9 -6 3 -10 10 -10 16 0 14 7 11 14 -7z m158 2 c6 4
8 2 5 -4 -4 -5 -16 -8 -28 -5 -16 4 -17 8 -7 14 7 5 14 4 16 -1 2 -6 9 -7 14
-4z m-179 -19 c4 3 9 -1 12 -9 4 -10 15 -14 28 -12 21 4 21 4 2 -5 -14 -6 -23
-5 -31 5 -6 7 -14 11 -17 8 -3 -3 -10 5 -17 18 -10 20 -10 21 3 6 8 -10 17
-15 20 -11z m-38 4 c3 -5 0 -13 -6 -17 -7 -4 -9 -3 -5 4 3 5 0 13 -6 15 -9 4
-10 6 -1 6 6 1 14 -3 18 -8z m-38 -7 c-3 -3 -12 -4 -19 -1 -8 3 -5 6 6 6 11 1
17 -2 13 -5z m183 -4 c0 -5 -2 -10 -4 -10 -3 0 -8 5 -11 10 -3 6 -1 10 4 10 6
0 11 -4 11 -10z m40 6 c0 -3 -4 -8 -10 -11 -5 -3 -10 -1 -10 4 0 6 5 11 10 11
6 0 10 -2 10 -4z m108 -17 c3 -11 2 -11 -7 1 -9 13 -12 13 -23 -2 -10 -12 -18
-14 -33 -7 -19 9 -19 9 2 5 13 -2 24 2 27 11 7 17 28 13 34 -8z m-170 -14 c-3
-3 -9 2 -12 12 -6 14 -5 15 5 6 7 -7 10 -15 7 -18z m75 10 c-3 -9 -8 -14 -10
-11 -3 3 -2 9 2 15 9 16 15 13 8 -4z m-217 -7 c4 -7 3 -8 -4 -4 -7 4 -12 2
-12 -5 0 -7 -3 -10 -6 -6 -6 5 3 27 11 27 2 0 7 -5 11 -12z m56 -12 c4 3 9 1
12 -4 3 -6 -1 -9 -10 -8 -9 1 -21 11 -26 22 -9 18 -8 18 5 2 8 -10 16 -15 19
-12z m105 -8 c-3 -8 -6 -5 -6 6 -1 11 2 17 5 13 3 -3 4 -12 1 -19z m35 -3 c3
-13 1 -22 -3 -19 -9 5 -13 44 -5 44 2 0 6 -11 8 -25z m-182 -5 c-12 -23 -16
-24 -26 -8 -4 6 -3 8 3 5 6 -4 13 0 17 8 3 8 8 15 11 15 3 0 1 -9 -5 -20z
m110 10 c0 -5 -4 -10 -10 -10 -5 0 -10 5 -10 10 0 6 5 10 10 10 6 0 10 -4 10
-10z m125 0 c3 -6 -1 -7 -9 -4 -18 7 -21 14 -7 14 6 0 13 -4 16 -10z m61 -8
c1 -7 0 -8 -3 -2 -2 5 -9 8 -14 4 -5 -3 -9 0 -9 6 0 15 23 7 26 -8z m-196 -18
c0 -2 -7 -4 -15 -4 -8 0 -15 4 -15 10 0 5 7 7 15 4 8 -4 15 -8 15 -10z m30 6
c0 -5 -5 -10 -11 -10 -5 0 -7 5 -4 10 3 6 8 10 11 10 2 0 4 -4 4 -10z m125
-10 c3 0 3 5 0 10 -3 6 -4 10 -1 10 17 0 13 -21 -6 -31 -13 -6 -20 -8 -16 -4
4 4 0 14 -10 22 -15 13 -15 13 5 4 12 -6 24 -11 28 -11z m-209 -22 c-9 -12
-16 -19 -16 -15 0 11 24 47 28 42 2 -2 -3 -14 -12 -27z m104 17 c0 -8 -4 -15
-10 -15 -5 0 -7 7 -4 15 4 8 8 15 10 15 2 0 4 -7 4 -15z m-200 1 c0 -2 -7 -7
-16 -10 -8 -3 -12 -2 -9 4 6 10 25 14 25 6z m35 -14 c-3 -3 -11 0 -18 7 -9 10
-8 11 6 5 10 -3 15 -9 12 -12z m200 0 c-3 -3 -11 0 -18 7 -9 10 -8 11 6 5 10
-3 15 -9 12 -12z m114 -5 c0 -9 -2 -8 -6 1 -2 6 -10 9 -15 6 -7 -4 -8 -2 -4 5
9 13 26 5 25 -12z m-216 -2 c-3 -9 -8 -14 -10 -11 -3 3 -2 9 2 15 9 16 15 13
8 -4z m-112 -17 c11 -21 11 -22 -4 -9 -10 7 -17 17 -17 22 0 15 9 10 21 -13z
m-27 -3 c3 -8 1 -15 -4 -15 -6 0 -10 7 -10 15 0 8 2 15 4 15 2 0 6 -7 10 -15z
m116 0 c0 -8 -4 -15 -10 -15 -5 0 -7 7 -4 15 4 8 8 15 10 15 2 0 4 -7 4 -15z
m105 4 c11 -16 1 -19 -13 -3 -7 8 -8 14 -3 14 5 0 13 -5 16 -11z m45 1 c0 -5
-7 -7 -15 -4 -8 4 -15 8 -15 10 0 2 7 4 15 4 8 0 15 -4 15 -10z m77 -20 c-1
-11 -4 -20 -8 -20 -4 0 -6 11 -5 24 0 13 4 22 8 20 4 -2 6 -13 5 -24z m-276 7
c-6 -8 -8 -17 -4 -20 3 -4 1 -7 -5 -7 -14 0 -14 2 -6 24 3 9 11 16 16 16 7 0
6 -5 -1 -13z m98 10 c-2 -1 -13 -9 -24 -17 -19 -14 -19 -14 -6 3 7 9 18 17 24
17 6 0 8 -1 6 -3z m151 -8 c0 -5 -4 -7 -10 -4 -5 3 -10 1 -10 -6 0 -7 -3 -10
-6 -6 -8 7 4 27 17 27 5 0 9 -5 9 -11z m-160 -29 c-12 -23 -16 -24 -26 -8 -4
6 -3 8 3 5 6 -4 13 0 17 8 3 8 8 15 11 15 3 0 1 -9 -5 -20z m-163 4 c-3 -3
-12 -4 -19 -1 -8 3 -5 6 6 6 11 1 17 -2 13 -5z m31 -28 c-16 -31 -21 -34 -13
-7 5 18 4 22 -5 16 -8 -5 -11 -4 -7 2 3 5 13 10 21 10 12 0 13 -5 4 -21z m78
9 c4 -8 10 -12 15 -9 5 3 9 3 9 0 0 -15 -19 -12 -33 5 -9 10 -12 19 -7 19 6 0
13 -7 16 -15z m104 -10 c0 -2 -6 -7 -12 -11 -7 -4 -10 -4 -6 1 4 4 0 14 -10
22 -15 13 -15 13 6 3 12 -6 22 -13 22 -15z m80 15 c0 -5 -4 -10 -10 -10 -5 0
-10 5 -10 10 0 6 5 10 10 10 6 0 10 -4 10 -10z m30 0 c0 -5 -2 -10 -4 -10 -3
0 -8 5 -11 10 -3 6 -1 10 4 10 6 0 11 -4 11 -10z m-250 -10 c0 -5 -5 -10 -11
-10 -5 0 -7 5 -4 10 3 6 8 10 11 10 2 0 4 -4 4 -10z m277 -5 c0 -8 -4 -15 -9
-15 -10 0 -11 14 -1 23 9 10 10 9 10 -8z m-189 -9 c-10 -7 -15 -16 -12 -19 3
-3 -5 -10 -18 -17 -22 -11 -22 -10 -4 4 11 9 16 16 10 16 -5 0 0 7 10 15 11 8
22 15 25 15 3 0 -2 -7 -11 -14z m69 -6 c-1 -10 -3 -17 -6 -15 -2 3 -10 -3 -18
-13 -8 -9 -6 -2 3 16 21 37 23 39 21 12z m38 0 c-3 -5 -12 -10 -18 -10 -7 0
-6 4 3 10 19 12 23 12 15 0z m30 -9 c-3 -6 -11 -11 -16 -11 -5 0 -4 6 3 14 14
16 24 13 13 -3z m-221 -6 c-10 -8 -23 -15 -28 -15 -6 0 -1 7 10 15 10 8 23 15
28 15 6 0 1 -7 -10 -15z m31 -5 c-3 -5 -12 -10 -18 -10 -7 0 -6 4 3 10 19 12
23 12 15 0z m75 -22 c10 -21 10 -21 -3 -6 -8 10 -18 14 -22 10 -5 -4 -5 -1 -1
6 10 17 14 15 26 -10z m100 6 c0 -2 -7 -4 -15 -4 -8 0 -15 4 -15 10 0 5 7 7
15 4 8 -4 15 -8 15 -10z m30 6 c0 -5 -5 -10 -11 -10 -5 0 -7 5 -4 10 3 6 8 10
11 10 2 0 4 -4 4 -10z m-66 -15 c3 -8 1 -15 -4 -15 -6 0 -10 7 -10 15 0 8 2
15 4 15 2 0 6 -7 10 -15z m83 -7 c-3 -8 -6 -5 -6 6 -1 11 2 17 5 13 3 -3 4
-12 1 -19z m-277 2 c0 -5 -2 -10 -4 -10 -3 0 -8 5 -11 10 -3 6 -1 10 4 10 6 0
11 -4 11 -10z m40 6 c0 -2 -7 -7 -16 -10 -8 -3 -12 -2 -9 4 6 10 25 14 25 6z
m56 -8 c4 -7 4 -10 -1 -6 -4 4 -14 0 -22 -10 -13 -15 -13 -15 -3 6 12 25 16
27 26 10z m-43 -13 c-3 -9 -8 -14 -10 -11 -3 3 -2 9 2 15 9 16 15 13 8 -4z
m205 -10 c-3 -3 -9 2 -12 12 -6 14 -5 15 5 6 7 -7 10 -15 7 -18z m-112 0 c-11
-8 -25 -15 -30 -15 -6 1 0 7 14 15 32 19 40 18 16 0z m-146 -10 c0 -8 -4 -15
-10 -15 -5 0 -7 7 -4 15 4 8 8 15 10 15 2 0 4 -7 4 -15z m97 -7 c2 -17 0 -19
-7 -8 -5 8 -6 18 -4 22 8 12 10 10 11 -14z m77 7 c-10 -8 -23 -15 -28 -15 -6
0 -1 7 10 15 10 8 23 15 28 15 6 0 1 -7 -10 -15z m126 -29 c0 -6 -7 -1 -15 10
-8 10 -15 23 -15 28 0 6 7 1 15 -10 8 -10 15 -23 15 -28z m14 28 c3 -8 2 -12
-4 -9 -6 3 -10 10 -10 16 0 14 7 11 14 -7z m-349 -4 c3 -6 -1 -7 -9 -4 -18 7
-21 14 -7 14 6 0 13 -4 16 -10z m275 0 c0 -5 -4 -10 -10 -10 -5 0 -10 5 -10
10 0 6 5 10 10 10 6 0 10 -4 10 -10z m-182 -25 c-3 -3 -9 2 -12 12 -6 14 -5
15 5 6 7 -7 10 -15 7 -18z m-102 3 c4 -7 3 -8 -4 -4 -15 9 -15 1 -2 -25 6 -10
8 -19 6 -19 -10 0 -27 41 -21 50 8 13 12 13 21 -2z m64 2 c0 -5 -8 -10 -17
-10 -15 0 -16 2 -3 10 19 12 20 12 20 0z m280 -45 c0 -11 -14 7 -31 40 -7 13
-3 12 10 -5 11 -14 21 -29 21 -35z m-240 1 c0 -6 -7 -1 -15 10 -8 10 -15 23
-15 28 0 6 7 1 15 -10 8 -10 15 -23 15 -28z m83 32 c3 -8 -5 -14 -19 -14 -13
-1 -24 2 -24 8 0 5 4 7 9 3 5 -3 12 -1 16 5 8 13 12 13 18 -2z m112 3 c3 -5 0
-13 -6 -17 -7 -4 -9 -3 -5 4 3 5 0 13 -6 15 -9 4 -10 6 -1 6 6 1 14 -3 18 -8z
m-40 -11 c-3 -5 -12 -10 -18 -10 -7 0 -6 4 3 10 19 12 23 12 15 0z m-215 -26
c0 -2 -9 0 -20 6 -11 6 -20 13 -20 16 0 2 9 0 20 -6 11 -6 20 -13 20 -16z m37
-14 c-2 -11 -7 -23 -12 -27 -4 -5 -5 -2 -1 5 4 7 2 12 -6 13 -10 0 -10 2 0 6
6 2 12 9 12 14 0 6 -5 7 -12 3 -7 -4 -8 -3 -4 5 11 16 26 3 23 -19z m139 0 c1
-16 -1 -30 -5 -30 -3 0 -7 14 -7 30 -1 17 1 30 5 30 3 0 7 -13 7 -30z m60 18
c4 -7 3 -8 -4 -4 -8 5 -12 -1 -13 -16 0 -13 -3 -17 -6 -10 -5 13 2 42 11 42 3
0 8 -5 12 -12z m40 -17 c-9 -14 -26 -14 -26 0 0 5 5 7 12 3 8 -5 9 -1 4 12 -5
14 -4 16 5 7 6 -6 8 -16 5 -22z m-182 4 c-4 -8 -10 -15 -16 -15 -5 0 -6 -4 -3
-10 3 -5 4 -10 1 -10 -14 0 -14 20 0 34 19 20 25 20 18 1z m49 -4 c-4 -3 -11
-10 -15 -15 -4 -4 -6 1 -5 12 1 12 6 18 15 15 7 -3 10 -9 5 -12z m-166 -13
c-3 -8 -6 -5 -6 6 -1 11 2 17 5 13 3 -3 4 -12 1 -19z m323 -8 c0 -5 -4 -10
-10 -10 -5 0 -10 5 -10 10 0 6 5 10 10 10 6 0 10 -4 10 -10z m-316 -22 c-3 -4
-11 -5 -19 -1 -21 7 -19 12 4 10 11 0 18 -5 15 -9z m56 -13 c0 -2 -5 -7 -12
-11 -7 -4 -8 -3 -4 4 9 15 1 15 -27 1 -20 -9 -20 -9 -5 4 10 8 14 18 10 22 -4
4 3 2 16 -4 12 -6 22 -14 22 -16z m57 18 c-4 -3 1 -12 11 -20 15 -13 15 -13
-5 -4 -28 14 -36 14 -27 -1 5 -7 3 -8 -6 -3 -10 6 -9 11 5 22 19 13 33 18 22
6z m53 2 c0 -7 -30 -13 -34 -7 -3 4 4 9 15 9 10 1 19 0 19 -2z m88 1 c-2 -1
-10 -7 -19 -14 -13 -10 -18 -10 -22 0 -3 8 5 14 20 14 13 1 23 1 21 0z m-63
-16 c3 -5 1 -10 -4 -10 -6 0 -11 5 -11 10 0 6 2 10 4 10 3 0 8 -4 11 -10z m75
-22 c10 -21 10 -21 -3 -6 -8 10 -18 14 -22 10 -5 -4 -5 -1 -1 6 10 17 14 15
26 -10z m47 2 c-1 -10 -3 -17 -6 -15 -2 3 -10 -3 -18 -13 -12 -15 -13 -14 -1
8 7 14 11 28 10 33 -1 4 2 7 7 7 6 0 9 -9 8 -20z m-297 -20 c-6 -11 -13 -20
-16 -20 -2 0 0 9 6 20 6 11 13 20 16 20 2 0 0 -9 -6 -20z m133 -2 c24 5 22 -4
-3 -11 -14 -4 -23 1 -31 16 -9 19 -8 20 3 7 7 -9 21 -14 31 -12z m-158 2 c-3
-5 -12 -10 -18 -10 -7 0 -6 4 3 10 19 12 23 12 15 0z m257 -4 c6 4 8 2 5 -4
-4 -5 -16 -8 -28 -5 -16 4 -17 8 -7 14 7 5 14 4 16 -1 2 -6 9 -7 14 -4z m-172
-6 c0 -5 -4 -10 -10 -10 -5 0 -10 5 -10 10 0 6 5 10 10 10 6 0 10 -4 10 -10z
m-26 -15 c3 -8 1 -15 -4 -15 -6 0 -10 7 -10 15 0 8 2 15 4 15 2 0 6 -7 10 -15z
m46 0 c0 -8 -4 -15 -10 -15 -5 0 -7 7 -4 15 4 8 8 15 10 15 2 0 4 -7 4 -15z
m228 4 c-2 -6 -7 -10 -12 -9 -4 1 -13 -5 -19 -13 -9 -11 -18 -12 -32 -6 -19 9
-19 9 2 5 13 -2 24 2 27 11 3 8 10 11 16 8 5 -3 10 -1 10 4 0 6 3 11 6 11 3 0
4 -5 2 -11z m-348 -3 c0 -2 -7 -7 -16 -10 -8 -3 -12 -2 -9 4 6 10 25 14 25 6z
m45 -6 c-3 -5 -12 -10 -18 -10 -7 0 -6 4 3 10 19 12 23 12 15 0z m110 -8 c-3
-3 -11 0 -18 7 -9 10 -8 11 6 5 10 -3 15 -9 12 -12z m45 8 c0 -5 -2 -10 -4
-10 -3 0 -8 5 -11 10 -3 6 -1 10 4 10 6 0 11 -4 11 -10z m40 6 c0 -2 -7 -7
-16 -10 -8 -3 -12 -2 -9 4 6 10 25 14 25 6z m13 -21 c-3 -9 -8 -14 -10 -11 -3
3 -2 9 2 15 9 16 15 13 8 -4z m-223 -11 c0 -2 -7 -4 -15 -4 -8 0 -15 4 -15 10
0 5 7 7 15 4 8 -4 15 -8 15 -10z m150 6 c0 -5 -8 -10 -17 -10 -15 0 -16 2 -3
10 19 12 20 12 20 0z m-186 -15 c3 -8 1 -15 -4 -15 -6 0 -10 7 -10 15 0 8 2
15 4 15 2 0 6 -7 10 -15z m64 1 c-7 -8 -15 -12 -17 -11 -5 6 10 25 20 25 5 0
4 -6 -3 -14z m36 3 c-3 -6 0 -15 7 -20 9 -6 10 -9 2 -9 -15 0 -26 17 -18 30 3
6 8 10 11 10 3 0 2 -5 -2 -11z m36 -3 c-1 -5 4 -13 12 -18 11 -8 11 -9 0 -6
-8 2 -13 7 -12 12 1 5 -4 13 -12 18 -11 8 -11 9 0 6 8 -2 13 -7 12 -12z m74
-2 c3 -8 2 -12 -4 -9 -6 3 -10 10 -10 16 0 14 7 11 14 -7z m35 -12 c-5 -2 -6
-9 -2 -15 3 -7 2 -9 -2 -4 -5 4 -10 17 -12 28 -2 16 -1 18 11 7 8 -7 10 -15 5
-16z m108 -4 c-3 -7 -5 -2 -5 12 0 14 2 19 5 13 2 -7 2 -19 0 -25z m-61 11 c3
-6 2 -15 -4 -21 -6 -6 -12 -6 -17 3 -5 8 -4 10 3 5 7 -4 12 -3 12 3 0 5 -6 12
-12 14 -10 4 -10 6 -1 6 6 1 15 -4 19 -10z m-250 -21 c4 -7 3 -8 -4 -4 -7 4
-12 3 -12 -2 0 -6 -8 -13 -17 -16 -15 -6 -15 -4 2 14 21 23 22 24 31 8z m40 0
c4 -7 3 -8 -4 -4 -15 9 -15 1 -1 -27 9 -20 9 -20 -4 -5 -8 10 -18 14 -22 10
-4 -4 -2 3 4 16 13 25 17 27 27 10z m104 2 c0 -5 -2 -10 -4 -10 -3 0 -8 5 -11
10 -3 6 -1 10 4 10 6 0 11 -4 11 -10z m-193 -6 c-3 -3 -12 -4 -19 -1 -8 3 -5
6 6 6 11 1 17 -2 13 -5z m210 -13 c-3 -12 1 -22 9 -25 8 -3 14 -10 14 -16 0
-5 -8 -3 -19 6 -16 14 -19 54 -4 54 3 0 3 -9 0 -19z m152 -15 c-3 -3 -11 5
-18 17 -13 21 -12 21 5 5 10 -10 16 -20 13 -22z m-224 14 c3 -6 -1 -7 -9 -4
-18 7 -21 14 -7 14 6 0 13 -4 16 -10z m29 -5 c-4 -8 -8 -15 -10 -15 -2 0 -4 7
-4 15 0 8 4 15 10 15 5 0 7 -7 4 -15z m126 0 c0 -2 -9 -3 -19 -2 -11 0 -18 5
-15 9 4 6 34 0 34 -7z m-169 -37 c-10 -11 -11 -9 -5 6 6 15 4 17 -6 11 -9 -6
-11 -4 -5 4 5 9 10 10 18 2 8 -8 7 -14 -2 -23z m69 -3 c0 -5 -5 -3 -10 5 -5 8
-10 20 -10 25 0 6 5 3 10 -5 5 -8 10 -19 10 -25z m80 13 c0 -5 -9 -4 -20 2
-11 6 -20 12 -20 14 0 2 9 2 20 -1 11 -3 20 -9 20 -15z m75 -13 c2 -14 0 -25
-4 -25 -4 0 -8 14 -8 30 0 35 8 32 12 -5z m-305 9 c0 -2 -7 -4 -15 -4 -8 0
-15 4 -15 10 0 5 7 7 15 4 8 -4 15 -8 15 -10z m23 -9 c-7 -21 -12 -19 -10 4 0
11 5 18 9 15 4 -3 5 -11 1 -19z m102 5 c3 -5 1 -10 -4 -10 -6 0 -11 5 -11 10
0 6 2 10 4 10 3 0 8 -4 11 -10z m155 -1 c0 -5 -4 -7 -10 -4 -5 3 -10 1 -10 -6
0 -7 -3 -10 -6 -6 -8 7 4 27 17 27 5 0 9 -5 9 -11z m-160 -25 c0 -2 -7 -4 -15
-4 -8 0 -15 4 -15 10 0 5 7 7 15 4 8 -4 15 -8 15 -10z m61 -6 c6 -13 8 -20 4
-16 -4 4 -14 0 -22 -10 -13 -15 -13 -15 -4 5 14 28 14 36 -1 27 -7 -4 -8 -3
-4 4 10 17 14 15 27 -10z m41 3 c-4 -10 -7 -11 -10 -3 -2 7 -9 9 -14 6 -6 -4
-8 -3 -5 3 10 16 36 11 29 -6z m-156 -23 c-9 -12 -16 -19 -16 -15 0 11 24 47
28 42 2 -2 -3 -14 -12 -27z m-56 12 c0 -5 -4 -10 -10 -10 -5 0 -10 5 -10 10 0
6 5 10 10 10 6 0 10 -4 10 -10z m30 0 c0 -5 -2 -10 -4 -10 -3 0 -8 5 -11 10
-3 6 -1 10 4 10 6 0 11 -4 11 -10z m210 0 c0 -5 -4 -10 -10 -10 -5 0 -10 5
-10 10 0 6 5 10 10 10 6 0 10 -4 10 -10z m30 0 c0 -5 -5 -10 -11 -10 -5 0 -7
5 -4 10 3 6 8 10 11 10 2 0 4 -4 4 -10z m-177 -15 c-3 -9 -8 -14 -10 -11 -3 3
-2 9 2 15 9 16 15 13 8 -4z m35 1 c-13 -10 -15 -15 -6 -24 9 -9 9 -15 1 -23
-8 -8 -13 -7 -18 2 -5 8 -4 10 3 5 7 -4 12 -3 12 3 0 5 -5 13 -12 17 -7 5 -5
11 7 21 24 17 36 17 13 -1z m169 -1 c0 -8 -4 -15 -9 -15 -10 0 -11 14 -1 23 9
10 10 9 10 -8z m-276 -19 c5 3 9 0 9 -6 0 -15 -23 -7 -26 8 -1 7 0 8 3 2 2 -5
9 -8 14 -4z m51 -11 c3 -13 1 -22 -3 -19 -9 5 -13 44 -5 44 2 0 6 -11 8 -25z
m105 -2 c1 -22 -1 -24 -8 -10 -6 9 -7 22 -4 27 9 14 10 13 12 -17z m86 6 c5
-3 2 -9 -5 -12 -9 -3 -14 3 -15 15 -1 11 1 16 5 12 4 -5 11 -12 15 -15z m-50
-3 c4 -10 1 -13 -9 -9 -15 6 -19 23 -5 23 5 0 11 -7 14 -14z m-233 -6 c0 -5
-8 -10 -17 -10 -15 0 -16 2 -3 10 19 12 20 12 20 0z m317 -5 c0 -8 -4 -15 -9
-15 -10 0 -11 14 -1 23 9 10 10 9 10 -8z m-226 -40 c7 -13 3 -12 -10 5 -11 14
-21 30 -21 35 0 11 14 -7 31 -40z m84 36 c3 -6 -5 -15 -17 -21 -21 -10 -21
-10 -6 3 10 8 15 17 11 20 -3 4 -4 7 0 7 3 0 8 -4 12 -9z m-195 -15 c0 -2 -7
-7 -16 -10 -8 -3 -12 -2 -9 4 6 10 25 14 25 6z m23 -14 c-10 -10 -20 -17 -22
-16 -6 5 20 34 30 34 5 0 1 -8 -8 -18z m112 8 c-3 -5 -1 -10 6 -10 7 0 10 -3
6 -6 -9 -9 -28 6 -22 17 4 5 8 9 11 9 3 0 2 -4 -1 -10z m145 -2 c0 -6 -3 -8
-7 -5 -3 4 -12 2 -20 -4 -8 -8 -13 -8 -13 -1 0 10 15 19 33 21 4 1 7 -4 7 -11z
m30 2 c0 -5 -5 -10 -11 -10 -5 0 -7 5 -4 10 3 6 8 10 11 10 2 0 4 -4 4 -10z
m27 -15 c0 -8 -4 -15 -9 -15 -10 0 -11 14 -1 23 9 10 10 9 10 -8z m-287 -17
c10 -21 10 -21 -3 -6 -8 10 -18 14 -22 10 -5 -4 -5 -1 -1 6 10 17 14 15 26
-10z m-56 -3 c3 -8 1 -15 -4 -15 -6 0 -10 7 -10 15 0 8 2 15 4 15 2 0 6 -7 10
-15z m326 -22 c0 -1 -5 -5 -12 -9 -6 -4 -8 -3 -5 3 4 6 0 13 -8 17 -8 3 -15
10 -15 16 0 5 9 2 20 -7 11 -10 20 -18 20 -20z m-166 12 c-4 -8 -8 -15 -10
-15 -2 0 -4 7 -4 15 0 8 4 15 10 15 5 0 7 -7 4 -15z m70 0 c-10 -8 -23 -15
-28 -15 -6 0 -1 7 10 15 10 8 23 15 28 15 6 0 1 -7 -10 -15z m-189 -4 c3 -5 0
-13 -6 -17 -7 -4 -9 -3 -5 4 3 5 0 13 -6 15 -9 4 -10 6 -1 6 6 1 14 -3 18 -8z
m225 -1 c0 -5 -8 -10 -17 -10 -15 0 -16 2 -3 10 19 12 20 12 20 0z m-160 -10
c0 -5 -4 -10 -10 -10 -5 0 -10 5 -10 10 0 6 5 10 10 10 6 0 10 -4 10 -10z m80
6 c0 -3 -4 -8 -10 -11 -5 -3 -10 -1 -10 4 0 6 5 11 10 11 6 0 10 -2 10 -4z
m-193 -12 c-3 -3 -12 -4 -19 -1 -8 3 -5 6 6 6 11 1 17 -2 13 -5z m75 -41 c-14
-12 -14 -14 4 -29 18 -14 18 -15 -3 -4 -26 12 -30 28 -9 36 8 3 12 15 10 27
-4 21 -4 21 5 2 6 -15 5 -23 -7 -32z m-48 29 c3 -5 -1 -9 -9 -9 -8 0 -12 4 -9
9 3 4 7 8 9 8 2 0 6 -4 9 -8z m106 -2 c0 -5 -5 -10 -11 -10 -5 0 -7 5 -4 10 3
6 8 10 11 10 2 0 4 -4 4 -10z m35 -8 c-3 -3 -11 0 -18 7 -9 10 -8 11 6 5 10
-3 15 -9 12 -12z m45 3 c0 -8 -2 -15 -4 -15 -2 0 -6 7 -10 15 -3 8 -1 15 4 15
6 0 10 -7 10 -15z m40 11 c0 -2 -7 -7 -16 -10 -8 -3 -12 -2 -9 4 6 10 25 14
25 6z m55 -5 c3 -6 -5 -15 -17 -21 -21 -10 -21 -10 -6 3 10 8 15 17 11 20 -3
4 -4 7 0 7 3 0 8 -4 12 -9z m53 -12 c3 -11 2 -11 -7 1 -9 13 -12 12 -26 -5
-16 -19 -16 -19 -5 3 12 25 31 25 38 1z m-308 -4 c0 -2 -9 -9 -20 -15 -12 -6
-20 -7 -20 -1 0 5 8 12 18 14 9 3 18 5 20 6 1 0 2 -1 2 -4z m140 -5 c0 -5 -8
-10 -17 -10 -15 0 -16 2 -3 10 19 12 20 12 20 0z m66 -2 c5 -7 3 -8 -6 -3 -10
6 -12 1 -8 -18 3 -15 1 -24 -3 -21 -11 6 -12 38 -2 47 9 9 11 9 19 -5z m-146
-8 c-13 -9 -13 -11 0 -20 9 -6 10 -10 3 -10 -6 0 -15 5 -18 10 -8 13 3 30 18
30 7 0 6 -4 -3 -10z m240 -35 c0 -5 -5 -3 -10 5 -5 8 -10 20 -10 25 0 6 5 3
10 -5 5 -8 10 -19 10 -25z m-305 5 c3 -6 -1 -7 -9 -4 -18 7 -21 14 -7 14 6 0
13 -4 16 -10z m145 0 c0 -5 -7 -7 -15 -4 -8 4 -15 8 -15 10 0 2 7 4 15 4 8 0
15 -4 15 -10z m125 -10 c3 0 3 5 0 10 -3 6 -4 10 -1 10 17 0 13 -21 -6 -31
-13 -6 -20 -8 -16 -4 4 4 0 14 -10 22 -15 13 -15 13 5 4 12 -6 24 -11 28 -11z
m-105 -5 c0 -8 -4 -15 -10 -15 -5 0 -7 7 -4 15 4 8 8 15 10 15 2 0 4 -7 4 -15z
m-183 -1 c-3 -3 -12 -4 -19 -1 -8 3 -5 6 6 6 11 1 17 -2 13 -5z m52 -17 c0 -9
-2 -8 -6 1 -2 6 -10 9 -15 6 -7 -4 -8 -2 -4 5 9 13 26 5 25 -12z m56 13 c3 -6
-1 -7 -9 -4 -18 7 -21 14 -7 14 6 0 13 -4 16 -10z m35 6 c0 -3 -4 -8 -10 -11
-5 -3 -10 -1 -10 4 0 6 5 11 10 11 6 0 10 -2 10 -4z m75 -14 c-3 -3 -11 0 -18
7 -9 10 -8 11 6 5 10 -3 15 -9 12 -12z m105 -13 c0 -5 -4 -9 -8 -9 -5 0 -9 7
-9 15 0 8 4 12 9 9 4 -3 8 -9 8 -15z m-305 -10 c-4 -5 -12 -9 -18 -8 -9 0 -8
2 1 6 6 2 9 10 6 15 -4 7 -2 8 5 4 6 -4 9 -12 6 -17z m65 11 c0 -5 -4 -10 -10
-10 -5 0 -10 5 -10 10 0 6 5 10 10 10 6 0 10 -4 10 -10z m80 -25 c0 -5 -5 -3
-10 5 -5 8 -10 20 -10 25 0 6 5 3 10 -5 5 -8 10 -19 10 -25z m-26 10 c3 -8 1
-15 -4 -15 -6 0 -10 7 -10 15 0 8 2 15 4 15 2 0 6 -7 10 -15z m61 4 c11 -16 1
-19 -13 -3 -7 8 -8 14 -3 14 5 0 13 -5 16 -11z m45 1 c0 -5 -7 -7 -15 -4 -8 4
-15 8 -15 10 0 2 7 4 15 4 8 0 15 -4 15 -10z m-260 -10 c0 -5 -4 -10 -10 -10
-5 0 -10 5 -10 10 0 6 5 10 10 10 6 0 10 -4 10 -10z m53 -5 c-3 -9 -8 -14 -10
-11 -3 3 -2 9 2 15 9 16 15 13 8 -4z m245 1 c-7 -8 -15 -12 -17 -11 -5 6 10
25 20 25 5 0 4 -6 -3 -14z m35 -11 c-3 -9 -8 -14 -10 -11 -3 3 -2 9 2 15 9 16
15 13 8 -4z m-183 -11 c0 -2 -7 -4 -15 -4 -8 0 -15 4 -15 10 0 5 7 7 15 4 8
-4 15 -8 15 -10z m-117 -7 c4 3 7 2 7 -4 0 -6 -11 -10 -24 -9 -14 0 -22 6 -19
14 4 9 9 9 18 2 6 -5 15 -7 18 -3z m63 -19 c-9 -12 -16 -19 -16 -15 0 11 24
47 28 42 2 -2 -3 -14 -12 -27z m104 -3 c0 -2 -5 -7 -12 -11 -7 -4 -8 -3 -4 4
9 15 1 15 -27 1 -20 -9 -20 -9 -5 4 10 8 14 18 10 22 -4 4 3 2 16 -4 12 -6 22
-14 22 -16z m80 15 c0 -5 -4 -10 -10 -10 -5 0 -10 5 -10 10 0 6 5 10 10 10 6
0 10 -4 10 -10z m30 0 c0 -5 -2 -10 -4 -10 -3 0 -8 5 -11 10 -3 6 -1 10 4 10
6 0 11 -4 11 -10z m-197 -27 c-4 -11 -3 -14 5 -9 7 4 12 2 12 -3 0 -6 -5 -11
-11 -11 -5 0 -7 -6 -3 -12 4 -7 3 -9 -1 -5 -11 9 -16 38 -9 49 9 14 14 9 7 -9z
m104 -13 c0 -16 -3 -30 -7 -30 -6 0 -7 21 -1 53 3 18 8 4 8 -23z m138 10 c-1
-11 -4 -22 -7 -25 -4 -5 -4 34 1 43 4 8 7 -1 6 -18z m-338 -22 c-3 -7 -5 -2
-5 12 0 14 2 19 5 13 2 -7 2 -19 0 -25z m57 7 c3 -8 0 -17 -6 -21 -7 -4 -8 -3
-4 4 4 7 3 12 -2 12 -6 0 -12 7 -15 14 -4 10 -1 13 8 10 7 -3 16 -12 19 -19z
m183 3 c0 -13 -1 -17 -4 -10 -3 6 -9 10 -14 6 -5 -3 -9 -1 -9 5 0 5 6 12 13
14 6 3 12 6 12 6 1 1 1 -9 2 -21z m44 8 c5 3 9 0 9 -6 0 -15 -23 -7 -26 8 -1
7 0 8 3 2 2 -5 9 -8 14 -4z m-134 -18 c-3 -8 -6 -5 -6 6 -1 11 2 17 5 13 3 -3
4 -12 1 -19z m167 -14 c3 -8 2 -12 -4 -9 -6 3 -10 10 -10 16 0 14 7 11 14 -7z
m-310 -16 c-3 -4 -11 -5 -19 -1 -21 7 -19 12 4 10 11 0 18 -5 15 -9z m56 -13
c0 -2 -5 -7 -12 -11 -7 -4 -8 -3 -4 4 9 15 1 15 -27 1 -20 -9 -20 -9 -5 4 10
8 14 18 10 22 -4 4 3 2 16 -4 12 -6 22 -14 22 -16z m57 18 c-4 -3 1 -12 11
-20 15 -13 15 -13 -5 -4 -28 14 -36 14 -27 -1 5 -7 3 -8 -6 -3 -10 6 -9 11 5
22 19 13 33 18 22 6z m53 2 c0 -7 -30 -13 -34 -7 -3 4 4 9 15 9 10 1 19 0 19
-2z m88 1 c-2 -1 -10 -7 -19 -14 -13 -10 -18 -10 -22 0 -3 8 5 14 20 14 13 1
23 1 21 0z m-63 -16 c3 -5 1 -10 -4 -10 -6 0 -11 5 -11 10 0 6 2 10 4 10 3 0
8 -4 11 -10z m75 -22 c10 -21 10 -21 -3 -6 -8 10 -18 14 -22 10 -5 -4 -5 -1
-1 6 10 17 14 15 26 -10z m-290 -8 c0 -5 -4 -10 -10 -10 -5 0 -10 5 -10 10 0
6 5 10 10 10 6 0 10 -4 10 -10z m40 -10 c-6 -11 -13 -20 -16 -20 -2 0 0 9 6
20 6 11 13 20 16 20 2 0 0 -9 -6 -20z m133 -2 c24 5 22 -4 -3 -11 -14 -4 -23
1 -31 16 -9 19 -8 20 3 7 7 -9 21 -14 31 -12z m167 10 c0 -6 -3 -8 -7 -5 -3 4
-12 -1 -20 -11 -13 -15 -13 -15 -3 6 11 23 30 30 30 10z m-68 -12 c6 4 8 2 5
-4 -4 -5 -16 -8 -28 -5 -16 4 -17 8 -7 14 7 5 14 4 16 -1 2 -6 9 -7 14 -4z
m-297 -5 c3 -5 2 -12 -3 -15 -5 -3 -9 1 -9 9 0 17 3 19 12 6z m125 -1 c0 -5
-4 -10 -10 -10 -5 0 -10 5 -10 10 0 6 5 10 10 10 6 0 10 -4 10 -10z m-26 -15
c3 -8 1 -15 -4 -15 -6 0 -10 7 -10 15 0 8 2 15 4 15 2 0 6 -7 10 -15z m46 0
c0 -8 -4 -15 -10 -15 -5 0 -7 7 -4 15 4 8 8 15 10 15 2 0 4 -7 4 -15z m-75 -5
c-3 -5 -12 -10 -18 -10 -7 0 -6 4 3 10 19 12 23 12 15 0z m110 -8 c-3 -3 -11
0 -18 7 -9 10 -8 11 6 5 10 -3 15 -9 12 -12z m45 8 c0 -5 -2 -10 -4 -10 -3 0
-8 5 -11 10 -3 6 -1 10 4 10 6 0 11 -4 11 -10z m40 6 c0 -2 -7 -7 -16 -10 -8
-3 -12 -2 -9 4 6 10 25 14 25 6z m96 -8 c4 -7 4 -10 -1 -6 -4 4 -13 1 -19 -6
-8 -10 -17 -11 -31 -5 -19 9 -19 9 2 5 12 -2 24 2 27 10 7 17 13 18 22 2z
m-83 -13 c-3 -9 -8 -14 -10 -11 -3 3 -2 9 2 15 9 16 15 13 8 -4z m-279 -19
c-3 -9 -10 -16 -16 -16 -5 0 -6 -5 -2 -12 4 -7 3 -8 -4 -4 -9 5 -7 14 5 31 20
26 27 26 17 1z m206 14 c0 -5 -8 -10 -17 -10 -15 0 -16 2 -3 10 19 12 20 12
20 0z m-122 -14 c-7 -8 -15 -12 -17 -11 -5 6 10 25 20 25 5 0 4 -6 -3 -14z
m36 3 c-3 -6 0 -15 7 -20 9 -6 10 -9 2 -9 -15 0 -26 17 -18 30 3 6 8 10 11 10
3 0 2 -5 -2 -11z m36 -3 c-1 -5 4 -13 12 -18 11 -8 11 -9 0 -6 -8 2 -13 7 -12
12 1 5 -4 13 -12 18 -11 8 -11 9 0 6 8 -2 13 -7 12 -12z m74 -2 c3 -8 2 -12
-4 -9 -6 3 -10 10 -10 16 0 14 7 11 14 -7z m35 -12 c-5 -2 -6 -9 -2 -15 3 -7
2 -9 -2 -4 -5 4 -10 17 -12 28 -2 16 -1 18 11 7 8 -7 10 -15 5 -16z m47 7 c3
-6 2 -15 -4 -21 -6 -6 -12 -6 -17 3 -5 8 -4 10 3 5 7 -4 12 -3 12 3 0 5 -6 12
-12 14 -10 4 -10 6 -1 6 6 1 15 -4 19 -10z m-266 -14 c5 3 12 0 16 -7 4 -7 4
-10 -1 -6 -4 4 -13 1 -19 -7 -8 -11 -15 -12 -26 -4 -13 9 -12 10 3 5 15 -5 17
-2 13 17 -3 12 -3 16 0 9 3 -6 10 -10 14 -7z m56 -7 c4 -7 3 -8 -4 -4 -15 9
-15 1 -1 -27 9 -20 9 -20 -4 -5 -8 10 -18 14 -22 10 -4 -4 -2 3 4 16 13 25 17
27 27 10z m104 2 c0 -5 -2 -10 -4 -10 -3 0 -8 5 -11 10 -3 6 -1 10 4 10 6 0
11 -4 11 -10z m17 -19 c-3 -12 1 -22 9 -25 8 -3 14 -10 14 -16 0 -5 -8 -3 -19
6 -16 14 -19 54 -4 54 3 0 3 -9 0 -19z m-248 -14 c0 -9 -2 -8 -6 1 -2 6 -10 9
-15 6 -7 -4 -8 -2 -4 5 9 13 26 5 25 -12z m176 13 c3 -6 -1 -7 -9 -4 -18 7
-21 14 -7 14 6 0 13 -4 16 -10z m29 -5 c-4 -8 -8 -15 -10 -15 -2 0 -4 7 -4 15
0 8 4 15 10 15 5 0 7 -7 4 -15z m126 0 c0 -2 -9 -3 -19 -2 -11 0 -18 5 -15 9
4 6 34 0 34 -7z m67 -7 c-3 -8 -6 -5 -6 6 -1 11 2 17 5 13 3 -3 4 -12 1 -19z
m-357 -2 c0 -2 -7 -6 -15 -10 -8 -3 -15 -1 -15 4 0 6 7 10 15 10 8 0 15 -2 15
-4z m121 -28 c-10 -11 -11 -9 -5 6 6 15 4 17 -6 11 -9 -6 -11 -4 -5 4 5 9 10
10 18 2 8 -8 7 -14 -2 -23z m69 -3 c0 -5 -5 -3 -10 5 -5 8 -10 20 -10 25 0 6
5 3 10 -5 5 -8 10 -19 10 -25z m80 13 c0 -5 -9 -4 -20 2 -11 6 -20 12 -20 14
0 2 9 2 20 -1 11 -3 20 -9 20 -15z m-207 -13 c-7 -21 -12 -19 -10 4 0 11 5 18
9 15 4 -3 5 -11 1 -19z m-59 0 c-4 -8 -8 -15 -10 -15 -2 0 -4 7 -4 15 0 8 4
15 10 15 5 0 7 -7 4 -15z m161 5 c3 -5 1 -10 -4 -10 -6 0 -11 5 -11 10 0 6 2
10 4 10 3 0 8 -4 11 -10z m155 -1 c0 -5 -4 -7 -10 -4 -5 3 -10 1 -10 -6 0 -7
-3 -10 -6 -6 -8 7 4 27 17 27 5 0 9 -5 9 -11z m-435 -8 c3 -5 2 -12 -3 -15 -5
-3 -9 1 -9 9 0 17 3 19 12 6z m65 -13 c0 -6 -6 -8 -12 -5 -7 2 -18 -3 -24 -11
-9 -12 -13 -12 -19 -2 -5 8 -4 11 2 7 6 -4 13 -1 16 6 6 15 37 19 37 5z m210
-4 c0 -2 -7 -4 -15 -4 -8 0 -15 4 -15 10 0 5 7 7 15 4 8 -4 15 -8 15 -10z m61
-6 c6 -13 8 -20 4 -16 -4 4 -14 0 -22 -10 -13 -15 -13 -15 -4 5 14 28 14 36
-1 27 -7 -4 -8 -3 -4 4 10 17 14 15 27 -10z m41 3 c-4 -10 -7 -11 -10 -3 -2 7
-9 9 -14 6 -6 -4 -8 -3 -5 3 10 16 36 11 29 -6z m88 9 c0 -5 -4 -10 -10 -10
-5 0 -10 5 -10 10 0 6 5 10 10 10 6 0 10 -4 10 -10z m-244 -32 c-9 -12 -16
-19 -16 -15 0 11 24 47 28 42 2 -2 -3 -14 -12 -27z m-1781 5 c20 -11 52 -10
63 2 4 3 -6 4 -21 1 -14 -2 -29 -1 -31 3 -3 4 24 7 59 6 35 0 61 -3 58 -7 -2
-5 1 -8 7 -8 6 0 8 -5 4 -11 -4 -6 -9 -7 -13 -2 -11 17 -56 10 -69 -11 -9 -14
-12 -16 -8 -4 3 12 1 15 -10 11 -17 -6 -19 -23 -2 -23 18 0 0 -14 -24 -17 -17
-3 -19 -1 -8 12 15 19 -3 47 -26 38 -8 -3 -14 1 -14 8 -1 9 -6 7 -16 -6 -8
-11 -17 -19 -19 -17 -3 1 -11 2 -17 1 -10 0 -10 -2 -1 -5 6 -3 10 -16 7 -29
-3 -17 2 -27 16 -35 11 -6 20 -16 19 -23 0 -9 -2 -9 -6 1 -2 6 -9 12 -15 12
-6 0 -4 -7 3 -17 12 -14 12 -16 -1 -11 -18 6 -26 -27 -9 -37 5 -3 6 1 3 9 -7
18 11 22 22 4 4 -7 3 -8 -4 -4 -8 5 -10 2 -6 -8 7 -18 -7 -21 -22 -6 -6 6 -15
6 -24 -1 -13 -9 -13 -10 0 -8 8 1 23 -1 33 -6 17 -7 17 -8 0 -22 -10 -8 -13
-12 -6 -9 8 4 10 -1 7 -18 -3 -18 1 -25 17 -29 12 -3 18 -10 15 -16 -4 -5 -2
-13 4 -16 6 -4 10 -3 9 2 -1 4 0 11 1 16 1 4 3 12 4 19 0 6 6 13 13 15 8 3 11
-3 8 -16 -2 -12 1 -19 8 -17 7 1 8 1 3 -2 -4 -2 -2 -8 5 -13 9 -6 10 -9 2 -9
-6 0 -15 4 -18 10 -3 6 -11 10 -16 10 -6 0 -8 -4 -5 -9 3 -4 -1 -17 -9 -27
-15 -19 -15 -19 -8 0 5 15 3 18 -10 13 -20 -7 -35 12 -17 23 8 5 6 9 -7 15
-10 5 -22 9 -27 9 -5 1 -10 9 -12 19 -1 9 2 15 7 11 5 -3 6 -10 3 -16 -4 -6
-3 -8 3 -5 15 9 8 52 -8 51 -9 -1 -15 10 -16 28 0 22 2 26 12 18 20 -16 26 11
7 33 -8 9 -10 17 -5 17 6 0 10 18 9 41 -1 22 1 42 6 45 4 3 5 11 2 18 -6 16
61 16 91 -1z m251 5 c4 -4 14 -3 23 2 11 5 23 5 32 -1 12 -9 12 -10 -1 -6 -18
5 -50 -10 -50 -24 0 -6 5 -7 11 -3 8 4 8 0 0 -15 -11 -19 -8 -25 12 -22 4 0 7
-3 7 -9 0 -5 -5 -10 -11 -10 -5 0 -8 -4 -4 -9 3 -5 1 -12 -4 -16 -6 -3 -8 -12
-4 -20 6 -18 -8 -20 -25 -3 -9 9 -12 9 -12 -1 0 -7 -5 -9 -11 -5 -8 4 -7 9 2
15 7 4 10 11 6 16 -5 4 -12 2 -16 -6 -7 -10 -9 -10 -14 2 -4 10 2 14 21 13 18
0 26 4 24 13 -1 7 2 19 8 25 5 7 6 16 2 20 -4 4 -7 12 -7 17 0 5 -3 9 -7 9
-31 0 -32 -1 -18 -11 13 -9 13 -10 0 -6 -8 2 -14 13 -12 23 2 18 2 18 -13 -1
-9 -11 -18 -19 -20 -17 -13 6 -25 1 -22 -10 3 -18 -25 -16 -31 2 -3 8 -1 12 3
8 11 -11 35 11 29 26 -4 9 9 12 45 12 27 -1 53 -5 57 -8z m211 -10 c-3 -8 -6
-5 -6 6 -1 11 2 17 5 13 3 -3 4 -12 1 -19z m41 -3 c-3 -3 -9 2 -12 12 -6 14
-5 15 5 6 7 -7 10 -15 7 -18z m39 3 c-3 -8 -6 -5 -6 6 -1 11 2 17 5 13 3 -3 4
-12 1 -19z m41 -3 c-3 -3 -9 2 -12 12 -6 14 -5 15 5 6 7 -7 10 -15 7 -18z m39
3 c-3 -8 -6 -5 -6 6 -1 11 2 17 5 13 3 -3 4 -12 1 -19z m41 -3 c-3 -3 -9 2
-12 12 -6 14 -5 15 5 6 7 -7 10 -15 7 -18z m39 3 c-3 -8 -6 -5 -6 6 -1 11 2
17 5 13 3 -3 4 -12 1 -19z m60 0 c-3 -8 -6 -5 -6 6 -1 11 2 17 5 13 3 -3 4
-12 1 -19z m240 0 c-3 -8 -6 -5 -6 6 -1 11 2 17 5 13 3 -3 4 -12 1 -19z m80 0
c-3 -8 -6 -5 -6 6 -1 11 2 17 5 13 3 -3 4 -12 1 -19z m240 0 c-3 -8 -6 -5 -6
6 -1 11 2 17 5 13 3 -3 4 -12 1 -19z m100 0 c-3 -8 -6 -5 -6 6 -1 11 2 17 5
13 3 -3 4 -12 1 -19z m59 4 c-3 -3 2 -10 11 -17 13 -9 13 -14 3 -20 -8 -5 -11
-4 -6 3 3 5 1 12 -6 14 -6 2 -12 12 -14 21 -1 9 2 14 8 11 5 -3 7 -8 4 -12z
m169 8 c-3 -5 -12 -10 -18 -10 -7 0 -6 4 3 10 19 12 23 12 15 0z m30 0 c3 -5
1 -10 -4 -10 -6 0 -11 5 -11 10 0 6 2 10 4 10 3 0 8 -4 11 -10z m45 0 c0 -5
-4 -10 -10 -10 -5 0 -10 5 -10 10 0 6 5 10 10 10 6 0 10 -4 10 -10z m30 0 c0
-5 -2 -10 -4 -10 -3 0 -8 5 -11 10 -3 6 -1 10 4 10 6 0 11 -4 11 -10z m210 0
c0 -5 -4 -10 -10 -10 -5 0 -10 5 -10 10 0 6 5 10 10 10 6 0 10 -4 10 -10z m30
0 c0 -5 -5 -10 -11 -10 -5 0 -7 5 -4 10 3 6 8 10 11 10 2 0 4 -4 4 -10z
m-1057 -15 c-3 -9 -8 -14 -10 -11 -3 3 -2 9 2 15 9 16 15 13 8 -4z m320 0 c-3
-9 -8 -14 -10 -11 -3 3 -2 9 2 15 9 16 15 13 8 -4z m127 5 c0 -5 -7 -7 -15 -4
-8 4 -15 8 -15 10 0 2 7 4 15 4 8 0 15 -4 15 -10z m160 -1 c0 -5 6 -7 13 -3 6
4 9 3 4 -1 -11 -13 -45 -16 -52 -5 -4 6 1 7 11 3 12 -4 15 -3 10 5 -4 7 -2 12
3 12 6 0 11 -5 11 -11z m273 -4 c-3 -9 -8 -14 -10 -11 -3 3 -2 9 2 15 9 16 15
13 8 -4z m35 1 c-13 -10 -15 -15 -6 -24 9 -9 9 -15 1 -23 -8 -8 -13 -7 -18 2
-5 8 -4 10 3 5 7 -4 12 -3 12 3 0 5 -5 13 -12 17 -7 5 -5 11 7 21 24 17 36 17
13 -1z m-1508 -6 c0 -5 -4 -10 -10 -10 -5 0 -10 5 -10 10 0 6 5 10 10 10 6 0
10 -4 10 -10z m640 0 c0 -5 -7 -7 -15 -4 -8 4 -15 8 -15 10 0 2 7 4 15 4 8 0
15 -4 15 -10z m80 0 c0 -5 -4 -10 -10 -10 -5 0 -10 5 -10 10 0 6 5 10 10 10 6
0 10 -4 10 -10z m240 0 c0 -5 -7 -7 -15 -4 -8 4 -15 8 -15 10 0 2 7 4 15 4 8
0 15 -4 15 -10z m34 -14 c-3 -9 -10 -16 -15 -16 -5 0 -4 9 3 20 14 22 21 20
12 -4z m254 10 c-10 -7 -15 -16 -12 -19 3 -3 -5 -10 -18 -17 -22 -11 -22 -10
-4 4 11 9 16 16 10 16 -5 0 0 7 10 15 11 8 22 15 25 15 3 0 -2 -7 -11 -14z
m432 4 c0 -5 -4 -10 -10 -10 -5 0 -10 5 -10 10 0 6 5 10 10 10 6 0 10 -4 10
-10z m-2023 -17 c2 -6 -1 -14 -6 -18 -8 -4 -8 -12 -1 -25 8 -16 6 -18 -17 -15
-25 2 -26 2 -9 -11 14 -10 16 -17 8 -27 -7 -7 -7 -18 -2 -27 6 -9 3 -19 -8
-28 -10 -8 -6 -7 11 2 34 20 36 4 2 -21 -19 -14 -22 -21 -14 -33 9 -13 10 -12
5 3 -3 9 -1 17 4 17 13 0 13 -27 0 -35 -6 -4 -7 -11 -4 -17 4 -7 2 -8 -5 -4
-6 4 -8 12 -5 18 5 7 1 9 -9 5 -12 -4 -15 -1 -11 16 7 30 10 39 19 61 6 13 4
21 -4 24 -9 3 -9 7 -1 18 9 10 8 18 -3 34 -7 11 -17 17 -20 13 -4 -3 -7 -1 -7
5 0 6 9 10 20 9 11 -1 20 -5 20 -10 0 -4 5 -5 11 -1 8 5 8 9 -1 14 -8 5 -7 9
4 13 9 4 16 12 16 19 0 9 -3 9 -10 -2 -8 -12 -12 -13 -19 -2 -7 11 -9 11 -14
-2 -8 -20 -24 -21 -24 -1 0 8 4 12 8 9 4 -2 10 0 13 4 7 12 49 8 53 -5z m103
3 c0 -7 7 -20 16 -27 14 -11 19 -10 35 9 23 29 23 29 42 14 9 -8 21 -11 26 -8
5 4 12 2 15 -3 4 -5 1 -13 -5 -16 -5 -4 -8 -12 -6 -19 7 -17 -62 -14 -73 4 -8
12 -10 12 -10 1 0 -11 -3 -11 -15 -1 -12 10 -15 10 -16 -1 0 -12 -1 -12 -6 0
-5 11 -7 11 -14 0 -6 -9 -7 -1 -4 21 4 24 2 30 -4 20 -5 -8 -7 -18 -4 -24 4
-5 1 -6 -6 -1 -10 6 -11 3 -2 -13 7 -14 8 -23 1 -27 -9 -6 -14 8 -11 28 0 4
-3 7 -9 7 -5 0 -9 -10 -7 -22 2 -19 -2 -23 -23 -21 l-25 3 23 -13 c12 -7 20
-16 16 -20 -4 -4 -13 -2 -21 5 -9 8 -17 8 -24 1 -7 -7 -5 -12 6 -17 11 -4 14
-2 10 7 -4 6 1 3 9 -7 12 -15 16 -16 16 -5 1 9 4 8 12 -5 9 -15 7 -22 -7 -32
-10 -7 -22 -11 -28 -7 -6 3 -7 1 -3 -5 4 -6 12 -9 20 -6 7 3 13 -2 13 -11 0
-11 -6 -14 -21 -9 -17 4 -18 3 -6 -5 8 -6 24 -8 35 -5 12 3 15 2 9 -3 -6 -4
-10 -16 -9 -25 3 -14 -1 -15 -21 -6 -15 7 -20 14 -13 18 7 5 5 9 -5 13 -10 4
-13 13 -9 23 5 13 3 15 -8 9 -8 -5 -3 4 10 18 21 24 20 30 -5 26 -14 -2 -22
26 -13 38 6 7 8 17 4 23 -4 6 -3 10 2 9 4 -1 15 -1 23 0 12 1 13 3 1 10 -9 6
-10 11 -2 15 6 4 11 3 11 -3 0 -6 10 0 23 12 13 12 22 25 20 29 -2 3 3 9 9 11
22 9 28 7 28 -7z m187 -18 c-3 -7 -5 -2 -5 12 0 14 2 19 5 13 2 -7 2 -19 0
-25z m88 13 c-8 -14 -25 -14 -25 0 0 5 5 7 10 4 6 -3 10 -1 10 6 0 7 3 10 6 6
3 -3 3 -10 -1 -16z m395 4 c-7 -8 -17 -15 -23 -15 -6 0 -2 7 9 15 25 19 30 19
14 0z m86 -22 c-3 -4 -6 -1 -6 6 0 7 -4 9 -10 6 -6 -4 -7 1 -3 11 6 15 7 15
15 -1 6 -9 7 -19 4 -22z m54 22 c0 -8 -4 -15 -10 -15 -5 0 -7 7 -4 15 4 8 8
15 10 15 2 0 4 -7 4 -15z m130 -20 c0 -5 -5 -3 -10 5 -5 8 -10 20 -10 25 0 6
5 3 10 -5 5 -8 10 -19 10 -25z m56 16 c0 -11 -5 -17 -13 -14 -10 4 -11 9 -2
19 15 18 15 18 15 -5z m77 6 c3 -8 2 -20 -3 -26 -5 -9 -7 -4 -7 13 0 29 2 32
10 13z m52 -8 c-5 -16 -4 -19 5 -14 9 6 11 4 5 -4 -10 -18 -27 2 -19 22 9 25
17 21 9 -4z m397 14 c-6 -2 -9 -10 -6 -15 4 -7 2 -8 -5 -4 -13 9 -5 26 12 25
9 0 8 -2 -1 -6z m45 1 c-3 -3 -12 -4 -19 -1 -8 3 -5 6 6 6 11 1 17 -2 13 -5z
m74 -8 c5 3 9 0 9 -6 0 -15 -23 -7 -26 8 -1 7 0 8 3 2 2 -5 9 -8 14 -4z m51
-11 c3 -13 1 -22 -3 -19 -9 5 -13 44 -5 44 2 0 6 -11 8 -25z m105 -2 c1 -22
-1 -24 -8 -10 -6 9 -7 22 -4 27 9 14 10 13 12 -17z m86 6 c5 -3 2 -9 -5 -12
-9 -3 -14 3 -15 15 -1 11 1 16 5 12 4 -5 11 -12 15 -15z m-1559 -3 c-10 -8
-21 -12 -24 -10 -5 6 21 24 34 24 6 0 1 -6 -10 -14z m56 10 c0 -2 -7 -7 -16
-10 -8 -3 -12 -2 -9 4 6 10 25 14 25 6z m40 -6 c0 -5 -4 -10 -10 -10 -5 0 -10
5 -10 10 0 6 5 10 10 10 6 0 10 -4 10 -10z m40 0 c0 -5 -4 -10 -10 -10 -5 0
-10 5 -10 10 0 6 5 10 10 10 6 0 10 -4 10 -10z m104 -5 c-10 -8 -23 -15 -28
-15 -6 0 -1 7 10 15 10 8 23 15 28 15 6 0 1 -7 -10 -15z m36 -3 c-16 -10 -25
-25 -23 -37 l3 -20 -9 20 c-7 15 -4 24 13 37 11 10 26 18 31 18 6 0 -1 -8 -15
-18z m104 3 c-4 -8 -8 -15 -10 -15 -2 0 -4 7 -4 15 0 8 4 15 10 15 5 0 7 -7 4
-15z m155 12 c-2 -1 -13 -9 -24 -17 -19 -14 -19 -14 -6 3 7 9 18 17 24 17 6 0
8 -1 6 -3z m179 -6 c11 -7 10 -9 -3 -14 -9 -4 -14 -3 -10 2 3 5 -1 12 -7 14
-7 3 -8 6 -3 6 6 0 16 -3 23 -8z m142 -5 c0 -8 -4 -18 -10 -21 -6 -4 -7 1 -3
11 5 13 3 15 -7 9 -9 -5 -11 -4 -6 3 10 17 26 15 26 -2z m90 -6 c6 -11 8 -20
6 -20 -3 0 -10 9 -16 20 -6 11 -8 20 -6 20 3 0 10 -9 16 -20z m30 10 c0 -5 -4
-10 -10 -10 -5 0 -10 5 -10 10 0 6 5 10 10 10 6 0 10 -4 10 -10z m40 0 c0 -5
-4 -10 -10 -10 -5 0 -10 5 -10 10 0 6 5 10 10 10 6 0 10 -4 10 -10z m493 -4
c4 -10 1 -13 -9 -9 -7 3 -14 9 -14 14 0 14 17 10 23 -5z m-238 -16 c-5 -16 -3
-19 12 -13 10 3 15 3 12 -1 -4 -4 -16 -8 -27 -11 -19 -3 -20 -1 -10 21 13 29
22 32 13 4z m-1358 -5 c0 -8 -4 -12 -9 -9 -4 3 -8 9 -8 15 0 5 4 9 8 9 5 0 9
-7 9 -15z m114 -7 c6 -13 8 -20 4 -16 -4 4 -14 0 -22 -10 -13 -15 -13 -15 -4
5 14 28 14 36 -1 27 -7 -4 -8 -3 -4 4 10 17 14 15 27 -10z m52 -18 c-3 -3 -10
3 -17 12 -7 10 -17 14 -21 10 -5 -4 -5 -1 -1 6 6 11 12 10 26 -5 9 -10 15 -20
13 -23z m70 20 c-10 -11 -19 -20 -21 -20 -1 0 2 9 8 20 6 11 15 20 20 20 6 0
2 -9 -7 -20z m165 11 c11 -7 10 -9 -3 -14 -11 -5 -14 -3 -9 5 5 8 2 9 -10 5
-10 -4 -15 -3 -11 3 7 12 16 12 33 1z m33 -14 c-10 -9 -11 -8 -5 6 3 10 9 15
12 12 3 -3 0 -11 -7 -18z m179 4 c-13 -25 -13 -34 0 -26 6 3 10 4 10 1 0 -16
-21 -13 -30 5 -7 12 -8 19 -2 15 5 -3 12 1 16 9 3 8 8 15 11 15 3 0 1 -9 -5
-19z m50 14 c0 -2 -10 -9 -22 -15 -22 -11 -22 -10 -4 4 21 17 26 19 26 11z
m11 -18 c-10 -9 -11 -8 -5 6 3 10 9 15 12 12 3 -3 0 -11 -7 -18z m35 -9 c-9
-12 -16 -19 -16 -15 0 11 24 47 28 42 2 -2 -3 -14 -12 -27z m151 25 c-4 -3 1
-12 11 -20 15 -13 15 -13 -6 -3 -19 9 -23 30 -5 30 4 0 3 -3 0 -7z m319 -5 c4
-7 3 -8 -4 -4 -7 4 -12 2 -12 -5 0 -7 -3 -10 -6 -6 -6 5 3 27 11 27 2 0 7 -5
11 -12z m107 -28 c-3 -3 -10 3 -17 12 -7 10 -17 14 -21 10 -5 -4 -5 -1 -1 6 6
11 12 10 26 -5 9 -10 15 -20 13 -23z m168 -5 c7 -13 3 -12 -10 5 -11 14 -21
30 -21 35 0 11 14 -7 31 -40z m84 36 c3 -6 -5 -15 -17 -21 -21 -10 -21 -10 -6
3 10 8 15 17 11 20 -3 4 -4 7 0 7 3 0 8 -4 12 -9z m145 -1 c0 -5 -4 -10 -10
-10 -5 0 -10 5 -10 10 0 6 5 10 10 10 6 0 10 -4 10 -10z m-1480 -4 c0 -3 -4
-8 -10 -11 -5 -3 -10 -1 -10 4 0 6 5 11 10 11 6 0 10 -2 10 -4z m880 0 c0 -3
-4 -8 -10 -11 -5 -3 -10 -1 -10 4 0 6 5 11 10 11 6 0 10 -2 10 -4z m38 -8 c-2
-6 -10 -13 -16 -14 -7 -1 -8 0 -2 3 5 2 8 9 4 14 -3 5 0 9 6 9 7 0 10 -5 8
-12z m-1048 -8 c8 -5 11 -10 5 -10 -5 0 -17 5 -25 10 -8 5 -10 10 -5 10 6 0
17 -5 25 -10z m190 0 c0 -5 -2 -10 -4 -10 -3 0 -8 5 -11 10 -3 6 -1 10 4 10 6
0 11 -4 11 -10z m40 6 c0 -3 -4 -8 -10 -11 -5 -3 -10 -1 -10 4 0 6 5 11 10 11
6 0 10 -2 10 -4z m157 -18 c-3 -8 -6 -5 -6 6 -1 11 2 17 5 13 3 -3 4 -12 1
-19z m53 18 c0 -3 -4 -8 -10 -11 -5 -3 -10 -1 -10 4 0 6 5 11 10 11 6 0 10 -2
10 -4z m30 -6 c0 -5 -4 -10 -10 -10 -5 0 -10 5 -10 10 0 6 5 10 10 10 6 0 10
-4 10 -10z m205 0 c3 -5 1 -10 -4 -10 -6 0 -11 5 -11 10 0 6 2 10 4 10 3 0 8
-4 11 -10z m39 4 c9 -3 16 -11 16 -16 0 -7 -5 -6 -13 1 -8 6 -17 8 -20 4 -4
-3 -7 -1 -7 5 0 14 2 14 24 6z m131 -15 c-4 -5 -12 -9 -18 -8 -9 0 -8 2 1 6 6
2 9 10 6 15 -4 7 -2 8 5 4 6 -4 9 -12 6 -17z m28 1 c-10 -11 -19 -20 -21 -20
-1 0 2 9 8 20 6 11 15 20 20 20 6 0 2 -9 -7 -20z m92 10 c13 -6 15 -9 5 -9 -8
0 -22 4 -30 9 -18 12 -2 12 25 0z m201 -2 c4 -6 3 -8 -3 -5 -6 4 -14 -1 -17
-10 -5 -12 -9 -14 -18 -5 -15 15 -31 15 -22 0 5 -7 3 -8 -5 -3 -9 5 -10 10 -2
18 7 7 14 7 24 -2 12 -9 16 -8 21 4 7 18 12 19 22 3z m239 2 c-3 -5 -1 -10 6
-10 7 0 10 -3 6 -6 -9 -9 -28 6 -22 17 4 5 8 9 11 9 3 0 2 -4 -1 -10z m145 -2
c0 -6 -3 -8 -7 -5 -3 4 -12 2 -20 -4 -8 -8 -13 -8 -13 -1 0 10 15 19 33 21 4
1 7 -4 7 -11z m30 2 c0 -5 -5 -10 -11 -10 -5 0 -7 5 -4 10 3 6 8 10 11 10 2 0
4 -4 4 -10z m-1628 -7 c-6 -2 -9 -10 -6 -15 4 -7 2 -8 -5 -4 -13 9 -5 26 12
25 9 0 8 -2 -1 -6z m529 -16 c-10 -9 -11 -8 -5 6 3 10 9 15 12 12 3 -3 0 -11
-7 -18z m-710 -22 c16 -16 39 -29 50 -30 23 -2 45 -28 28 -34 -6 -2 -2 -12 8
-25 10 -11 14 -18 9 -14 -5 4 -15 0 -23 -10 -8 -9 -11 -11 -7 -3 5 10 3 12 -5
6 -10 -6 -11 -3 -1 15 11 20 10 21 -9 10 -12 -6 -27 -8 -33 -4 -7 5 -8 3 -4
-5 5 -7 14 -10 22 -7 7 3 11 0 8 -7 -2 -7 -13 -13 -23 -14 -16 -1 -19 4 -16
29 3 21 1 28 -9 25 -7 -3 -13 1 -13 9 0 7 7 16 14 18 9 4 11 1 7 -6 -4 -7 -3
-8 4 -4 7 4 12 12 12 17 0 12 -32 8 -42 -6 -5 -6 -8 -6 -8 2 0 7 7 16 16 21
11 6 13 11 5 16 -6 4 -11 2 -11 -5 0 -7 -11 -3 -24 10 l-24 23 -12 -21 c-9
-18 -14 -19 -31 -10 -18 9 -19 9 -10 -9 6 -11 7 -23 3 -27 -4 -5 -1 -5 6 -1 7
4 9 13 6 19 -5 9 -4 9 6 0 7 -7 9 -17 4 -25 -12 -18 -12 -30 -1 -52 7 -14 6
-16 -4 -11 -8 5 -10 4 -5 -4 4 -6 12 -8 18 -5 6 4 9 1 6 -7 -3 -8 -10 -14 -15
-14 -6 0 -15 -4 -20 -9 -4 -5 -3 -7 2 -3 6 3 12 -4 12 -16 1 -12 -1 -17 -5
-11 -5 7 -14 5 -27 -8 -20 -19 -20 -19 0 -13 15 5 16 4 6 -3 -9 -7 -10 -12 -2
-16 6 -4 11 -2 11 5 0 7 3 9 7 6 3 -4 12 -2 20 4 9 8 13 8 13 1 0 -6 -4 -14
-10 -17 -5 -3 -10 -11 -10 -18 0 -6 7 -2 15 9 8 10 15 15 15 11 0 -4 10 1 22
13 12 11 29 20 37 20 11 0 10 -4 -5 -16 -18 -14 -18 -15 4 -4 12 6 22 7 22 3
0 -4 5 -1 10 7 5 8 10 11 10 5 0 -5 -5 -17 -10 -25 -9 -13 -10 -13 -10 0 0 12
-2 12 -9 2 -4 -8 -11 -13 -15 -13 -21 3 -27 -1 -22 -15 3 -9 2 -12 -5 -9 -6 4
-8 14 -5 24 4 11 2 11 -9 -4 -19 -24 -62 -28 -75 -6 -5 9 -10 11 -10 5 0 -13
-45 -12 -57 0 -4 5 -3 6 4 2 6 -3 14 -2 18 3 3 6 13 7 22 4 11 -4 14 -3 9 5
-4 7 -15 12 -24 12 -15 1 -15 2 1 11 9 6 15 15 11 20 -3 6 0 9 7 7 8 -1 16 2
17 7 2 6 8 18 13 28 7 12 6 19 -5 23 -11 4 -16 39 -5 39 1 0 3 10 4 23 1 12
-1 22 -5 22 -5 0 -7 8 -6 18 2 9 8 17 14 17 6 0 16 5 22 11 20 20 71 10 101
-21z m153 19 c3 -8 2 -12 -4 -9 -6 3 -10 10 -10 16 0 14 7 11 14 -7z m62 4 c4
-7 3 -8 -4 -4 -15 9 -15 1 -2 -25 6 -10 8 -19 6 -19 -10 0 -27 41 -21 50 8 13
12 13 21 -2z m140 -4 c-3 -9 -6 -18 -6 -20 0 -2 -5 -4 -11 -4 -8 0 -9 4 0 13
6 8 8 17 4 20 -3 4 -1 7 6 7 8 0 11 -6 7 -16z m124 6 c0 -5 -4 -10 -10 -10 -5
0 -10 5 -10 10 0 6 5 10 10 10 6 0 10 -4 10 -10z m55 0 c-3 -5 -1 -10 6 -10 7
0 10 -3 6 -6 -9 -9 -28 6 -22 17 4 5 8 9 11 9 3 0 2 -4 -1 -10z m65 0 c0 -5
-2 -10 -4 -10 -3 0 -8 5 -11 10 -3 6 -1 10 4 10 6 0 11 -4 11 -10z m240 0 c0
-5 -7 -7 -15 -4 -8 4 -15 8 -15 10 0 2 7 4 15 4 8 0 15 -4 15 -10z m26 -18
c-17 -16 -18 -16 -5 5 7 12 15 20 18 17 3 -2 -3 -12 -13 -22z m310 16 c4 -7 4
-10 -1 -6 -4 4 -14 0 -22 -10 -13 -15 -13 -15 -3 6 12 25 16 27 26 10z m64 2
c0 -5 -4 -10 -10 -10 -5 0 -10 5 -10 10 0 6 5 10 10 10 6 0 10 -4 10 -10z m73
-5 c4 -8 3 -16 -1 -19 -4 -3 -9 4 -9 15 -2 23 3 25 10 4z m102 5 c-3 -5 -2
-10 4 -10 6 0 7 -8 4 -17 -6 -15 -7 -14 -13 3 -7 18 -4 34 6 34 3 0 2 -4 -1
-10z m61 -14 c0 -14 -6 -22 -14 -19 -9 4 -9 9 -2 18 5 6 7 15 3 18 -3 4 -2 7
4 7 6 0 10 -11 9 -24z m74 2 c10 -21 10 -21 -3 -6 -8 10 -18 14 -22 10 -5 -4
-5 -1 -1 6 10 17 14 15 26 -10z m290 12 c0 -5 -4 -10 -10 -10 -5 0 -10 5 -10
10 0 6 5 10 10 10 6 0 10 -4 10 -10z m-1711 -29 c0 -10 -2 -11 -6 -3 -2 6 -8
10 -12 8 -4 -3 -8 1 -8 8 0 8 6 12 14 9 7 -3 13 -13 12 -22z m291 14 c0 -8 -4
-15 -10 -15 -5 0 -7 7 -4 15 4 8 8 15 10 15 2 0 4 -7 4 -15z m258 -10 c0 -14
-1 -25 -2 -23 -1 2 -8 12 -16 22 -10 13 -10 17 -2 12 6 -4 12 -2 12 3 0 6 2
11 4 11 2 0 4 -11 4 -25z m230 1 c-10 -7 -14 -17 -10 -21 4 -5 1 -5 -6 -1 -11
6 -10 12 5 26 10 9 20 15 23 13 3 -3 -3 -10 -12 -17z m912 -13 c0 -1 -5 -5
-12 -9 -6 -4 -8 -3 -5 3 4 6 0 13 -8 17 -8 3 -15 10 -15 16 0 5 9 2 20 -7 11
-10 20 -18 20 -20z m-1857 -19 c-3 -8 -10 -11 -15 -8 -6 4 -6 9 2 14 8 5 8 10
2 14 -5 3 -13 -1 -16 -10 -9 -23 -7 -24 44 -33 3 -1 -2 -6 -10 -11 -10 -6 -21
-4 -34 8 -12 11 -16 12 -11 3 6 -10 4 -12 -5 -6 -7 5 -5 -4 6 -18 20 -28 36
-35 32 -15 -2 7 7 13 19 14 12 1 20 -2 17 -7 -2 -4 -12 -5 -21 -2 -10 4 -14 2
-9 -5 3 -6 -2 -15 -11 -21 -10 -6 -13 -11 -6 -11 6 0 15 5 18 10 3 6 14 10 23
10 15 -1 15 -2 -1 -11 -9 -6 -14 -15 -11 -21 5 -7 1 -9 -9 -5 -9 3 -19 2 -22
-4 -4 -5 -11 -7 -16 -3 -6 3 -5 -3 3 -15 7 -12 17 -21 22 -21 4 0 3 6 -3 13
-15 19 -2 28 21 16 15 -8 23 -8 32 1 8 8 6 10 -9 5 -16 -6 -17 -5 -5 4 12 9
13 11 1 11 -8 0 -11 3 -8 6 4 4 13 1 22 -6 8 -7 15 -8 15 -3 0 5 14 9 30 9 32
0 38 -13 18 -35 -11 -11 -8 -12 12 -6 17 4 21 3 12 -3 -8 -5 -13 -12 -13 -16
3 -20 0 -26 -10 -20 -8 5 -8 9 1 14 8 5 7 9 -6 14 -9 3 -19 4 -22 1 -3 -3 0
-5 8 -5 10 0 10 -4 -1 -17 -8 -9 -9 -14 -2 -10 7 4 14 -1 18 -13 3 -11 13 -20
21 -20 8 0 14 -5 14 -10 0 -7 -6 -7 -19 -1 -10 6 -21 8 -24 5 -8 -8 -26 29
-24 50 1 12 -5 20 -18 21 -11 1 -29 6 -39 10 -13 6 -17 5 -12 -3 3 -6 -2 -16
-13 -22 -14 -7 -22 -7 -26 0 -5 8 -11 8 -20 0 -9 -8 -15 -8 -20 0 -4 6 -1 9 7
8 7 -2 13 4 13 12 1 22 15 41 26 35 15 -10 10 12 -6 25 -8 7 -12 16 -9 21 3 5
1 9 -5 9 -8 0 -8 23 0 40 1 3 3 10 4 15 1 6 5 18 10 28 7 17 9 17 26 1 10 -9
15 -22 12 -30z m341 31 c-4 -8 -8 -15 -10 -15 -2 0 -4 7 -4 15 0 8 4 15 10 15
5 0 7 -7 4 -15z m84 -10 c-3 -3 -9 2 -12 12 -6 14 -5 15 5 6 7 -7 10 -15 7
-18z m145 2 c4 3 7 4 7 0 0 -18 -21 -14 -30 5 -10 21 -10 21 3 6 8 -10 17 -15
20 -11z m52 13 c3 -6 -1 -7 -9 -4 -18 7 -21 14 -7 14 6 0 13 -4 16 -10z m41
-2 c5 -7 3 -8 -6 -3 -10 6 -12 4 -6 -11 5 -14 4 -16 -5 -7 -6 6 -8 16 -5 22 9
14 13 14 22 -1z m154 -26 c0 -1 -9 2 -20 8 -11 6 -20 15 -20 20 0 6 9 2 20 -7
11 -10 20 -19 20 -21z m40 28 c0 -5 -4 -10 -10 -10 -5 0 -10 5 -10 10 0 6 5
10 10 10 6 0 10 -4 10 -10z m174 -5 c11 -8 16 -15 10 -15 -5 0 -18 7 -28 15
-11 8 -16 15 -10 15 5 0 18 -7 28 -15z m66 0 c0 -8 -2 -15 -4 -15 -2 0 -6 7
-10 15 -3 8 -1 15 4 15 6 0 10 -7 10 -15z m233 -5 c3 -11 3 -20 1 -20 -2 0 -8
9 -14 20 -6 11 -7 20 -2 20 6 0 12 -9 15 -20z m92 10 c-3 -5 -12 -10 -18 -10
-7 0 -6 4 3 10 19 12 23 12 15 0z m140 -3 c14 -11 15 -16 5 -22 -9 -6 -11 -4
-5 5 6 10 4 12 -9 7 -9 -4 -15 -3 -11 2 3 5 -1 12 -7 14 -7 3 -8 6 -2 6 5 1
18 -5 29 -12z m129 -2 c-4 -8 -8 -15 -10 -15 -2 0 -4 7 -4 15 0 8 4 15 10 15
5 0 7 -7 4 -15z m70 0 c-10 -8 -23 -15 -28 -15 -6 0 -1 7 10 15 10 8 23 15 28
15 6 0 1 -7 -10 -15z m-1469 -16 c-4 -5 -12 -9 -18 -8 -9 0 -8 2 1 6 6 2 9 10
6 15 -4 7 -2 8 5 4 6 -4 9 -12 6 -17z m715 5 c0 -2 -7 -4 -15 -4 -8 0 -15 4
-15 10 0 5 7 7 15 4 8 -4 15 -8 15 -10z m230 6 c0 -5 -7 -6 -17 -3 -12 5 -14
3 -8 -7 5 -9 4 -11 -4 -6 -6 4 -9 12 -6 17 8 12 35 12 35 -1z m560 0 c0 -5 -8
-10 -17 -10 -15 0 -16 2 -3 10 19 12 20 12 20 0z m-1600 -10 c0 -5 -4 -10 -10
-10 -5 0 -10 5 -10 10 0 6 5 10 10 10 6 0 10 -4 10 -10z m111 -13 c-10 -9 -11
-8 -5 6 3 10 9 15 12 12 3 -3 0 -11 -7 -18z m35 -9 c-9 -12 -16 -19 -16 -15 0
11 24 47 28 42 2 -2 -3 -14 -12 -27z m174 -23 c0 -5 -8 1 -18 15 -10 16 -25
25 -37 23 l-20 -3 20 9 c15 7 24 4 37 -13 10 -11 18 -25 18 -31z m70 30 c-7
-8 -16 -15 -21 -15 -5 0 -1 8 9 18 20 22 31 19 12 -3z m105 16 c3 -6 -5 -15
-17 -21 -21 -10 -21 -10 -6 3 10 8 15 17 11 20 -3 4 -4 7 0 7 3 0 8 -4 12 -9z
m81 -3 c4 -6 3 -8 -4 -4 -6 3 -14 -3 -17 -15 -4 -11 -9 -18 -12 -16 -5 5 14
47 22 47 2 0 7 -5 11 -12z m104 2 c0 -5 -8 -10 -17 -10 -15 0 -16 2 -3 10 19
12 20 12 20 0z m200 0 c0 -5 -2 -10 -4 -10 -3 0 -8 5 -11 10 -3 6 -1 10 4 10
6 0 11 -4 11 -10z m80 0 c0 -5 -4 -10 -10 -10 -5 0 -10 5 -10 10 0 6 5 10 10
10 6 0 10 -4 10 -10z m236 -8 c-10 -2 -22 0 -28 6 -6 6 0 7 19 4 21 -5 23 -7
9 -10z m35 -5 c-10 -9 -11 -8 -5 6 3 10 9 15 12 12 3 -3 0 -11 -7 -18z m209
13 c0 -5 -4 -10 -10 -10 -5 0 -10 5 -10 10 0 6 5 10 10 10 6 0 10 -4 10 -10z
m80 6 c0 -3 -4 -8 -10 -11 -5 -3 -10 -1 -10 4 0 6 5 11 10 11 6 0 10 -2 10 -4z
m-1583 -28 c-3 -8 -6 -5 -6 6 -1 11 2 17 5 13 3 -3 4 -12 1 -19z m83 7 c0 -8
-4 -15 -10 -15 -5 0 -7 7 -4 15 4 8 8 15 10 15 2 0 4 -7 4 -15z m400 0 c0 -8
-4 -15 -10 -15 -5 0 -7 7 -4 15 4 8 8 15 10 15 2 0 4 -7 4 -15z m290 0 c5 3
14 -5 20 -17 9 -20 9 -21 -2 -7 -7 9 -17 16 -23 17 -5 0 -10 5 -11 12 -2 6 -1
7 3 0 2 -5 9 -8 13 -5z m267 -4 c-3 -12 1 -22 9 -25 21 -8 17 -24 -8 -36 -22
-11 -23 -11 -3 5 18 15 18 17 3 26 -14 8 -15 49 -1 49 3 0 3 -9 0 -19z m424
-32 c-9 -9 -18 -14 -21 -12 -3 3 2 10 10 16 9 7 14 21 13 32 l-3 20 9 -20 c6
-14 4 -25 -8 -36z m287 40 c-2 -6 -7 -10 -12 -9 -4 1 -14 -7 -22 -17 -14 -17
-14 -16 -4 5 6 12 15 20 21 17 5 -4 9 -1 9 4 0 6 3 11 6 11 3 0 4 -5 2 -11z
m-1713 -9 c3 -5 1 -10 -4 -10 -6 0 -11 5 -11 10 0 6 2 10 4 10 3 0 8 -4 11
-10z m259 -2 c-3 -4 -11 -5 -19 -1 -21 7 -19 12 4 10 11 0 18 -5 15 -9z m376
-10 c10 -21 10 -21 -3 -6 -8 10 -18 14 -22 10 -5 -4 -5 -1 -1 6 10 17 14 15
26 -10z m147 15 c-4 -3 1 -12 11 -20 15 -13 15 -13 -6 -3 -19 9 -23 30 -5 30
4 0 3 -3 0 -7z m68 -3 c3 -6 -1 -7 -9 -4 -18 7 -21 14 -7 14 6 0 13 -4 16 -10z
m29 -5 c-4 -8 -8 -15 -10 -15 -2 0 -4 7 -4 15 0 8 4 15 10 15 5 0 7 -7 4 -15z
m51 5 c-3 -5 -12 -10 -18 -10 -7 0 -6 4 3 10 19 12 23 12 15 0z m30 0 c3 -5 1
-10 -4 -10 -6 0 -11 5 -11 10 0 6 2 10 4 10 3 0 8 -4 11 -10z m110 0 c-3 -5
-12 -10 -18 -10 -7 0 -6 4 3 10 19 12 23 12 15 0z m55 -15 c0 -2 -5 -7 -12
-11 -7 -4 -8 -3 -4 4 9 15 1 15 -27 1 -20 -9 -20 -9 -5 4 10 8 14 18 10 22 -4
4 3 2 16 -4 12 -6 22 -14 22 -16z m25 14 c11 -16 1 -19 -13 -3 -7 8 -8 14 -3
14 5 0 13 -5 16 -11z m132 -11 c-3 -8 -6 -5 -6 6 -1 11 2 17 5 13 3 -3 4 -12
1 -19z m93 12 c12 -7 10 -9 -8 -7 -12 0 -22 5 -22 9 0 11 12 10 30 -2z m110 0
c0 -5 -5 -10 -11 -10 -5 0 -7 5 -4 10 3 6 8 10 11 10 2 0 4 -4 4 -10z m35 -8
c-3 -3 -11 0 -18 7 -9 10 -8 11 6 5 10 -3 15 -9 12 -12z m45 3 c0 -8 -2 -15
-4 -15 -2 0 -6 7 -10 15 -3 8 -1 15 4 15 6 0 10 -7 10 -15z m40 11 c0 -2 -7
-7 -16 -10 -8 -3 -12 -2 -9 4 6 10 25 14 25 6z m55 -5 c3 -6 -5 -15 -17 -21
-21 -10 -21 -10 -6 3 10 8 15 17 11 20 -3 4 -4 7 0 7 3 0 8 -4 12 -9z m-1581
-13 c-5 -8 -1 -9 12 -4 14 5 16 4 7 -5 -13 -13 -37 -3 -28 12 4 5 8 9 11 9 3
0 2 -5 -2 -12z m594 -28 c-7 -10 -14 -17 -17 -14 -3 2 1 10 7 16 8 8 7 15 -6
25 -15 13 -15 13 5 3 20 -9 21 -13 11 -30z m30 15 c-3 -3 -9 2 -12 12 -6 14
-5 15 5 6 7 -7 10 -15 7 -18z m527 7 c-3 -3 -11 0 -18 7 -9 10 -8 11 6 5 10
-3 15 -9 12 -12z m-1085 -2 c0 -5 -7 -7 -15 -4 -8 4 -15 8 -15 10 0 2 7 4 15
4 8 0 15 -4 15 -10z m96 -2 c4 -7 4 -10 -1 -6 -4 4 -14 0 -22 -10 -13 -15 -13
-15 -3 6 12 25 16 27 26 10z m40 0 c4 -7 4 -10 -1 -6 -4 4 -14 0 -22 -10 -13
-15 -13 -15 -3 6 12 25 16 27 26 10z m54 -32 c0 -12 -5 -7 -19 24 -11 24 -11
24 3 6 9 -11 16 -24 16 -30z m218 20 c24 1 41 -1 38 -4 -15 -14 -85 -8 -107
11 l-24 19 25 -14 c14 -8 44 -14 68 -12z m292 -6 c0 -10 -4 -21 -9 -24 -4 -3
-6 6 -3 21 4 19 2 24 -8 18 -9 -5 -11 -4 -6 4 10 16 26 4 26 -19z m70 14 c0
-2 -7 -4 -15 -4 -8 0 -15 4 -15 10 0 5 7 7 15 4 8 -4 15 -8 15 -10z m135 -2
c-3 -3 -11 0 -18 7 -9 10 -8 11 6 5 10 -3 15 -9 12 -12z m145 14 c0 -2 -7 -6
-15 -10 -8 -3 -15 -1 -15 4 0 6 7 10 15 10 8 0 15 -2 15 -4z m70 -6 c0 -5 -2
-10 -4 -10 -3 0 -8 5 -11 10 -3 6 -1 10 4 10 6 0 11 -4 11 -10z m135 0 c-3 -5
-12 -10 -18 -10 -7 0 -6 4 3 10 19 12 23 12 15 0z m145 0 c0 -5 -8 -10 -17
-10 -15 0 -16 2 -3 10 19 12 20 12 20 0z m66 -2 c5 -7 3 -8 -6 -3 -10 6 -12 1
-8 -18 3 -15 1 -24 -3 -21 -11 6 -12 38 -2 47 9 9 11 9 19 -5z m-1619 -4 c-3
-3 -12 -4 -19 -1 -8 3 -5 6 6 6 11 1 17 -2 13 -5z m28 -14 c-3 -4 0 -11 5 -13
6 -3 5 -4 -1 -3 -7 1 -13 10 -15 19 -1 9 2 15 7 11 5 -3 7 -9 4 -14z m40 10
c3 -6 -1 -7 -9 -4 -18 7 -21 14 -7 14 6 0 13 -4 16 -10z m383 -16 c2 -1 -8 -1
-21 0 -15 0 -23 6 -20 14 4 10 9 10 22 0 9 -7 17 -13 19 -14z m26 11 c11 -8
16 -15 10 -15 -5 0 -18 7 -28 15 -11 8 -16 15 -10 15 5 0 18 -7 28 -15z m153
-15 c2 -11 -1 -20 -5 -20 -4 0 -8 11 -8 25 0 28 8 24 13 -5z m98 11 c-3 -6
-11 -11 -16 -11 -5 0 -4 6 3 14 14 16 24 13 13 -3z m260 -1 c0 -7 -7 -15 -15
-17 -13 -4 -13 -3 0 6 13 10 13 12 0 22 -13 9 -13 10 0 6 8 -2 15 -10 15 -17z
m356 -3 c-10 -9 -11 -8 -5 6 3 10 9 15 12 12 3 -3 0 -11 -7 -18z m129 13 c-13
-8 -12 -11 4 -23 16 -11 16 -15 5 -22 -8 -5 -11 -5 -7 0 4 4 0 13 -9 20 -17
13 -10 35 10 35 7 0 6 -4 -3 -10z m254 -6 c3 -8 2 -12 -4 -9 -6 3 -10 10 -10
16 0 14 7 11 14 -7z m-1594 -4 c0 -5 -2 -10 -4 -10 -3 0 -8 5 -11 10 -3 6 -1
10 4 10 6 0 11 -4 11 -10z m54 -2 c-3 -5 -10 -5 -16 -2 -8 5 -9 1 -4 -12 5
-14 4 -16 -5 -7 -14 14 -6 30 15 30 8 0 13 -4 10 -9z m114 -2 c-10 -7 -14 -17
-10 -21 4 -5 1 -5 -7 0 -12 7 -11 10 4 22 24 17 36 17 13 -1z m443 -13 c-12
-20 -14 -14 -5 12 4 9 9 14 11 11 3 -2 0 -13 -6 -23z m349 7 c-6 -11 -13 -20
-16 -20 -2 0 0 9 6 20 6 11 13 20 16 20 2 0 0 -9 -6 -20z m70 10 c8 -5 11 -10
5 -10 -5 0 -17 5 -25 10 -8 5 -10 10 -5 10 6 0 17 -5 25 -10z m50 0 c0 -5 -2
-10 -4 -10 -3 0 -8 5 -11 10 -3 6 -1 10 4 10 6 0 11 -4 11 -10z m34 -5 c-4 -8
-8 -15 -10 -15 -2 0 -4 7 -4 15 0 8 4 15 10 15 5 0 7 -7 4 -15z m46 5 c0 -5
-5 -10 -11 -10 -5 0 -7 5 -4 10 3 6 8 10 11 10 2 0 4 -4 4 -10z m414 -6 c3 -8
2 -12 -4 -9 -6 3 -10 10 -10 16 0 14 7 11 14 -7z m-1694 -20 c0 -2 -9 0 -20 6
-11 6 -20 13 -20 16 0 2 9 0 20 -6 11 -6 20 -13 20 -16z m1060 21 c0 -2 -10
-9 -22 -15 -22 -11 -22 -10 -4 4 21 17 26 19 26 11z m302 -2 c-6 -2 -9 -10 -6
-15 4 -7 2 -8 -5 -4 -13 9 -5 26 12 25 9 0 8 -2 -1 -6z m143 -11 c-3 -3 -11 0
-18 7 -9 10 -8 11 6 5 10 -3 15 -9 12 -12z m33 -7 c-3 -3 -9 2 -12 12 -6 14
-5 15 5 6 7 -7 10 -15 7 -18z m-1438 5 c0 -5 -7 -7 -15 -4 -8 4 -15 8 -15 10
0 2 7 4 15 4 8 0 15 -4 15 -10z m125 -10 c3 0 3 5 0 10 -3 6 -4 10 -1 10 17 0
13 -21 -6 -31 -13 -6 -20 -8 -16 -4 4 4 0 14 -10 22 -15 13 -15 13 5 4 12 -6
24 -11 28 -11z m155 10 c0 -5 -4 -10 -10 -10 -5 0 -10 5 -10 10 0 6 5 10 10
10 6 0 10 -4 10 -10z m375 0 c-8 -13 1 -13 28 1 20 9 20 9 5 -4 -10 -8 -14
-18 -10 -22 4 -4 -3 -2 -16 4 -19 10 -23 31 -6 31 3 0 2 -4 -1 -10z m145 6 c0
-3 -4 -8 -10 -11 -5 -3 -10 -1 -10 4 0 6 5 11 10 11 6 0 10 -2 10 -4z m37 -2
c-3 -3 -12 -4 -19 -1 -8 3 -5 6 6 6 11 1 17 -2 13 -5z m213 -10 c0 -2 -7 -4
-15 -4 -8 0 -15 4 -15 10 0 5 7 7 15 4 8 -4 15 -8 15 -10z m30 6 c0 -5 -5 -10
-11 -10 -5 0 -7 5 -4 10 3 6 8 10 11 10 2 0 4 -4 4 -10z m74 -6 c3 -8 2 -12
-4 -9 -6 3 -10 10 -10 16 0 14 7 11 14 -7z m81 -6 c5 4 5 1 0 -7 -7 -12 -10
-12 -19 0 -6 8 -20 13 -31 12 l-20 -3 20 9 c14 6 23 5 31 -5 6 -7 15 -10 19
-6z m101 10 c4 -7 3 -8 -4 -4 -7 4 -12 2 -12 -5 0 -7 -3 -10 -6 -6 -6 5 3 27
11 27 2 0 7 -5 11 -12z m229 -8 c3 0 3 5 0 10 -3 6 -4 10 -1 10 17 0 13 -21
-6 -31 -13 -6 -20 -8 -16 -4 4 4 0 14 -10 22 -15 13 -15 13 5 4 12 -6 24 -11
28 -11z m-1545 -5 c0 -8 -4 -15 -10 -15 -5 0 -7 7 -4 15 4 8 8 15 10 15 2 0 4
-7 4 -15z m340 11 c0 -3 -4 -8 -10 -11 -5 -3 -10 -1 -10 4 0 6 5 11 10 11 6 0
10 -2 10 -4z m38 -8 c-2 -6 -10 -13 -16 -14 -7 -1 -8 0 -2 3 5 2 8 9 4 14 -3
5 0 9 6 9 7 0 10 -5 8 -12z m376 -3 c3 -8 1 -15 -4 -15 -6 0 -10 7 -10 15 0 8
2 15 4 15 2 0 6 -7 10 -15z m240 0 c3 -8 1 -15 -4 -15 -6 0 -10 7 -10 15 0 8
2 15 4 15 2 0 6 -7 10 -15z m90 -1 c3 -8 2 -12 -4 -9 -6 3 -10 10 -10 16 0 14
7 11 14 -7z m176 8 c0 -5 -6 -16 -13 -27 -11 -14 -16 -15 -22 -5 -5 8 -4 11 3
6 6 -3 13 3 17 14 6 20 15 27 15 12z m180 -7 c0 -8 -4 -15 -10 -15 -5 0 -7 7
-4 15 4 8 8 15 10 15 2 0 4 -7 4 -15z m-1572 -20 c-3 -3 -9 2 -12 12 -6 14 -5
15 5 6 7 -7 10 -15 7 -18z m57 15 c3 -6 -1 -7 -9 -4 -18 7 -21 14 -7 14 6 0
13 -4 16 -10z m35 6 c0 -3 -4 -8 -10 -11 -5 -3 -10 -1 -10 4 0 6 5 11 10 11 6
0 10 -2 10 -4z m75 -14 c-3 -3 -11 0 -18 7 -9 10 -8 11 6 5 10 -3 15 -9 12
-12z m142 11 c-4 -3 1 -12 11 -20 15 -13 15 -13 -5 -4 -28 14 -36 14 -27 -1 5
-7 3 -8 -6 -3 -10 6 -9 11 5 22 19 13 33 18 22 6z m53 2 c0 -7 -30 -13 -34 -7
-3 4 4 9 15 9 10 1 19 0 19 -2z m80 -10 c0 -11 -29 -11 -33 -1 -4 10 1 12 14
9 10 -3 19 -7 19 -8z m142 2 c-12 -7 -19 -17 -15 -22 4 -4 2 -5 -6 0 -12 7
-11 10 4 22 11 7 24 13 29 13 6 -1 1 -6 -12 -13z m106 9 c-2 -1 -10 -7 -19
-14 -13 -10 -18 -10 -22 0 -3 8 5 14 20 14 13 1 23 1 21 0z m167 -6 c-3 -5
-12 -10 -18 -10 -7 0 -6 4 3 10 19 12 23 12 15 0z m75 0 c0 -5 -2 -10 -4 -10
-3 0 -8 5 -11 10 -3 6 -1 10 4 10 6 0 11 -4 11 -10z m40 6 c0 -2 -7 -7 -16
-10 -8 -3 -12 -2 -9 4 6 10 25 14 25 6z m56 -8 c4 -7 3 -8 -4 -4 -7 4 -12 2
-12 -5 0 -7 -3 -10 -6 -6 -6 5 3 27 11 27 2 0 7 -5 11 -12z m211 -10 c-3 -8
-6 -5 -6 6 -1 11 2 17 5 13 3 -3 4 -12 1 -19z m287 7 c-4 -8 -8 -15 -10 -15
-2 0 -4 7 -4 15 0 8 4 15 10 15 5 0 7 -7 4 -15z m81 -3 c-3 -3 -11 0 -18 7 -9
10 -8 11 6 5 10 -3 15 -9 12 -12z m105 8 c0 -5 -5 -10 -11 -10 -5 0 -7 5 -4
10 3 6 8 10 11 10 2 0 4 -4 4 -10z m-1325 -10 c3 -5 1 -10 -4 -10 -6 0 -11 5
-11 10 0 6 2 10 4 10 3 0 8 -4 11 -10z m240 0 c3 -5 1 -10 -4 -10 -6 0 -11 5
-11 10 0 6 2 10 4 10 3 0 8 -4 11 -10z m121 -4 c-1 -7 -10 -24 -19 -37 l-18
-24 13 25 c7 14 13 28 14 33 3 15 4 17 8 17 2 0 3 -6 2 -14z m329 -13 c-11 -7
-22 -13 -26 -13 -14 0 -19 19 -8 26 8 5 9 3 4 -6 -6 -10 -4 -12 9 -7 10 4 20
7 22 7 3 0 2 5 -2 12 -5 7 -3 8 6 3 10 -6 9 -11 -5 -22z m113 2 c-3 -3 -9 2
-12 12 -6 14 -5 15 5 6 7 -7 10 -15 7 -18z m264 18 c-6 -2 -9 -10 -6 -15 4 -7
2 -8 -5 -4 -13 9 -5 26 12 25 9 0 8 -2 -1 -6z m-1422 -13 c0 -5 -4 -10 -10
-10 -5 0 -10 5 -10 10 0 6 5 10 10 10 6 0 10 -4 10 -10z m80 -25 c0 -5 -5 -3
-10 5 -5 8 -10 20 -10 25 0 6 5 3 10 -5 5 -8 10 -19 10 -25z m123 5 c-10 -9
-20 -15 -23 -13 -3 3 3 10 12 17 10 7 14 17 10 21 -4 5 -1 5 6 1 11 -6 10 -12
-5 -26z m237 20 c0 -5 -4 -10 -10 -10 -5 0 -10 5 -10 10 0 6 5 10 10 10 6 0
10 -4 10 -10z m73 -5 c4 -8 3 -16 -1 -19 -4 -3 -9 4 -9 15 -2 23 3 25 10 4z
m157 -7 c10 -21 10 -21 -3 -6 -8 10 -18 14 -22 10 -5 -4 -5 -1 -1 6 10 17 14
15 26 -10z m201 -5 c-12 -20 -14 -14 -5 12 4 9 9 14 11 11 3 -2 0 -13 -6 -23z
m89 17 c0 -5 -4 -10 -10 -10 -5 0 -10 5 -10 10 0 6 5 10 10 10 6 0 10 -4 10
-10z m280 6 c0 -3 -4 -8 -10 -11 -5 -3 -10 -1 -10 4 0 6 5 11 10 11 6 0 10 -2
10 -4z m80 -26 c0 -6 -9 -2 -20 7 -11 10 -20 19 -20 21 0 1 9 -2 20 -8 11 -6
20 -15 20 -20z m80 6 c8 -11 10 -17 3 -13 -6 4 -13 1 -16 -5 -2 -7 -4 0 -4 15
0 15 0 27 1 25 1 -2 8 -12 16 -22z m53 -7 c-8 -8 -13 -7 -18 2 -6 8 -4 10 5 4
10 -6 12 -4 6 11 -6 15 -5 17 5 7 9 -10 10 -16 2 -24z m67 -4 c0 -5 -5 -3 -10
5 -5 8 -10 20 -10 25 0 6 5 3 10 -5 5 -8 10 -19 10 -25z m-1466 10 c3 -8 1
-15 -4 -15 -6 0 -10 7 -10 15 0 8 2 15 4 15 2 0 6 -7 10 -15z m61 4 c11 -16 1
-19 -13 -3 -7 8 -8 14 -3 14 5 0 13 -5 16 -11z m45 1 c0 -5 -7 -7 -15 -4 -8 4
-15 8 -15 10 0 2 7 4 15 4 8 0 15 -4 15 -10z m650 6 c0 -2 -7 -6 -15 -10 -8
-3 -15 -1 -15 4 0 6 7 10 15 10 8 0 15 -2 15 -4z m28 -10 c-7 -8 -15 -12 -17
-11 -5 6 10 25 20 25 5 0 4 -6 -3 -14z m62 -1 c0 -8 -4 -15 -10 -15 -5 0 -7 7
-4 15 4 8 8 15 10 15 2 0 4 -7 4 -15z m174 0 c-10 -8 -23 -15 -28 -15 -6 0 -1
7 10 15 10 8 23 15 28 15 6 0 1 -7 -10 -15z m127 0 c11 6 11 5 2 -5 -12 -14
-33 -6 -33 13 0 8 3 7 9 -2 5 -8 14 -10 22 -6z m356 -2 c3 -7 -6 -17 -19 -23
-22 -11 -22 -11 -3 5 17 14 18 17 5 26 -12 9 -12 10 -1 7 8 -3 16 -9 18 -15z
m43 7 c0 -5 -7 -7 -15 -4 -8 4 -15 8 -15 10 0 2 7 4 15 4 8 0 15 -4 15 -10z
m-1631 -14 c9 -11 9 -16 0 -22 -8 -4 -9 -3 -5 4 4 7 2 12 -3 12 -6 0 -11 5
-11 10 0 14 5 13 19 -4z m279 -11 c-3 -3 -9 2 -12 12 -6 14 -5 15 5 6 7 -7 10
-15 7 -18z m92 21 c0 -2 -7 -7 -16 -10 -8 -3 -12 -2 -9 4 6 10 25 14 25 6z
m24 -11 c-10 -8 -23 -15 -28 -15 -6 0 -1 7 10 15 10 8 23 15 28 15 6 0 1 -7
-10 -15z m92 0 c-1 -8 -6 -18 -11 -22 -4 -4 -5 -2 -1 5 4 7 2 12 -6 12 -9 0
-9 3 2 10 19 12 19 13 16 -5z m37 -5 c3 -11 3 -20 1 -20 -2 0 -8 9 -14 20 -6
11 -7 20 -2 20 6 0 12 -9 15 -20z m262 9 c11 -16 1 -19 -13 -3 -7 8 -8 14 -3
14 5 0 13 -5 16 -11z m243 -14 c-3 -3 -9 2 -12 12 -6 14 -5 15 5 6 7 -7 10
-15 7 -18z m107 15 c-3 -5 -12 -10 -18 -10 -7 0 -6 4 3 10 19 12 23 12 15 0z
m40 0 c3 -6 -1 -7 -9 -4 -18 7 -21 14 -7 14 6 0 13 -4 16 -10z m115 0 c0 -5
-4 -10 -10 -10 -5 0 -10 5 -10 10 0 6 5 10 10 10 6 0 10 -4 10 -10z m235 0 c3
-5 1 -10 -4 -10 -6 0 -11 5 -11 10 0 6 2 10 4 10 3 0 8 -4 11 -10z m148 3 c-7
-2 -13 -9 -13 -14 0 -6 5 -7 12 -3 7 5 8 3 3 -5 -5 -9 -11 -9 -17 -3 -12 12
-2 32 15 31 9 0 9 -2 0 -6z m-1348 -13 c-3 -5 -1 -10 6 -10 7 0 10 -3 6 -6 -9
-9 -28 6 -22 17 4 5 8 9 11 9 3 0 2 -4 -1 -10z m105 0 c0 -5 -8 -10 -17 -10
-15 0 -16 2 -3 10 19 12 20 12 20 0z m170 -5 c0 -9 -41 -11 -47 -3 -3 7 -1 8
5 4 7 -4 12 -3 12 3 0 6 7 8 15 5 8 -4 15 -7 15 -9z m82 1 c6 4 8 2 5 -4 -4
-5 -16 -8 -28 -5 -16 4 -17 8 -7 14 7 5 14 4 16 -1 2 -6 9 -7 14 -4z m-602
-13 c0 -2 -8 -3 -17 -1 -10 2 -23 -3 -29 -11 -9 -11 -12 -12 -19 -1 -5 8 -4
11 2 7 6 -4 13 -1 16 7 5 13 47 12 47 -1z m200 -27 c0 -6 -7 -1 -15 10 -8 10
-15 23 -15 28 0 6 7 1 15 -10 8 -10 15 -23 15 -28z m24 28 c3 -8 2 -12 -4 -9
-6 3 -10 10 -10 16 0 14 7 11 14 -7z m446 9 c0 -5 -10 -19 -21 -33 l-21 -25
18 33 c18 32 24 38 24 25z m200 -3 c0 -5 -8 -10 -17 -10 -15 0 -16 2 -3 10 19
12 20 12 20 0z m240 -15 c0 -2 -6 -7 -12 -11 -7 -4 -10 -4 -6 1 4 4 0 14 -10
22 -15 13 -15 13 6 3 12 -6 22 -13 22 -15z m41 5 c9 12 10 12 7 1 -7 -24 -26
-24 -38 1 -11 22 -11 22 5 3 14 -17 17 -18 26 -5z m49 4 c0 -2 -7 -4 -15 -4
-8 0 -15 4 -15 10 0 5 7 7 15 4 8 -4 15 -8 15 -10z m59 -7 c0 -9 -2 -8 -6 1
-2 6 -10 9 -15 6 -7 -4 -8 -2 -4 5 9 13 26 5 25 -12z m166 13 c3 -5 1 -10 -4
-10 -6 0 -11 5 -11 10 0 6 2 10 4 10 3 0 8 -4 11 -10z m133 -13 c6 3 12 0 12
-5 0 -14 -33 -8 -38 6 -2 7 -9 9 -14 6 -7 -5 -8 -2 -3 6 6 10 10 10 19 -2 6
-8 17 -13 24 -11z m-648 -31 c0 -6 -7 -1 -15 10 -8 10 -15 23 -15 28 0 6 7 1
15 -10 8 -10 15 -23 15 -28z m83 32 c3 -8 -5 -14 -19 -14 -13 -1 -24 2 -24 8
0 5 4 7 9 3 5 -3 12 -1 16 5 8 13 12 13 18 -2z m393 -20 c-9 -12 -16 -19 -16
-15 0 11 24 47 28 42 2 -2 -3 -14 -12 -27z m-1456 -3 c0 -2 -5 -7 -12 -11 -7
-5 -8 -3 -3 6 5 9 1 11 -16 6 -13 -3 -18 -3 -11 0 6 3 9 10 6 16 -4 6 2 5 15
-1 11 -7 21 -14 21 -16z m120 0 c0 -2 -5 -7 -12 -11 -7 -4 -8 -3 -4 4 9 15 1
15 -27 1 -20 -9 -20 -9 -5 4 10 8 14 18 10 22 -4 4 3 2 16 -4 12 -6 22 -14 22
-16z m80 15 c0 -5 -4 -10 -10 -10 -5 0 -10 5 -10 10 0 6 5 10 10 10 6 0 10 -4
10 -10z m30 0 c0 -5 -2 -10 -4 -10 -3 0 -8 5 -11 10 -3 6 -1 10 4 10 6 0 11
-4 11 -10z m130 -5 c0 -8 -2 -15 -4 -15 -2 0 -6 7 -10 15 -3 8 -1 15 4 15 6 0
10 -7 10 -15z m40 11 c0 -2 -7 -7 -16 -10 -8 -3 -12 -2 -9 4 6 10 25 14 25 6z
m80 -21 c0 -2 -5 -7 -12 -11 -7 -4 -8 -3 -4 4 9 15 1 15 -27 1 -20 -9 -20 -9
-5 4 10 8 14 18 10 22 -4 4 3 2 16 -4 12 -6 22 -14 22 -16z m26 11 c3 -8 13
-12 25 -9 10 3 19 3 19 0 0 -15 -40 -12 -54 4 -9 11 -11 19 -6 19 6 0 13 -6
16 -14z m94 4 c0 -5 -2 -10 -4 -10 -3 0 -8 5 -11 10 -3 6 -1 10 4 10 6 0 11
-4 11 -10z m40 6 c0 -2 -7 -7 -16 -10 -8 -3 -12 -2 -9 4 6 10 25 14 25 6z m55
-17 c-4 -5 -12 -9 -18 -8 -9 0 -8 2 1 6 6 2 9 10 6 15 -4 7 -2 8 5 4 6 -4 9
-12 6 -17z m75 17 c0 -3 -4 -8 -10 -11 -5 -3 -10 -1 -10 4 0 6 5 11 10 11 6 0
10 -2 10 -4z m30 -6 c0 -5 -4 -10 -10 -10 -5 0 -10 5 -10 10 0 6 5 10 10 10 6
0 10 -4 10 -10z m97 3 c-4 -3 1 -12 11 -20 15 -13 15 -13 -5 -4 -28 14 -36 14
-27 -1 5 -7 3 -8 -6 -3 -10 6 -9 11 5 22 19 13 33 18 22 6z m247 -1 c2 -4 -5
-9 -17 -9 -17 -2 -19 0 -7 7 18 12 18 12 24 2z m256 -2 c0 -5 -4 -10 -10 -10
-5 0 -10 5 -10 10 0 6 5 10 10 10 6 0 10 -4 10 -10z m30 0 c0 -5 -2 -10 -4
-10 -3 0 -8 5 -11 10 -3 6 -1 10 4 10 6 0 11 -4 11 -10z m146 -2 c4 -7 4 -10
-1 -6 -4 4 -13 1 -19 -6 -8 -10 -17 -11 -31 -5 -19 9 -19 9 2 5 12 -2 24 2 27
10 7 17 13 18 22 2z m-998 -23 c-3 -3 -9 2 -12 12 -6 14 -5 15 5 6 7 -7 10
-15 7 -18z m75 10 c-3 -9 -8 -14 -10 -11 -3 3 -2 9 2 15 9 16 15 13 8 -4z
m662 6 c3 -5 0 -13 -6 -17 -8 -4 -9 -3 -5 4 9 15 1 15 -27 1 -21 -10 -21 -10
-3 5 23 18 32 20 41 7z m178 -6 c-3 -9 -8 -14 -10 -11 -3 3 -2 9 2 15 9 16 15
13 8 -4z m-1460 -15 c-6 -22 -18 -26 -29 -8 -4 6 -3 8 3 5 6 -4 13 0 17 8 8
22 15 18 9 -5z m98 -7 c-12 -20 -14 -14 -5 12 4 9 9 14 11 11 3 -2 0 -13 -6
-23z m179 23 c0 -2 -7 -6 -15 -10 -8 -3 -15 -1 -15 4 0 6 7 10 15 10 8 0 15
-2 15 -4z m30 -6 c0 -5 -2 -10 -4 -10 -3 0 -8 5 -11 10 -3 6 -1 10 4 10 6 0
11 -4 11 -10z m66 -2 c5 -7 3 -8 -6 -3 -10 6 -12 4 -6 -11 5 -14 4 -16 -5 -7
-6 6 -8 16 -5 22 9 14 13 14 22 -1z m324 -13 c-7 -8 -16 -15 -21 -15 -5 0 -1
8 9 18 20 22 31 19 12 -3z m134 -15 c-6 -5 -24 21 -24 34 0 6 6 1 14 -10 8
-10 12 -21 10 -24z m96 20 c6 -11 8 -20 6 -20 -3 0 -10 9 -16 20 -6 11 -8 20
-6 20 3 0 10 -9 16 -20z m137 5 c0 -8 -4 -12 -9 -9 -4 3 -8 9 -8 15 0 5 4 9 8
9 5 0 9 -7 9 -15z m99 -10 c3 -17 -12 -20 -21 -5 -3 6 -1 10 5 10 6 0 8 6 4
13 -4 6 -3 8 1 4 5 -4 10 -14 11 -22z m50 13 c5 -7 3 -8 -6 -3 -10 6 -12 4 -6
-11 5 -14 4 -16 -5 -7 -6 6 -8 16 -5 22 9 14 13 14 22 -1z m90 -4 c-5 -12 -1
-14 17 -9 19 5 20 4 4 -5 -21 -13 -38 -5 -30 15 3 8 7 15 10 15 3 0 2 -7 -1
-16z m259 6 c-3 -5 -1 -10 4 -10 6 0 11 -5 11 -11 0 -8 -5 -8 -15 1 -13 11
-12 30 1 30 3 0 2 -4 -1 -10z m-1419 -19 c0 -16 -3 -17 -14 -9 -12 10 -7 19
13 28 1 0 1 -9 1 -19z m34 4 c0 -8 -4 -15 -10 -15 -5 0 -7 7 -4 15 4 8 8 15
10 15 2 0 4 -7 4 -15z m426 -22 c-3 -4 -6 -1 -6 6 0 7 -4 9 -10 6 -6 -4 -7 1
-3 11 6 15 7 15 15 -1 6 -9 7 -19 4 -22z m187 11 c-7 -19 -10 -18 -16 5 -3 13
-1 18 9 14 7 -2 10 -11 7 -19z m194 11 c0 -17 -13 -20 -21 -6 -4 5 0 12 6 14
7 3 13 6 14 6 0 1 1 -6 1 -14z m45 1 c7 4 8 2 4 -5 -9 -13 -26 -5 -25 12 0 9
2 8 6 -1 2 -6 10 -9 15 -6z m82 -2 c3 -8 2 -12 -4 -9 -6 3 -10 10 -10 16 0 14
7 11 14 -7z m-1166 -19 c-3 -3 -9 2 -12 12 -6 14 -5 15 5 6 7 -7 10 -15 7 -18z
m342 21 c0 -3 -4 -8 -10 -11 -5 -3 -10 -1 -10 4 0 6 5 11 10 11 6 0 10 -2 10
-4z m40 -6 c0 -5 -5 -10 -11 -10 -5 0 -7 5 -4 10 3 6 8 10 11 10 2 0 4 -4 4
-10z m140 6 c0 -3 -4 -8 -10 -11 -5 -3 -10 -1 -10 4 0 6 5 11 10 11 6 0 10 -2
10 -4z m50 -6 c-8 -5 -19 -10 -25 -10 -5 0 -3 5 5 10 8 5 20 10 25 10 6 0 3
-5 -5 -10z m130 6 c0 -3 -4 -8 -10 -11 -5 -3 -10 -1 -10 4 0 6 5 11 10 11 6 0
10 -2 10 -4z m228 -21 c-3 -3 -9 2 -12 12 -6 14 -5 15 5 6 7 -7 10 -15 7 -18z
m390 0 c-3 -3 -9 2 -12 12 -6 14 -5 15 5 6 7 -7 10 -15 7 -18z m137 16 c3 -5
2 -12 -3 -15 -5 -3 -9 1 -9 9 0 17 3 19 12 6z m75 -1 c-8 -5 -19 -10 -25 -10
-5 0 -3 5 5 10 8 5 20 10 25 10 6 0 3 -5 -5 -10z m-989 -27 c13 -16 12 -17 -3
-4 -10 7 -18 15 -18 17 0 8 8 3 21 -13z m480 0 c13 -16 12 -17 -3 -4 -10 7
-18 15 -18 17 0 8 8 3 21 -13z"/>
<path d="M2210 2547 c0 -2 6 -10 14 -16 11 -9 16 -9 22 1 4 7 4 10 -1 6 -4 -4
-14 -3 -22 3 -7 6 -13 9 -13 6z"/>
<path d="M2270 2520 c0 -5 5 -10 10 -10 6 0 10 5 10 10 0 6 -4 10 -10 10 -5 0
-10 -4 -10 -10z"/>
<path d="M2363 2533 c-15 -5 -17 -23 -4 -23 5 0 11 7 15 15 3 8 4 15 3 14 -1
0 -8 -3 -14 -6z"/>
<path d="M2495 2490 c-6 -10 1 -14 19 -11 5 1 18 -6 30 -16 20 -17 20 -17 7 0
-20 26 -48 39 -56 27z"/>
<path d="M2440 2500 c11 -7 11 -10 2 -10 -7 0 -10 -5 -6 -11 4 -8 9 -7 15 2 9
15 3 29 -14 29 -7 0 -6 -4 3 -10z"/>
<path d="M2462 2434 c10 -10 20 -16 22 -13 3 3 -5 11 -17 18 -21 13 -21 12 -5
-5z"/>
<path d="M2490 2380 c0 -5 5 -10 11 -10 5 0 7 5 4 10 -3 6 -8 10 -11 10 -2 0
-4 -4 -4 -10z"/>
<path d="M2254 2449 c-11 -18 11 -32 25 -16 9 12 8 16 -3 20 -9 4 -18 1 -22
-4z"/>
<path d="M2252 2367 c-24 -25 -29 -41 -11 -35 6 2 9 6 7 10 -2 3 6 15 16 27
26 29 15 27 -12 -2z"/>
<path d="M2430 2366 c0 -2 7 -7 16 -10 8 -3 12 -2 9 4 -6 10 -25 14 -25 6z"/>
<path d="M2230 2280 c0 -5 5 -10 11 -10 5 0 7 5 4 10 -3 6 -8 10 -11 10 -2 0
-4 -4 -4 -10z"/>
<path d="M2306 2422 c-2 -4 0 -14 5 -22 8 -13 10 -13 18 0 10 15 6 30 -9 30
-5 0 -11 -4 -14 -8z"/>
<path d="M2299 2363 c-13 -17 -13 -17 6 -3 11 8 22 16 24 17 2 2 0 3 -6 3 -6
0 -17 -8 -24 -17z"/>
<path d="M2356 2321 c-3 -5 1 -11 9 -14 9 -4 12 -1 8 9 -6 16 -10 17 -17 5z"/>
<path d="M2360 2250 c-8 -5 -12 -12 -9 -15 4 -3 12 1 19 10 14 17 11 19 -10 5z"/>
<path d="M2320 2301 c12 -8 12 -11 1 -11 -11 0 -11 -3 0 -16 11 -13 11 -15 -2
-13 -21 3 -50 -12 -43 -23 4 -6 10 -5 16 3 8 11 9 11 5 -1 -3 -10 -15 -14 -36
-13 -21 1 -31 -2 -28 -10 2 -7 8 -12 13 -12 5 0 15 -4 23 -9 10 -6 12 -5 7 3
-5 8 1 10 23 6 35 -6 49 9 24 24 -16 10 -16 12 -2 21 19 11 18 52 -2 58 -11 3
-11 1 1 -7z m10 -86 c0 -2 -9 -3 -19 -2 -11 0 -18 5 -15 9 4 6 34 0 34 -7z"/>
<path d="M2443 2238 c2 -7 -3 -19 -12 -26 -14 -11 -13 -12 6 -2 14 6 20 16 17
25 -7 18 -17 20 -11 3z"/>
<path d="M453 689 c-2 -23 3 -25 10 -4 4 8 3 16 -1 19 -4 3 -9 -4 -9 -15z"/>
<path d="M784 689 c-3 -6 -1 -16 6 -22 10 -9 11 -9 5 2 -4 8 -2 17 6 22 9 6
10 9 2 9 -6 0 -15 -5 -19 -11z"/>
<path d="M718 749 c-18 -10 -14 -39 4 -39 6 0 5 6 -2 15 -8 10 -9 15 -2 15 6
0 15 -6 19 -14 6 -10 12 -9 28 7 11 11 14 17 7 13 -7 -4 -18 -3 -25 2 -8 7
-18 7 -29 1z"/>
<path d="M575 700 c-3 -5 -1 -10 4 -10 6 0 11 5 11 10 0 6 -2 10 -4 10 -3 0
-8 -4 -11 -10z"/>
<path d="M570 615 c-11 -13 -10 -14 4 -9 9 3 16 10 16 15 0 13 -6 11 -20 -6z"/>
<path d="M635 689 c-4 -6 -5 -12 -2 -15 2 -3 7 2 10 11 7 17 1 20 -8 4z"/>
<path d="M757 628 c-12 -9 -14 -17 -7 -28 8 -12 12 -13 19 -2 4 8 12 13 17 12
5 -1 10 4 12 12 2 9 0 8 -7 -2 -10 -13 -15 -8 -12 13 1 10 -3 9 -22 -5z"/>
<path d="M606 602 c-2 -4 -1 -14 4 -22 7 -11 9 -9 7 8 -1 24 -3 26 -11 14z"/>
<path d="M756 525 c-21 -22 -20 -25 5 -20 29 6 35 13 22 26 -7 7 -15 5 -27 -6z"/>
<path d="M2755 2161 c-3 -5 -2 -12 3 -15 5 -3 9 1 9 9 0 17 -3 19 -12 6z"/>
<path d="M2655 2151 c-3 -5 -2 -12 3 -15 5 -3 9 1 9 9 0 17 -3 19 -12 6z"/>
<path d="M2810 2140 c0 -5 5 -10 11 -10 5 0 7 5 4 10 -3 6 -8 10 -11 10 -2 0
-4 -4 -4 -10z"/>
<path d="M2613 2111 c0 -11 5 -18 9 -15 4 3 5 11 1 19 -7 21 -12 19 -10 -4z"/>
<path d="M2695 2100 c-3 -5 -1 -10 4 -10 6 0 11 5 11 10 0 6 -2 10 -4 10 -3 0
-8 -4 -11 -10z"/>
<path d="M2754 2102 c4 -3 14 -7 22 -8 9 -1 13 0 10 4 -4 3 -14 7 -22 8 -9 1
-13 0 -10 -4z"/>
<path d="M2936 2102 c-3 -5 1 -9 9 -9 8 0 12 4 9 9 -3 4 -7 8 -9 8 -2 0 -6 -4
-9 -8z"/>
<path d="M2814 2062 c4 -3 14 -7 22 -8 9 -1 13 0 10 4 -4 3 -14 7 -22 8 -9 1
-13 0 -10 -4z"/>
<path d="M2735 2031 c-3 -5 -2 -12 3 -15 5 -3 9 1 9 9 0 17 -3 19 -12 6z"/>
<path d="M2634 2022 c4 -3 14 -7 22 -8 9 -1 13 0 10 4 -4 3 -14 7 -22 8 -9 1
-13 0 -10 -4z"/>
<path d="M2933 2015 c0 -8 4 -12 9 -9 5 3 6 10 3 15 -9 13 -12 11 -12 -6z"/>
<path d="M2859 1988 c-5 -18 -6 -38 -1 -34 7 8 12 36 6 36 -2 0 -4 -1 -5 -2z"/>
<path d="M2936 1982 c-3 -5 1 -9 9 -9 8 0 12 4 9 9 -3 4 -7 8 -9 8 -2 0 -6 -4
-9 -8z"/>
<path d="M2730 1939 c0 -5 5 -7 10 -4 6 3 10 8 10 11 0 2 -4 4 -10 4 -5 0 -10
-5 -10 -11z"/>
<path d="M2806 1938 c3 -5 10 -6 15 -3 13 9 11 12 -6 12 -8 0 -12 -4 -9 -9z"/>
<path d="M2914 1942 c4 -3 14 -7 22 -8 9 -1 13 0 10 4 -4 3 -14 7 -22 8 -9 1
-13 0 -10 -4z"/>
<path d="M2650 1899 c0 -5 5 -7 10 -4 6 3 10 8 10 11 0 2 -4 4 -10 4 -5 0 -10
-5 -10 -11z"/>
<path d="M2615 1871 c-3 -5 -2 -12 3 -15 5 -3 9 1 9 9 0 17 -3 19 -12 6z"/>
<path d="M2695 1860 c3 -5 8 -10 11 -10 2 0 4 5 4 10 0 6 -5 10 -11 10 -5 0
-7 -4 -4 -10z"/>
<path d="M2733 1849 c-2 -23 3 -25 10 -4 4 8 3 16 -1 19 -4 3 -9 -4 -9 -15z"/>
<path d="M2814 1856 c1 -8 5 -18 8 -22 4 -3 5 1 4 10 -1 8 -5 18 -8 22 -4 3
-5 -1 -4 -10z"/>
<path d="M2894 1836 c1 -8 5 -18 8 -22 4 -3 5 1 4 10 -1 8 -5 18 -8 22 -4 3
-5 -1 -4 -10z"/>
<path d="M2615 1821 c-3 -5 -2 -12 3 -15 5 -3 9 1 9 9 0 17 -3 19 -12 6z"/>
<path d="M2975 1820 c-3 -5 -1 -10 4 -10 6 0 11 5 11 10 0 6 -2 10 -4 10 -3 0
-8 -4 -11 -10z"/>
<path d="M2756 1807 c3 -10 9 -15 12 -12 3 3 0 11 -7 18 -10 9 -11 8 -5 -6z"/>
<path d="M2659 1788 c-5 -18 -6 -38 -1 -34 7 8 12 36 6 36 -2 0 -4 -1 -5 -2z"/>
<path d="M2936 1782 c-2 -4 -1 -14 4 -22 7 -11 9 -9 7 8 -1 24 -3 26 -11 14z"/>
<path d="M2593 1765 c0 -8 4 -15 9 -15 4 0 8 4 8 9 0 6 -4 12 -8 15 -5 3 -9
-1 -9 -9z"/>
<path d="M2710 1766 c0 -2 7 -7 16 -10 8 -3 12 -2 9 4 -6 10 -25 14 -25 6z"/>
<path d="M2770 1740 c0 -5 5 -10 11 -10 5 0 7 5 4 10 -3 6 -8 10 -11 10 -2 0
-4 -4 -4 -10z"/>
<path d="M2815 1739 c-3 -4 2 -6 10 -5 21 3 28 13 10 13 -9 0 -18 -4 -20 -8z"/>
<path d="M2670 1736 c0 -2 8 -10 18 -17 15 -13 16 -12 3 4 -13 16 -21 21 -21
13z"/>
<path d="M2917 1733 c-10 -9 -9 -23 1 -23 5 0 9 7 9 15 0 17 -1 18 -10 8z"/>
<path d="M2754 1702 c4 -3 14 -7 22 -8 9 -1 13 0 10 4 -4 3 -14 7 -22 8 -9 1
-13 0 -10 -4z"/>
<path d="M2654 1676 c1 -8 5 -18 8 -22 4 -3 5 1 4 10 -1 8 -5 18 -8 22 -4 3
-5 -1 -4 -10z"/>
<path d="M2899 1688 c-5 -18 -6 -38 -1 -34 7 8 12 36 6 36 -2 0 -4 -1 -5 -2z"/>
<path d="M2934 1676 c1 -8 5 -18 8 -22 4 -3 5 1 4 10 -1 8 -5 18 -8 22 -4 3
-5 -1 -4 -10z"/>
<path d="M2815 1659 c-3 -4 2 -6 10 -5 21 3 28 13 10 13 -9 0 -18 -4 -20 -8z"/>
<path d="M2756 1633 c-6 -14 -5 -15 5 -6 7 7 10 15 7 18 -3 3 -9 -2 -12 -12z"/>
<path d="M2977 1635 c-4 -8 -3 -16 1 -19 4 -3 9 4 9 15 2 23 -3 25 -10 4z"/>
<path d="M2890 1620 c0 -5 5 -10 11 -10 5 0 7 5 4 10 -3 6 -8 10 -11 10 -2 0
-4 -4 -4 -10z"/>
<path d="M2813 1591 c0 -11 5 -18 9 -15 4 3 5 11 1 19 -7 21 -12 19 -10 -4z"/>
<path d="M2615 1580 c-3 -5 -1 -10 4 -10 6 0 11 5 11 10 0 6 -2 10 -4 10 -3 0
-8 -4 -11 -10z"/>
<path d="M2696 1578 c3 -5 10 -6 15 -3 13 9 11 12 -6 12 -8 0 -12 -4 -9 -9z"/>
<path d="M2735 1580 c3 -5 8 -10 11 -10 2 0 4 5 4 10 0 6 -5 10 -11 10 -5 0
-7 -4 -4 -10z"/>
<path d="M2916 1567 c3 -10 9 -15 12 -12 3 3 0 11 -7 18 -10 9 -11 8 -5 -6z"/>
<path d="M2866 1558 c3 -5 10 -6 15 -3 13 9 11 12 -6 12 -8 0 -12 -4 -9 -9z"/>
<path d="M2634 1542 c4 -3 14 -7 22 -8 9 -1 13 0 10 4 -4 3 -14 7 -22 8 -9 1
-13 0 -10 -4z"/>
<path d="M2815 1541 c-3 -5 -2 -12 3 -15 5 -3 9 1 9 9 0 17 -3 19 -12 6z"/>
<path d="M2976 1538 c3 -5 10 -6 15 -3 13 9 11 12 -6 12 -8 0 -12 -4 -9 -9z"/>
<path d="M2870 1526 c0 -2 7 -7 16 -10 8 -3 12 -2 9 4 -6 10 -25 14 -25 6z"/>
<path d="M2720 1500 c-12 -7 -10 -9 7 -7 12 0 19 5 17 9 -6 10 -6 10 -24 -2z"/>
<path d="M2806 1502 c-3 -5 1 -9 9 -9 8 0 12 4 9 9 -3 4 -7 8 -9 8 -2 0 -6 -4
-9 -8z"/>
<path d="M2930 1499 c0 -5 5 -7 10 -4 6 3 10 8 10 11 0 2 -4 4 -10 4 -5 0 -10
-5 -10 -11z"/>
<path d="M2976 1502 c-3 -5 1 -9 9 -9 8 0 12 4 9 9 -3 4 -7 8 -9 8 -2 0 -6 -4
-9 -8z"/>
<path d="M2815 1459 c-3 -4 2 -6 10 -5 21 3 28 13 10 13 -9 0 -18 -4 -20 -8z"/>
<path d="M2939 1448 c-5 -18 -6 -38 -1 -34 7 8 12 36 6 36 -2 0 -4 -1 -5 -2z"/>
<path d="M2650 1419 c0 -5 5 -7 10 -4 6 3 10 8 10 11 0 2 -4 4 -10 4 -5 0 -10
-5 -10 -11z"/>
<path d="M2730 1420 c0 -5 5 -10 11 -10 5 0 7 5 4 10 -3 6 -8 10 -11 10 -2 0
-4 -4 -4 -10z"/>
<path d="M2755 1379 c-3 -4 2 -6 10 -5 21 3 28 13 10 13 -9 0 -18 -4 -20 -8z"/>
<path d="M2815 1380 c-3 -5 -1 -10 4 -10 6 0 11 5 11 10 0 6 -2 10 -4 10 -3 0
-8 -4 -11 -10z"/>
<path d="M2899 1388 c-5 -18 -6 -38 -1 -34 7 8 12 36 6 36 -2 0 -4 -1 -5 -2z"/>
<path d="M2970 1380 c0 -5 5 -10 11 -10 5 0 7 5 4 10 -3 6 -8 10 -11 10 -2 0
-4 -4 -4 -10z"/>
<path d="M2659 1368 c-5 -18 -6 -38 -1 -34 7 8 12 36 6 36 -2 0 -4 -1 -5 -2z"/>
<path d="M2754 1342 c4 -3 14 -7 22 -8 9 -1 13 0 10 4 -4 3 -14 7 -22 8 -9 1
-13 0 -10 -4z"/>
<path d="M2916 1327 c3 -10 9 -15 12 -12 3 3 0 11 -7 18 -10 9 -11 8 -5 -6z"/>
<path d="M2830 1321 c0 -6 4 -13 10 -16 6 -3 7 1 4 9 -7 18 -14 21 -14 7z"/>
<path d="M2615 1300 c3 -5 8 -10 11 -10 2 0 4 5 4 10 0 6 -5 10 -11 10 -5 0
-7 -4 -4 -10z"/>
<path d="M2694 1296 c1 -8 5 -18 8 -22 4 -3 5 1 4 10 -1 8 -5 18 -8 22 -4 3
-5 -1 -4 -10z"/>
<path d="M2777 1275 c-4 -8 -3 -16 1 -19 4 -3 9 4 9 15 2 23 -3 25 -10 4z"/>
<path d="M2855 1260 c3 -5 8 -10 11 -10 2 0 4 5 4 10 0 6 -5 10 -11 10 -5 0
-7 -4 -4 -10z"/>
<path d="M2915 1259 c-3 -4 2 -6 10 -5 21 3 28 13 10 13 -9 0 -18 -4 -20 -8z"/>
<path d="M2635 1219 c-3 -4 2 -6 10 -5 21 3 28 13 10 13 -9 0 -18 -4 -20 -8z"/>
<path d="M2934 1222 c4 -3 14 -7 22 -8 9 -1 13 0 10 4 -4 3 -14 7 -22 8 -9 1
-13 0 -10 -4z"/>
<path d="M2600 1200 c-9 -6 -10 -10 -3 -10 6 0 15 5 18 10 8 12 4 12 -15 0z"/>
<path d="M2655 1191 c-3 -5 -2 -12 3 -15 5 -3 9 1 9 9 0 17 -3 19 -12 6z"/>
<path d="M2710 1197 c0 -2 6 -10 14 -16 11 -9 16 -9 22 1 4 7 4 10 -1 6 -4 -4
-14 -3 -22 3 -7 6 -13 9 -13 6z"/>
<path d="M2933 1185 c0 -8 4 -12 9 -9 5 3 6 10 3 15 -9 13 -12 11 -12 -6z"/>
<path d="M2790 1185 c0 -7 30 -13 34 -7 3 4 -4 9 -15 9 -10 1 -19 0 -19 -2z"/>
<path d="M2735 1151 c-3 -5 -2 -12 3 -15 5 -3 9 1 9 9 0 17 -3 19 -12 6z"/>
<path d="M2850 1139 c0 -5 5 -7 10 -4 6 3 10 8 10 11 0 2 -4 4 -10 4 -5 0 -10
-5 -10 -11z"/>
<path d="M2797 1133 c-10 -9 -9 -23 1 -23 5 0 9 7 9 15 0 17 -1 18 -10 8z"/>
<path d="M2610 1100 c0 -5 5 -10 11 -10 5 0 7 5 4 10 -3 6 -8 10 -11 10 -2 0
-4 -4 -4 -10z"/>
<path d="M2694 1102 c4 -3 14 -7 22 -8 9 -1 13 0 10 4 -4 3 -14 7 -22 8 -9 1
-13 0 -10 -4z"/>
<path d="M2890 1100 c0 -5 5 -10 11 -10 5 0 7 5 4 10 -3 6 -8 10 -11 10 -2 0
-4 -4 -4 -10z"/>
<path d="M2973 1103 c4 -3 1 -13 -6 -22 -11 -14 -10 -14 5 -2 16 12 16 31 1
31 -4 0 -3 -3 0 -7z"/>
<path d="M2650 1060 c0 -5 5 -10 11 -10 5 0 7 5 4 10 -3 6 -8 10 -11 10 -2 0
-4 -4 -4 -10z"/>
<path d="M2730 1059 c0 -5 5 -7 10 -4 6 3 10 8 10 11 0 2 -4 4 -10 4 -5 0 -10
-5 -10 -11z"/>
<path d="M2894 1036 c1 -8 5 -18 8 -22 4 -3 5 1 4 10 -1 8 -5 18 -8 22 -4 3
-5 -1 -4 -10z"/>
<path d="M2814 1022 c4 -3 14 -7 22 -8 9 -1 13 0 10 4 -4 3 -14 7 -22 8 -9 1
-13 0 -10 -4z"/>
<path d="M2975 1020 c-3 -5 -1 -10 4 -10 6 0 11 5 11 10 0 6 -2 10 -4 10 -3 0
-8 -4 -11 -10z"/>
<path d="M2585 980 c-3 -5 1 -10 10 -10 9 0 13 5 10 10 -3 6 -8 10 -10 10 -2
0 -7 -4 -10 -10z"/>
<path d="M2710 985 c0 -7 30 -13 34 -7 3 4 -4 9 -15 9 -10 1 -19 0 -19 -2z"/>
<path d="M2806 978 c3 -5 10 -6 15 -3 13 9 11 12 -6 12 -8 0 -12 -4 -9 -9z"/>
<path d="M2936 982 c-2 -4 -1 -14 4 -22 7 -11 9 -9 7 8 -1 24 -3 26 -11 14z"/>
<path d="M2815 951 c-3 -5 -2 -12 3 -15 5 -3 9 1 9 9 0 17 -3 19 -12 6z"/>
<path d="M2635 939 c-3 -4 2 -6 10 -5 21 3 28 13 10 13 -9 0 -18 -4 -20 -8z"/>
<path d="M2866 922 c-3 -5 1 -9 9 -9 8 0 12 4 9 9 -3 4 -7 8 -9 8 -2 0 -6 -4
-9 -8z"/>
<path d="M2615 900 c3 -5 8 -10 11 -10 2 0 4 5 4 10 0 6 -5 10 -11 10 -5 0 -7
-4 -4 -10z"/>
<path d="M2695 900 c-3 -5 -1 -10 4 -10 6 0 11 5 11 10 0 6 -2 10 -4 10 -3 0
-8 -4 -11 -10z"/>
<path d="M2730 900 c0 -5 5 -10 11 -10 5 0 7 5 4 10 -3 6 -8 10 -11 10 -2 0
-4 -4 -4 -10z"/>
<path d="M2813 889 c-2 -23 3 -25 10 -4 4 8 3 16 -1 19 -4 3 -9 -4 -9 -15z"/>
<path d="M2915 899 c-3 -4 2 -6 10 -5 21 3 28 13 10 13 -9 0 -18 -4 -20 -8z"/>
<path d="M2976 858 c3 -5 10 -6 15 -3 13 9 11 12 -6 12 -8 0 -12 -4 -9 -9z"/>
<path d="M2756 847 c3 -10 9 -15 12 -12 3 3 0 11 -7 18 -10 9 -11 8 -5 -6z"/>
<path d="M2659 828 c-5 -18 -6 -38 -1 -34 7 8 12 36 6 36 -2 0 -4 -1 -5 -2z"/>
<path d="M2814 822 c4 -3 14 -7 22 -8 9 -1 13 0 10 4 -4 3 -14 7 -22 8 -9 1
-13 0 -10 -4z"/>
<path d="M2934 796 c1 -8 5 -18 8 -22 4 -3 5 1 4 10 -1 8 -5 18 -8 22 -4 3 -5
-1 -4 -10z"/>
<path d="M2755 779 c-3 -4 2 -6 10 -5 21 3 28 13 10 13 -9 0 -18 -4 -20 -8z"/>
<path d="M2754 742 c4 -3 14 -7 22 -8 9 -1 13 0 10 4 -4 3 -14 7 -22 8 -9 1
-13 0 -10 -4z"/>
<path d="M413 725 c0 -8 4 -15 9 -15 4 0 8 4 8 9 0 6 -4 12 -8 15 -5 3 -9 -1
-9 -9z"/>
<path d="M2654 716 c1 -8 5 -18 8 -22 4 -3 5 1 4 10 -1 8 -5 18 -8 22 -4 3 -5
-1 -4 -10z"/>
<path d="M2720 720 c-9 -6 -10 -10 -3 -10 6 0 15 5 18 10 8 12 4 12 -15 0z"/>
<path d="M2866 722 c-3 -5 1 -9 9 -9 8 0 12 4 9 9 -3 4 -7 8 -9 8 -2 0 -6 -4
-9 -8z"/>
<path d="M2815 699 c-3 -4 2 -6 10 -5 21 3 28 13 10 13 -9 0 -18 -4 -20 -8z"/>
<path d="M2936 702 c-3 -5 1 -9 9 -9 8 0 12 4 9 9 -3 4 -7 8 -9 8 -2 0 -6 -4
-9 -8z"/>
<path d="M2756 673 c-6 -14 -5 -15 5 -6 7 7 10 15 7 18 -3 3 -9 -2 -12 -12z"/>
<path d="M2899 688 c-5 -18 -6 -38 -1 -34 7 8 12 36 6 36 -2 0 -4 -1 -5 -2z"/>
<path d="M2813 631 c0 -11 5 -18 9 -15 4 3 5 11 1 19 -7 21 -12 19 -10 -4z"/>
<path d="M2615 620 c-3 -5 -1 -10 4 -10 6 0 11 5 11 10 0 6 -2 10 -4 10 -3 0
-8 -4 -11 -10z"/>
<path d="M2695 620 c3 -5 8 -10 11 -10 2 0 4 5 4 10 0 6 -5 10 -11 10 -5 0 -7
-4 -4 -10z"/>
<path d="M2730 619 c0 -5 5 -7 10 -4 6 3 10 8 10 11 0 2 -4 4 -10 4 -5 0 -10
-5 -10 -11z"/>
<path d="M2975 620 c-3 -5 -1 -10 4 -10 6 0 11 5 11 10 0 6 -2 10 -4 10 -3 0
-8 -4 -11 -10z"/>
<path d="M2634 582 c4 -3 14 -7 22 -8 9 -1 13 0 10 4 -4 3 -14 7 -22 8 -9 1
-13 0 -10 -4z"/>
<path d="M2734 576 c1 -8 5 -18 8 -22 4 -3 5 1 4 10 -1 8 -5 18 -8 22 -4 3 -5
-1 -4 -10z"/>
<path d="M2779 588 c-5 -18 -6 -38 -1 -34 7 8 12 36 6 36 -2 0 -4 -1 -5 -2z"/>
<path d="M2859 588 c-5 -18 -6 -38 -1 -34 7 8 12 36 6 36 -2 0 -4 -1 -5 -2z"/>
<path d="M2886 578 c3 -5 10 -6 15 -3 13 9 11 12 -6 12 -8 0 -12 -4 -9 -9z"/>
<path d="M2895 551 c-3 -5 -2 -12 3 -15 5 -3 9 1 9 9 0 17 -3 19 -12 6z"/>
<path d="M2973 535 c0 -8 4 -12 9 -9 5 3 6 10 3 15 -9 13 -12 11 -12 -6z"/>
<path d="M2566 498 c3 -4 9 -8 15 -8 5 0 9 4 9 8 0 5 -7 9 -15 9 -8 0 -12 -4
-9 -9z"/>
<path d="M2650 500 c0 -5 5 -10 11 -10 5 0 7 5 4 10 -3 6 -8 10 -11 10 -2 0
-4 -4 -4 -10z"/>
<path d="M2930 500 c0 -5 5 -10 11 -10 5 0 7 5 4 10 -3 6 -8 10 -11 10 -2 0
-4 -4 -4 -10z"/>
<path d="M2710 486 c0 -2 7 -7 16 -10 8 -3 12 -2 9 4 -6 10 -25 14 -25 6z"/>
<path d="M2865 480 c-3 -6 1 -7 9 -4 18 7 21 14 7 14 -6 0 -13 -4 -16 -10z"/>
<path d="M2760 460 c-12 -7 -10 -9 7 -7 12 0 19 5 17 9 -6 10 -6 10 -24 -2z"/>
<path d="M2815 460 c-3 -5 -1 -10 4 -10 6 0 11 5 11 10 0 6 -2 10 -4 10 -3 0
-8 -4 -11 -10z"/>
<path d="M2670 456 c0 -2 8 -10 18 -17 15 -13 16 -12 3 4 -13 16 -21 21 -21
13z"/>
<path d="M2530 419 c0 -5 5 -7 10 -4 6 3 10 8 10 11 0 2 -4 4 -10 4 -5 0 -10
-5 -10 -11z"/>
<path d="M2714 422 c4 -3 14 -7 22 -8 9 -1 13 0 10 4 -4 3 -14 7 -22 8 -9 1
-13 0 -10 -4z"/>
<path d="M2815 420 c3 -5 8 -10 11 -10 2 0 4 5 4 10 0 6 -5 10 -11 10 -5 0 -7
-4 -4 -10z"/>
<path d="M2896 418 c3 -4 11 -5 19 -1 21 7 19 12 -4 10 -11 0 -18 -5 -15 -9z"/>
<path d="M2947 399 c7 -7 15 -10 18 -7 3 3 -2 9 -12 12 -14 6 -15 5 -6 -5z"/>
<path d="M1055 380 c-3 -5 -1 -10 4 -10 6 0 11 5 11 10 0 6 -2 10 -4 10 -3 0
-8 -4 -11 -10z"/>
<path d="M1335 381 c-3 -5 -2 -12 3 -15 5 -3 9 1 9 9 0 17 -3 19 -12 6z"/>
<path d="M1450 380 c0 -5 5 -10 11 -10 5 0 7 5 4 10 -3 6 -8 10 -11 10 -2 0
-4 -4 -4 -10z"/>
<path d="M1730 379 c0 -5 5 -7 10 -4 6 3 10 8 10 11 0 2 -4 4 -10 4 -5 0 -10
-5 -10 -11z"/>
<path d="M1815 381 c-3 -5 -2 -12 3 -15 5 -3 9 1 9 9 0 17 -3 19 -12 6z"/>
<path d="M1935 380 c-3 -5 -1 -10 4 -10 6 0 11 5 11 10 0 6 -2 10 -4 10 -3 0
-8 -4 -11 -10z"/>
<path d="M2053 375 c0 -8 4 -12 9 -9 5 3 6 10 3 15 -9 13 -12 11 -12 -6z"/>
<path d="M2195 379 c-3 -4 2 -6 10 -5 21 3 28 13 10 13 -9 0 -18 -4 -20 -8z"/>
<path d="M2295 380 c-3 -5 -1 -10 4 -10 6 0 11 5 11 10 0 6 -2 10 -4 10 -3 0
-8 -4 -11 -10z"/>
<path d="M2414 376 c1 -8 5 -18 8 -22 4 -3 5 1 4 10 -1 8 -5 18 -8 22 -4 3 -5
-1 -4 -10z"/>
<path d="M2579 388 c-5 -18 -6 -38 -1 -34 7 8 12 36 6 36 -2 0 -4 -1 -5 -2z"/>
<path d="M2694 376 c1 -8 5 -18 8 -22 4 -3 5 1 4 10 -1 8 -5 18 -8 22 -4 3 -5
-1 -4 -10z"/>
<path d="M853 351 c0 -11 5 -18 9 -15 4 3 5 11 1 19 -7 21 -12 19 -10 -4z"/>
<path d="M1390 362 c0 -5 7 -9 15 -9 8 0 12 4 9 9 -3 4 -9 8 -15 8 -5 0 -9 -4
-9 -8z"/>
<path d="M1864 362 c4 -3 14 -7 22 -8 9 -1 13 0 10 4 -4 3 -14 7 -22 8 -9 1
-13 0 -10 -4z"/>
<path d="M2350 362 c0 -5 7 -9 15 -9 8 0 12 4 9 9 -3 4 -9 8 -15 8 -5 0 -9 -4
-9 -8z"/>
<path d="M2813 345 c0 -8 4 -12 9 -9 5 3 6 10 3 15 -9 13 -12 11 -12 -6z"/>
<path d="M1215 340 c3 -5 8 -10 11 -10 2 0 4 5 4 10 0 6 -5 10 -11 10 -5 0 -7
-4 -4 -10z"/>
<path d="M1495 340 c-3 -5 -1 -10 4 -10 6 0 11 5 11 10 0 6 -2 10 -4 10 -3 0
-8 -4 -11 -10z"/>
<path d="M1576 342 c-3 -5 1 -9 9 -9 8 0 12 4 9 9 -3 4 -7 8 -9 8 -2 0 -6 -4
-9 -8z"/>
<path d="M1619 348 c-5 -18 -6 -38 -1 -34 7 8 12 36 6 36 -2 0 -4 -1 -5 -2z"/>
<path d="M1976 342 c-3 -4 4 -9 15 -9 23 -2 25 3 4 10 -8 4 -16 3 -19 -1z"/>
<path d="M2056 342 c-3 -5 1 -9 9 -9 8 0 12 4 9 9 -3 4 -7 8 -9 8 -2 0 -6 -4
-9 -8z"/>
<path d="M2095 341 c-3 -5 -2 -12 3 -15 5 -3 9 1 9 9 0 17 -3 19 -12 6z"/>
<path d="M2456 338 c3 -5 10 -6 15 -3 13 9 11 12 -6 12 -8 0 -12 -4 -9 -9z"/>
<path d="M2535 340 c3 -5 8 -10 11 -10 2 0 4 5 4 10 0 6 -5 10 -11 10 -5 0 -7
-4 -4 -10z"/>
<path d="M2616 342 c-3 -4 4 -9 15 -9 23 -2 25 3 4 10 -8 4 -16 3 -19 -1z"/>
<path d="M2894 342 c4 -3 14 -7 22 -8 9 -1 13 0 10 4 -4 3 -14 7 -22 8 -9 1
-13 0 -10 -4z"/>
<path d="M2974 336 c1 -8 5 -18 8 -22 4 -3 5 1 4 10 -1 8 -5 18 -8 22 -4 3 -5
-1 -4 -10z"/>
<path d="M974 316 c1 -8 5 -18 8 -22 4 -3 5 1 4 10 -1 8 -5 18 -8 22 -4 3 -5
-1 -4 -10z"/>
<path d="M890 299 c0 -5 5 -7 10 -4 6 3 10 8 10 11 0 2 -4 4 -10 4 -5 0 -10
-5 -10 -11z"/>
<path d="M1055 300 c3 -5 8 -10 11 -10 2 0 4 5 4 10 0 6 -5 10 -11 10 -5 0 -7
-4 -4 -10z"/>
<path d="M1175 300 c-3 -5 -1 -10 4 -10 6 0 11 5 11 10 0 6 -2 10 -4 10 -3 0
-8 -4 -11 -10z"/>
<path d="M1330 300 c0 -5 5 -10 11 -10 5 0 7 5 4 10 -3 6 -8 10 -11 10 -2 0
-4 -4 -4 -10z"/>
<path d="M1416 298 c3 -5 10 -6 15 -3 13 9 11 12 -6 12 -8 0 -12 -4 -9 -9z"/>
<path d="M1715 299 c-3 -4 2 -6 10 -5 21 3 28 13 10 13 -9 0 -18 -4 -20 -8z"/>
<path d="M1815 300 c-3 -5 -1 -10 4 -10 6 0 11 5 11 10 0 6 -2 10 -4 10 -3 0
-8 -4 -11 -10z"/>
<path d="M1895 300 c3 -5 8 -10 11 -10 2 0 4 5 4 10 0 6 -5 10 -11 10 -5 0 -7
-4 -4 -10z"/>
<path d="M2080 300 c-12 -7 -10 -9 7 -7 12 0 19 5 17 9 -6 10 -6 10 -24 -2z"/>
<path d="M2195 299 c-3 -4 2 -6 10 -5 21 3 28 13 10 13 -9 0 -18 -4 -20 -8z"/>
<path d="M2290 300 c0 -5 5 -10 11 -10 5 0 7 5 4 10 -3 6 -8 10 -11 10 -2 0
-4 -4 -4 -10z"/>
<path d="M2376 298 c3 -5 10 -6 15 -3 13 9 11 12 -6 12 -8 0 -12 -4 -9 -9z"/>
<path d="M2775 299 c-3 -4 2 -6 10 -5 21 3 28 13 10 13 -9 0 -18 -4 -20 -8z"/>
<path d="M937 275 c-4 -8 -3 -16 1 -19 4 -3 9 4 9 15 2 23 -3 25 -10 4z"/>
<path d="M2030 280 c0 -5 5 -10 10 -10 6 0 10 5 10 10 0 6 -4 10 -10 10 -5 0
-10 -4 -10 -10z"/>
<path d="M1213 265 c0 -8 4 -12 9 -9 5 3 6 10 3 15 -9 13 -12 11 -12 -6z"/>
<path d="M1733 265 c0 -8 4 -12 9 -9 5 3 6 10 3 15 -9 13 -12 11 -12 -6z"/>
<path d="M2293 265 c0 -8 4 -12 9 -9 5 3 6 10 3 15 -9 13 -12 11 -12 -6z"/>
<path d="M1019 268 c-5 -18 -6 -38 -1 -34 7 8 12 36 6 36 -2 0 -4 -1 -5 -2z"/>
<path d="M1096 262 c-2 -4 -1 -14 4 -22 7 -11 9 -9 7 8 -1 24 -3 26 -11 14z"/>
<path d="M1126 258 c3 -5 10 -6 15 -3 13 9 11 12 -6 12 -8 0 -12 -4 -9 -9z"/>
<path d="M1246 262 c-3 -5 1 -9 9 -9 8 0 12 4 9 9 -3 4 -7 8 -9 8 -2 0 -6 -4
-9 -8z"/>
<path d="M1354 262 c4 -3 14 -7 22 -8 9 -1 13 0 10 4 -4 3 -14 7 -22 8 -9 1
-13 0 -10 -4z"/>
<path d="M2136 258 c3 -4 11 -5 19 -1 21 7 19 12 -4 10 -11 0 -18 -5 -15 -9z"/>
<path d="M2326 262 c-3 -5 1 -9 9 -9 8 0 12 4 9 9 -3 4 -7 8 -9 8 -2 0 -6 -4
-9 -8z"/>
<path d="M2574 256 c1 -8 5 -18 8 -22 4 -3 5 1 4 10 -1 8 -5 18 -8 22 -4 3 -5
-1 -4 -10z"/>
<path d="M2654 256 c1 -8 5 -18 8 -22 4 -3 5 1 4 10 -1 8 -5 18 -8 22 -4 3 -5
-1 -4 -10z"/>
<path d="M2699 268 c-5 -18 -6 -38 -1 -34 7 8 12 36 6 36 -2 0 -4 -1 -5 -2z"/>
<path d="M2726 258 c3 -5 10 -6 15 -3 13 9 11 12 -6 12 -8 0 -12 -4 -9 -9z"/>
<path d="M2834 262 c4 -3 14 -7 22 -8 9 -1 13 0 10 4 -4 3 -14 7 -22 8 -9 1
-13 0 -10 -4z"/>
<path d="M2236 233 c-6 -14 -5 -15 5 -6 7 7 10 15 7 18 -3 3 -9 -2 -12 -12z"/>
<path d="M2979 248 c-5 -18 -6 -38 -1 -34 7 8 12 36 6 36 -2 0 -4 -1 -5 -2z"/>
<path d="M2735 231 c-3 -5 -2 -12 3 -15 5 -3 9 1 9 9 0 17 -3 19 -12 6z"/>
<path d="M1440 220 c-12 -7 -10 -9 7 -7 12 0 19 5 17 9 -6 10 -6 10 -24 -2z"/>
<path d="M1526 222 c-3 -5 1 -9 9 -9 8 0 12 4 9 9 -3 4 -7 8 -9 8 -2 0 -6 -4
-9 -8z"/>
<path d="M1614 216 c1 -8 5 -18 8 -22 4 -3 5 1 4 10 -1 8 -5 18 -8 22 -4 3 -5
-1 -4 -10z"/>
<path d="M1779 228 c-5 -18 -6 -38 -1 -34 7 8 12 36 6 36 -2 0 -4 -1 -5 -2z"/>
<path d="M1894 216 c1 -8 5 -18 8 -22 4 -3 5 1 4 10 -1 8 -5 18 -8 22 -4 3 -5
-1 -4 -10z"/>
<path d="M1976 218 c3 -4 11 -5 19 -1 21 7 19 12 -4 10 -11 0 -18 -5 -15 -9z"/>
<path d="M2056 218 c3 -5 10 -6 15 -3 13 9 11 12 -6 12 -8 0 -12 -4 -9 -9z"/>
<path d="M2170 220 c0 -5 5 -10 11 -10 5 0 7 5 4 10 -3 6 -8 10 -11 10 -2 0
-4 -4 -4 -10z"/>
<path d="M2400 220 c-12 -7 -10 -9 7 -7 12 0 19 5 17 9 -6 10 -6 10 -24 -2z"/>
<path d="M2486 222 c-3 -5 1 -9 9 -9 8 0 12 4 9 9 -3 4 -7 8 -9 8 -2 0 -6 -4
-9 -8z"/>
<path d="M2896 222 c-3 -4 4 -9 15 -9 23 -2 25 3 4 10 -8 4 -16 3 -19 -1z"/>
<path d="M1075 209 c-4 -6 -5 -12 -2 -15 2 -3 7 2 10 11 7 17 1 20 -8 4z"/>
<path d="M2596 207 c3 -10 9 -15 12 -12 3 3 0 11 -7 18 -10 9 -11 8 -5 -6z"/>
<path d="M1333 191 c0 -11 5 -18 9 -15 4 3 5 11 1 19 -7 21 -12 19 -10 -4z"/>
<path d="M1574 196 c1 -8 5 -18 8 -22 4 -3 5 1 4 10 -1 8 -5 18 -8 22 -4 3 -5
-1 -4 -10z"/>
<path d="M2293 191 c0 -11 5 -18 9 -15 4 3 5 11 1 19 -7 21 -12 19 -10 -4z"/>
<path d="M2346 202 c-3 -5 1 -9 9 -9 8 0 15 4 15 9 0 4 -4 8 -9 8 -6 0 -12 -4
-15 -8z"/>
<path d="M955 190 c-4 -6 -11 -7 -17 -4 -7 4 -8 2 -4 -5 6 -9 11 -9 22 0 14
11 18 19 10 19 -3 0 -8 -5 -11 -10z"/>
<path d="M2053 185 c0 -8 4 -12 9 -9 5 3 6 10 3 15 -9 13 -12 11 -12 -6z"/>
<path d="M856 178 c3 -5 10 -6 15 -3 13 9 11 12 -6 12 -8 0 -12 -4 -9 -9z"/>
<path d="M1174 176 c1 -8 5 -18 8 -22 4 -3 5 1 4 10 -1 8 -5 18 -8 22 -4 3 -5
-1 -4 -10z"/>
<path d="M1234 182 c4 -3 14 -7 22 -8 9 -1 13 0 10 4 -4 3 -14 7 -22 8 -9 1
-13 0 -10 -4z"/>
<path d="M1536 182 c-3 -5 1 -9 9 -9 8 0 12 4 9 9 -3 4 -7 8 -9 8 -2 0 -6 -4
-9 -8z"/>
<path d="M1656 178 c3 -5 10 -6 15 -3 13 9 11 12 -6 12 -8 0 -12 -4 -9 -9z"/>
<path d="M1735 180 c3 -5 8 -10 11 -10 2 0 4 5 4 10 0 6 -5 10 -11 10 -5 0 -7
-4 -4 -10z"/>
<path d="M1815 180 c-2 -3 9 -6 25 -6 17 0 27 2 25 5 -8 7 -45 9 -50 1z"/>
<path d="M1935 180 c3 -5 8 -10 11 -10 2 0 4 5 4 10 0 6 -5 10 -11 10 -5 0 -7
-4 -4 -10z"/>
<path d="M2495 179 c-3 -4 2 -6 10 -5 21 3 28 13 10 13 -9 0 -18 -4 -20 -8z"/>
<path d="M2775 180 c-3 -5 -1 -10 4 -10 6 0 11 5 11 10 0 6 -2 10 -4 10 -3 0
-8 -4 -11 -10z"/>
<path d="M2850 180 c0 -5 5 -10 11 -10 5 0 7 5 4 10 -3 6 -8 10 -11 10 -2 0
-4 -4 -4 -10z"/>
<path d="M1993 165 c0 -8 4 -15 9 -15 4 0 8 4 8 9 0 6 -4 12 -8 15 -5 3 -9 -1
-9 -9z"/>
<path d="M2239 178 c-5 -18 -6 -38 -1 -34 7 8 12 36 6 36 -2 0 -4 -1 -5 -2z"/>
<path d="M1105 160 c-3 -6 1 -7 9 -4 18 7 21 14 7 14 -6 0 -13 -4 -16 -10z"/>
<path d="M2705 160 c-3 -6 1 -7 9 -4 18 7 21 14 7 14 -6 0 -13 -4 -16 -10z"/>
<path d="M2945 160 c-3 -6 1 -7 9 -4 18 7 21 14 7 14 -6 0 -13 -4 -16 -10z"/>
<path d="M853 145 c0 -8 4 -12 9 -9 5 3 6 10 3 15 -9 13 -12 11 -12 -6z"/>
<path d="M994 142 c4 -3 14 -7 22 -8 9 -1 13 0 10 4 -4 3 -14 7 -22 8 -9 1
-13 0 -10 -4z"/>
<path d="M1055 140 c-3 -5 -1 -10 4 -10 6 0 11 5 11 10 0 6 -2 10 -4 10 -3 0
-8 -4 -11 -10z"/>
<path d="M1355 139 c-3 -4 2 -6 10 -5 21 3 28 13 10 13 -9 0 -18 -4 -20 -8z"/>
<path d="M1455 140 c-3 -5 -1 -10 4 -10 6 0 11 5 11 10 0 6 -2 10 -4 10 -3 0
-8 -4 -11 -10z"/>
<path d="M2075 139 c-3 -4 2 -6 10 -5 21 3 28 13 10 13 -9 0 -18 -4 -20 -8z"/>
<path d="M2175 140 c-3 -5 -1 -10 4 -10 6 0 11 5 11 10 0 6 -2 10 -4 10 -3 0
-8 -4 -11 -10z"/>
<path d="M2315 139 c-3 -4 2 -6 10 -5 21 3 28 13 10 13 -9 0 -18 -4 -20 -8z"/>
<path d="M2410 140 c0 -5 5 -10 11 -10 5 0 7 5 4 10 -3 6 -8 10 -11 10 -2 0
-4 -4 -4 -10z"/>
<path d="M2610 140 c0 -5 5 -10 11 -10 5 0 7 5 4 10 -3 6 -8 10 -11 10 -2 0
-4 -4 -4 -10z"/>
<path d="M2655 139 c-3 -4 2 -6 10 -5 21 3 28 13 10 13 -9 0 -18 -4 -20 -8z"/>
<path d="M2895 140 c-3 -5 -1 -10 4 -10 6 0 11 5 11 10 0 6 -2 10 -4 10 -3 0
-8 -4 -11 -10z"/>
<path d="M875 121 c-3 -5 -2 -12 3 -15 5 -3 9 1 9 9 0 17 -3 19 -12 6z"/>
<path d="M2013 111 c0 -11 5 -18 9 -15 4 3 5 11 1 19 -7 21 -12 19 -10 -4z"/>
<path d="M2199 113 c-13 -16 -12 -17 4 -4 16 13 21 21 13 21 -2 0 -10 -8 -17
-17z"/>
<path d="M2279 113 c-13 -16 -12 -17 4 -4 16 13 21 21 13 21 -2 0 -10 -8 -17
-17z"/>
<path d="M2835 121 c-3 -5 -2 -12 3 -15 5 -3 9 1 9 9 0 17 -3 19 -12 6z"/>
<path d="M1215 111 c-3 -5 -2 -12 3 -15 5 -3 9 1 9 9 0 17 -3 19 -12 6z"/>
<path d="M1114 102 c4 -3 14 -7 22 -8 9 -1 13 0 10 4 -4 3 -14 7 -22 8 -9 1
-13 0 -10 -4z"/>
<path d="M1294 102 c4 -3 14 -7 22 -8 9 -1 13 0 10 4 -4 3 -14 7 -22 8 -9 1
-13 0 -10 -4z"/>
<path d="M1535 99 c-3 -4 2 -6 10 -5 21 3 28 13 10 13 -9 0 -18 -4 -20 -8z"/>
<path d="M1775 101 c-3 -5 -2 -12 3 -15 5 -3 9 1 9 9 0 17 -3 19 -12 6z"/>
<path d="M1859 108 c-5 -18 -6 -38 -1 -34 7 8 12 36 6 36 -2 0 -4 -1 -5 -2z"/>
<path d="M1930 99 c0 -5 5 -7 10 -4 6 3 10 8 10 11 0 2 -4 4 -10 4 -5 0 -10
-5 -10 -11z"/>
<path d="M2355 99 c-3 -4 2 -6 10 -5 21 3 28 13 10 13 -9 0 -18 -4 -20 -8z"/>
<path d="M2415 100 c-3 -5 -1 -10 4 -10 6 0 11 5 11 10 0 6 -2 10 -4 10 -3 0
-8 -4 -11 -10z"/>
<path d="M2735 100 c3 -5 8 -10 11 -10 2 0 4 5 4 10 0 6 -5 10 -11 10 -5 0 -7
-4 -4 -10z"/>
<path d="M950 96 c0 -2 8 -10 18 -17 15 -13 16 -12 3 4 -13 16 -21 21 -21 13z"/>
<path d="M1414 76 c1 -8 5 -18 8 -22 4 -3 5 1 4 10 -1 8 -5 18 -8 22 -4 3 -5
-1 -4 -10z"/>
<path d="M2253 71 c0 -11 5 -18 9 -15 4 3 5 11 1 19 -7 21 -12 19 -10 -4z"/>
<path d="M2467 79 c7 -7 15 -10 18 -7 3 3 -2 9 -12 12 -14 6 -15 5 -6 -5z"/>
<path d="M2539 88 c-5 -18 -6 -38 -1 -34 7 8 12 36 6 36 -2 0 -4 -1 -5 -2z"/>
<path d="M2787 79 c7 -7 15 -10 18 -7 3 3 -2 9 -12 12 -14 6 -15 5 -6 -5z"/>
<path d="M936 58 c3 -5 10 -6 15 -3 13 9 11 12 -6 12 -8 0 -12 -4 -9 -9z"/>
<path d="M1000 60 c-12 -7 -10 -9 7 -7 12 0 19 5 17 9 -6 10 -6 10 -24 -2z"/>
<path d="M1093 55 c0 -8 4 -12 9 -9 5 3 6 10 3 15 -9 13 -12 11 -12 -6z"/>
<path d="M1295 59 c-3 -4 2 -6 10 -5 21 3 28 13 10 13 -9 0 -18 -4 -20 -8z"/>
<path d="M1490 60 c0 -5 5 -10 11 -10 5 0 7 5 4 10 -3 6 -8 10 -11 10 -2 0 -4
-4 -4 -10z"/>
<path d="M1610 59 c0 -5 5 -7 10 -4 6 3 10 8 10 11 0 2 -4 4 -10 4 -5 0 -10
-5 -10 -11z"/>
<path d="M1690 60 c0 -5 5 -10 11 -10 5 0 7 5 4 10 -3 6 -8 10 -11 10 -2 0 -4
-4 -4 -10z"/>
<path d="M1766 62 c-3 -5 1 -9 9 -9 8 0 12 4 9 9 -7 10 -11 10 -18 0z"/>
<path d="M2095 60 c3 -5 8 -10 11 -10 2 0 4 5 4 10 0 6 -5 10 -11 10 -5 0 -7
-4 -4 -10z"/>
<path d="M2170 59 c0 -5 5 -7 10 -4 6 3 10 8 10 11 0 2 -4 4 -10 4 -5 0 -10
-5 -10 -11z"/>
<path d="M2354 62 c4 -3 14 -7 22 -8 9 -1 13 0 10 4 -4 3 -14 7 -22 8 -9 1
-13 0 -10 -4z"/>
<path d="M2610 59 c0 -5 5 -7 10 -4 6 3 10 8 10 11 0 2 -4 4 -10 4 -5 0 -10
-5 -10 -11z"/>
<path d="M2675 59 c-3 -4 2 -6 10 -5 21 3 28 13 10 13 -9 0 -18 -4 -20 -8z"/>
<path d="M2850 59 c0 -5 5 -7 10 -4 6 3 10 8 10 11 0 2 -4 4 -10 4 -5 0 -10
-5 -10 -11z"/>
<path d="M1737 35 c-4 -8 -3 -16 1 -19 4 -3 9 4 9 15 2 23 -3 25 -10 4z"/>
<path d="M1947 39 c7 -7 15 -10 18 -7 3 3 -2 9 -12 12 -14 6 -15 5 -6 -5z"/>
<path d="M2013 25 c0 -8 4 -12 9 -9 5 3 6 10 3 15 -9 13 -12 11 -12 -6z"/>
<path d="M1096 22 c-3 -4 4 -9 15 -9 23 -2 25 3 4 10 -8 4 -16 3 -19 -1z"/>
<path d="M1210 19 c0 -5 5 -7 10 -4 6 3 10 8 10 11 0 2 -4 4 -10 4 -5 0 -10
-5 -10 -11z"/>
<path d="M1375 21 c-3 -5 -2 -12 3 -15 5 -3 9 1 9 9 0 17 -3 19 -12 6z"/>
<path d="M1530 19 c0 -5 5 -7 10 -4 6 3 10 8 10 11 0 2 -4 4 -10 4 -5 0 -10
-5 -10 -11z"/>
<path d="M2046 22 c-3 -5 1 -9 9 -9 8 0 12 4 9 9 -7 10 -11 10 -18 0z"/>
<path d="M2173 15 c0 -8 4 -12 9 -9 5 3 6 10 3 15 -9 13 -12 11 -12 -6z"/>
<path d="M2293 15 c0 -8 4 -12 9 -9 5 3 6 10 3 15 -9 13 -12 11 -12 -6z"/>
<path d="M2416 18 c3 -4 11 -5 19 -1 21 7 19 12 -4 10 -11 0 -18 -5 -15 -9z"/>
<path d="M2573 15 c0 -8 4 -12 9 -9 5 3 6 10 3 15 -9 13 -12 11 -12 -6z"/>
<path d="M2615 21 c-3 -5 -2 -12 3 -15 5 -3 9 1 9 9 0 17 -3 19 -12 6z"/>
<path d="M2736 18 c3 -4 11 -5 19 -1 21 7 19 12 -4 10 -11 0 -18 -5 -15 -9z"/>
</g>
</svg>
